<svg width="146" height="82" viewBox="0 0 146 82" fill="none" xmlns="http://www.w3.org/2000/svg">
<path fill-rule="evenodd" clip-rule="evenodd" d="M1.15142 23.0682V58.7117V58.9324C1.15142 61.5809 2.14469 64.1189 3.80018 66.1053C4.79353 67.2089 6.00756 68.3122 7.33191 69.1951C11.1947 71.7333 16.7131 73.83 23.7765 75.5954C37.1307 78.7956 55.5618 80.7821 73.1101 80.7821C90.6581 80.7821 109.089 78.7956 122.443 75.5954C129.618 73.83 135.136 71.7333 138.888 69.1951C140.212 68.3122 141.427 67.3191 142.42 66.1053C144.076 64.1189 144.958 61.5809 144.958 58.9324V58.7117V23.0682C144.958 20.6405 144.186 18.3233 142.751 16.4471C141.758 15.123 140.322 13.7989 138.778 12.8056C134.914 10.2676 129.397 8.17092 122.333 6.40525C108.979 3.09471 90.5478 1.2188 72.9996 1.2188C55.4515 1.2188 37.0203 3.20496 23.6661 6.40525C16.4923 8.17092 10.974 10.2676 7.22158 12.8056C5.67641 13.7989 4.24166 15.123 3.24838 16.4471C1.92404 18.3233 1.15142 20.751 1.15142 23.0682ZM7.00084 12.2538C10.8636 9.7158 16.3819 7.61911 23.5557 5.85345C36.91 2.65343 55.4515 0.666992 72.9996 0.666992C90.5478 0.666992 109.089 2.65343 122.443 6.07423C129.618 7.72936 135.136 9.93658 138.999 12.4745C140.543 13.4676 141.978 14.792 143.082 16.2266C144.627 18.3233 145.4 20.6405 145.4 23.1788V58.8222V59.0429C145.4 61.8017 144.407 64.4499 142.64 66.5466C141.647 67.7605 140.433 68.864 138.999 69.7468C135.136 72.2849 129.618 74.3815 122.443 76.1472C109.089 79.3475 90.5478 81.3337 72.9996 81.3337C55.4515 81.3337 36.91 79.3475 23.5557 76.1472C16.3819 74.4921 10.8636 72.2849 7.00084 69.7468C5.56609 68.864 4.35207 67.7605 3.35878 66.5466C1.59289 64.3396 0.599609 61.6912 0.599609 58.9324V58.7117V23.0682C0.599609 20.5303 1.37215 18.1026 2.91731 16.1161C3.91059 14.6815 5.34535 13.3573 7.00084 12.2538ZM69.8001 17.3288C69.8001 21.6327 66.2685 25.2743 61.8538 25.2743C57.4391 25.2743 53.9075 21.743 53.9075 17.3288C53.9075 12.9149 57.4391 9.38365 61.8538 9.38365C66.2685 9.38365 69.8001 12.9149 69.8001 17.3288ZM139.993 18.3222C139.22 17.3288 138.227 16.3358 136.902 15.453C133.371 13.1358 128.183 11.1493 121.562 9.60442C108.318 6.40413 90.3282 4.52822 73.0008 4.52822C55.6734 4.52822 37.6837 6.40413 24.4398 9.60442C17.8178 11.2596 12.5203 13.246 9.09892 15.453C7.66417 16.3358 6.67089 17.3288 6.00868 18.3222C5.0154 19.6463 4.46359 21.1912 4.46359 22.9569V58.6003V58.8211C4.46359 60.697 5.1258 62.4626 6.33981 63.8972C7.00203 64.78 7.99532 65.5523 9.09892 66.325C12.6307 68.6425 17.8178 70.6286 24.4398 72.1735C37.6837 75.3738 55.6734 77.2497 73.0008 77.2497C90.3282 77.2497 108.318 75.3738 121.562 72.1735C128.183 70.5183 133.481 68.5319 136.902 66.325C138.117 65.5523 139 64.6695 139.662 63.8972C140.766 62.5728 141.538 60.8074 141.538 58.8211V58.6003V22.9569C141.538 21.3017 140.987 19.6463 139.993 18.3222ZM131.716 33.5508C132.268 34.9854 132.71 39.5098 132.71 44.9168C132.71 50.324 132.268 54.8484 131.716 56.283C131.661 56.4486 131.578 56.6419 131.495 56.8349C131.463 56.9095 131.432 56.9838 131.401 57.0564C131.353 57.1726 131.309 57.2849 131.275 57.3867C129.288 58.8213 125.977 59.3728 122.556 59.3728C119.245 59.3728 115.824 58.8213 113.837 57.3867C113.73 57.2257 113.648 57.0646 113.581 56.891C113.509 56.7075 113.452 56.5097 113.395 56.283C112.954 54.8484 112.513 50.324 112.402 44.9168C112.402 39.5098 112.844 34.9854 113.395 33.5508C113.451 33.3854 113.533 33.1923 113.616 32.999L113.618 32.9948C113.7 32.8029 113.782 32.6116 113.837 32.4473C115.824 31.0126 119.135 30.461 122.556 30.461C125.867 30.461 129.288 31.0126 131.275 32.4473C131.495 32.7782 131.606 33.1092 131.716 33.5508ZM121.121 35.2059V54.7382C121.121 55.5107 121.783 56.0623 122.556 56.0623C123.328 56.0623 123.991 55.5107 123.991 54.7382V35.2059C123.991 34.4336 123.328 33.8819 122.556 33.8819C121.783 33.8819 121.121 34.4336 121.121 35.2059ZM43.7551 32.7785V18.6536C40.9959 18.2122 38.1264 18.2122 35.1465 18.6536V56.5041C38.016 56.9455 40.3338 56.9455 43.7551 56.5041V41.386V38.4065C43.7551 37.3029 44.8588 36.8616 45.4105 36.8616C45.9623 36.8616 46.9557 37.3029 46.9557 38.4065V41.6065V61.9113C49.9355 62.3527 52.3635 62.3527 55.1228 61.9113V42.1584C55.1228 39.0686 55.0123 36.8616 54.7917 35.758C54.5709 34.5442 53.9088 33.5511 52.8051 32.6682C51.7014 31.7854 50.4873 31.3438 48.9424 31.3438C47.949 31.3438 45.6314 31.6749 43.7551 32.7785ZM32.9378 47.7863C32.8276 51.9795 32.7172 55.1797 32.2758 56.3936C32.2206 56.5591 32.1379 56.7524 32.0549 56.9454C32.0186 57.0301 31.9823 57.1148 31.9484 57.1971C31.9048 57.3026 31.8653 57.4044 31.8342 57.4972C29.8477 58.9318 26.5367 59.4834 23.1153 59.4834C19.8045 59.4834 16.383 58.9318 14.3965 57.4972C14.1758 57.1662 14.0653 56.8351 13.955 56.3936C13.5135 54.959 13.0721 50.5451 12.9617 45.0273C12.9617 39.6203 13.4031 35.096 13.955 33.6614C14.0102 33.4959 14.093 33.3025 14.1758 33.1096C14.2585 32.9165 14.3412 32.7233 14.3965 32.5577C16.383 31.1231 19.694 30.5715 23.1153 30.5715C26.4263 30.5715 29.8477 31.1231 31.8342 32.5577C32.0549 32.8887 32.1653 33.2198 32.2758 33.6614C32.7172 34.8752 32.8276 37.965 32.9378 42.2686H24.5501V35.3165C24.5501 34.5442 23.8878 33.9924 23.1153 33.9924C22.3428 33.9924 21.6807 34.5442 21.6807 35.3165V54.7385C21.6807 55.5107 22.3428 56.0626 23.1153 56.0626C23.8878 56.0626 24.5501 55.5107 24.5501 54.7385V47.7863H32.9378ZM80.0631 50.5451H88.4479C88.3385 54.6843 88.2261 57.839 87.7886 59.0421C87.7335 59.2076 87.6507 59.4009 87.568 59.5939C87.485 59.7872 87.4023 59.9802 87.3471 60.1457C85.3606 61.5804 82.0496 62.1318 78.6282 62.1318C75.3172 62.1318 72.0062 61.5804 69.9094 60.1457C69.7574 59.9176 69.6576 59.6895 69.5743 59.4253C69.5367 59.3061 69.5023 59.1796 69.468 59.0421C69.0265 57.6074 68.585 53.083 68.4746 47.6761C68.4746 42.2689 68.9161 37.7445 69.468 36.3098C69.5019 36.208 69.5464 36.0955 69.5947 35.9791C69.625 35.9065 69.6568 35.8322 69.6886 35.758C69.7714 35.565 69.8541 35.3717 69.9094 35.2063C71.896 33.7716 75.207 33.2201 78.6282 33.2201C81.9392 33.2201 85.2502 33.7716 87.3471 35.2063C87.568 35.5373 87.6782 35.8682 87.7886 36.3098C88.2302 37.5237 88.3405 40.6135 88.4508 44.917H80.0631V37.965C80.0631 37.1926 79.4008 36.6409 78.6282 36.6409C77.8557 36.6409 77.1935 37.1926 77.1935 37.965V57.4972C77.1935 58.2699 77.8557 58.8216 78.6282 58.8216C79.4008 58.8216 80.0631 58.2699 80.0631 57.4972V50.5451ZM110.415 45.1375H102.027V52.0897C102.027 52.8621 101.365 53.4138 100.592 53.4138C99.8196 53.4138 99.1573 52.8621 99.1573 52.0897V32.5575C99.1573 31.7852 99.8196 31.2334 100.592 31.2334C101.365 31.2334 102.027 31.7852 102.027 32.5575V39.5096H110.415C110.304 35.2059 110.194 32.1162 109.753 30.9024C109.642 30.4608 109.532 30.1297 109.311 29.7987C107.324 28.3641 103.903 27.8123 100.592 27.8123C97.1706 27.8123 93.8597 28.3641 91.8731 29.7987C91.818 29.9643 91.7352 30.1572 91.6525 30.3505C91.6158 30.4361 91.5793 30.5217 91.5451 30.6046C91.5018 30.7093 91.4624 30.81 91.4316 30.9024C90.8799 32.3367 90.4385 36.8611 90.4385 42.2683C90.5487 47.7861 90.9902 52.2 91.4316 53.6346C91.4999 53.9072 91.568 54.1378 91.6623 54.3525C91.7206 54.4852 91.7888 54.6117 91.8731 54.7382C93.8597 56.1726 97.2811 56.7244 100.592 56.7244C104.013 56.7244 107.324 56.1726 109.311 54.7382C109.366 54.5727 109.449 54.3797 109.532 54.1867C109.615 53.9931 109.697 53.8001 109.753 53.6346C110.19 52.4314 110.302 49.2765 110.415 45.1375ZM66.2673 56.3936V28.2541C63.1772 27.7024 60.418 27.7024 57.5484 28.2541V56.3936C60.7491 56.8351 63.3979 56.8351 66.2673 56.3936ZM133.261 29.2469C133.481 29.2469 133.702 29.2469 133.812 29.3571C134.033 29.4674 134.143 29.578 134.143 29.909C134.143 30.1297 134.033 30.24 133.922 30.3502C133.868 30.3502 133.814 30.3775 133.759 30.4047L133.757 30.4055C133.702 30.433 133.647 30.4608 133.592 30.4608C133.702 30.4608 133.922 30.571 133.922 30.6813C134.033 30.7918 134.033 30.902 134.033 31.0123V31.1229V31.2331V31.3436H133.702V31.2331V31.1229C133.702 30.902 133.592 30.6813 133.481 30.6813C133.435 30.6813 133.39 30.6624 133.336 30.6403C133.261 30.6089 133.17 30.571 133.04 30.571H132.709V31.3436H132.378V29.2469H133.261ZM133.702 29.578C133.656 29.578 133.611 29.5589 133.557 29.5367C133.481 29.5052 133.39 29.4674 133.261 29.4674H132.93V30.24H133.261H133.592C133.621 30.2105 133.651 30.1887 133.679 30.1687C133.754 30.1138 133.812 30.0706 133.812 29.909C133.812 29.7796 133.774 29.7261 133.743 29.6817C133.721 29.6504 133.702 29.6237 133.702 29.578ZM134.586 31.5641C134.255 31.8951 133.812 32.1159 133.261 32.1159C132.709 32.1159 132.268 31.8951 131.937 31.5641C131.606 31.2331 131.384 30.7918 131.384 30.24C131.384 29.6882 131.606 29.2469 131.937 28.9159C132.268 28.5846 132.709 28.3641 133.261 28.3641C133.812 28.3641 134.255 28.5846 134.586 28.9159C134.917 29.2469 135.137 29.6882 135.137 30.24C135.137 30.7918 135.027 31.2331 134.586 31.5641ZM132.157 29.1364C131.826 29.4674 131.716 29.7985 131.716 30.24C131.716 30.6813 131.826 31.1229 132.157 31.3436C132.488 31.6746 132.819 31.7848 133.261 31.7848C133.702 31.7848 134.033 31.6746 134.364 31.3436C134.696 31.0123 134.806 30.6813 134.806 30.24C134.806 29.7985 134.696 29.4674 134.364 29.1364C134.149 28.9207 133.933 28.7987 133.687 28.74C133.555 28.7086 133.415 28.6951 133.261 28.6951C132.819 28.6951 132.488 28.8053 132.157 29.1364Z" fill="currentColor"/>
</svg>
