<svg width="242" height="50" viewBox="0 0 242 50" fill="none" xmlns="http://www.w3.org/2000/svg">
<path fill-rule="evenodd" clip-rule="evenodd" d="M36.6855 20.1452H45.7464V10.4873H36.6855V20.1452Z" fill="currentColor"/>
<path fill-rule="evenodd" clip-rule="evenodd" d="M36.6855 39.5391H45.7464V29.8535H36.6855V39.5391Z" fill="currentColor"/>
<path fill-rule="evenodd" clip-rule="evenodd" d="M36.6855 49.1989H45.7464V39.541H36.6855V49.1989Z" fill="currentColor"/>
<path fill-rule="evenodd" clip-rule="evenodd" d="M27.5957 10.4852H36.6823V0.799805H27.5957V10.4852Z" fill="currentColor"/>
<path fill-rule="evenodd" clip-rule="evenodd" d="M27.5957 20.1452H36.6823V10.4873H27.5957V20.1452Z" fill="currentColor"/>
<path fill-rule="evenodd" clip-rule="evenodd" d="M27.5957 29.8338H36.6823V20.1484H27.5957V29.8338Z" fill="currentColor"/>
<path fill-rule="evenodd" clip-rule="evenodd" d="M18.5098 10.4852H27.5964V0.799805H18.5098V10.4852Z" fill="currentColor"/>
<path fill-rule="evenodd" clip-rule="evenodd" d="M18.5098 29.8338H27.5964V20.1484H18.5098V29.8338Z" fill="currentColor"/>
<path fill-rule="evenodd" clip-rule="evenodd" d="M18.5098 49.1989H27.5964V39.541H18.5098V49.1989Z" fill="currentColor"/>
<path fill-rule="evenodd" clip-rule="evenodd" d="M9.42188 20.1452H18.4827V10.4873H9.42188V20.1452Z" fill="currentColor"/>
<path fill-rule="evenodd" clip-rule="evenodd" d="M9.42188 29.8613V20.1484H18.5085V29.8613H9.42188Z" fill="currentColor"/>
<path fill-rule="evenodd" clip-rule="evenodd" d="M9.42188 39.5391H18.4827V29.8535H9.42188V39.5391Z" fill="currentColor"/>
<path fill-rule="evenodd" clip-rule="evenodd" d="M0.333984 10.4852V0.799805H9.4206V10.4852H0.333984Z" fill="currentColor"/>
<path fill-rule="evenodd" clip-rule="evenodd" d="M0.333984 20.1452H9.4206V10.4873H0.333984V20.1452Z" fill="currentColor"/>
<path fill-rule="evenodd" clip-rule="evenodd" d="M0.333984 39.5391H9.4206V29.8535H0.333984V39.5391Z" fill="currentColor"/>
<path fill-rule="evenodd" clip-rule="evenodd" d="M0.333984 49.1989H9.4206V39.541H0.333984V49.1989Z" fill="currentColor"/>
<path fill-rule="evenodd" clip-rule="evenodd" d="M102.607 39.5449C96.8767 39.5449 93.6758 34.8123 93.6758 28.5662C93.6758 22.3203 96.8251 17.6426 102.607 17.6426C108.338 17.6426 111.539 22.3203 111.539 28.5662C111.513 34.8123 108.312 39.5449 102.607 39.5449ZM102.607 21.7975C100 21.7975 98.6838 24.3289 98.6838 28.5387C98.6838 32.7211 100 35.225 102.607 35.225C105.215 35.225 106.531 32.7486 106.531 28.5387C106.531 24.3289 105.215 21.7975 102.607 21.7975Z" fill="currentColor"/>
<path fill-rule="evenodd" clip-rule="evenodd" d="M124.193 39.5373C117.842 39.5373 114.357 35.5475 114.357 28.7237C114.357 22.2851 117.507 17.9101 123.547 17.9101C124.606 17.9101 125.742 18.1027 126.335 18.3503V8.52734H131.317V38.0238C129.949 38.8493 127.161 39.5373 124.193 39.5373ZM126.387 22.2575C125.974 22.065 124.967 21.8724 124.089 21.8724C120.992 21.8724 119.34 24.6514 119.34 28.6136C119.34 32.851 121.043 35.3549 124.089 35.3549C124.967 35.3549 126 35.1623 126.387 34.9147V22.2575Z" fill="currentColor"/>
<path fill-rule="evenodd" clip-rule="evenodd" d="M144.097 39.5433C138.651 39.5433 135.811 37.2044 135.811 31.7289V18.0812H140.793V31.8664C140.793 34.1227 141.928 35.1683 144.123 35.1683C145.413 35.1683 146.445 34.9207 147.014 34.673V18.0537H151.995V38.0024C150.215 38.9105 147.168 39.5433 144.097 39.5433Z" fill="currentColor"/>
<path fill-rule="evenodd" clip-rule="evenodd" d="M156.406 39.0433V8.47363H161.389V39.0433H156.406Z" fill="currentColor"/>
<path fill-rule="evenodd" clip-rule="evenodd" d="M173.888 39.4285C171.641 39.4285 169.448 38.7956 167.977 37.9701V8.47363H170.119V18.7094C171.228 18.1316 172.907 17.7464 174.559 17.7464C179.644 17.7464 183.078 21.7361 183.078 28.2298C183.078 36.1542 179.05 39.4285 173.888 39.4285ZM174.378 19.6724C172.881 19.6724 171.228 20.0577 170.171 20.6079V36.7044C170.944 37.0897 172.416 37.5299 173.966 37.5299C177.812 37.5299 180.909 35.0536 180.909 28.3673C180.909 22.9467 178.276 19.6724 174.378 19.6724Z" fill="currentColor"/>
<path fill-rule="evenodd" clip-rule="evenodd" d="M194.589 39.4325C189.426 39.4325 186.818 36.9837 186.818 33.1866C186.818 27.078 193.091 26.3076 199.028 25.9775V24.1339C199.028 20.5845 196.783 19.5389 193.866 19.5389C192.033 19.5389 189.839 20.1718 188.6 20.8596L187.955 19.1536C189.374 18.4107 191.801 17.6953 194.047 17.6953C198.151 17.6953 201.145 19.4563 201.145 24.2716V38.0293C199.751 38.8548 197.015 39.4325 194.589 39.4325ZM199.028 27.6834C194.305 27.9861 188.883 28.2062 188.883 33.1315C188.883 35.8004 190.717 37.6165 194.563 37.6165C196.266 37.6165 198.28 37.2864 199.054 36.846V27.6834H199.028Z" fill="currentColor"/>
<path fill-rule="evenodd" clip-rule="evenodd" d="M219.036 39.0496V24.714C219.036 21.6048 217.256 19.5962 213.694 19.5962C211.731 19.5962 209.976 19.9814 208.891 20.4767V39.0496H206.75V19.1009C208.53 18.2205 211.008 17.6426 213.694 17.6426C218.599 17.6426 221.205 20.2291 221.205 24.5765V39.0496H219.036Z" fill="currentColor"/>
<path fill-rule="evenodd" clip-rule="evenodd" d="M238.959 39.0433L229.046 28.1747H228.942V39.0433H226.877V8.47363H228.942V27.817H229.046L238.468 18.0765H241.152L231.498 28.0646L241.669 39.0433H238.959Z" fill="currentColor"/>
<path fill-rule="evenodd" clip-rule="evenodd" d="M87.7446 10.8996H84.0273H81.8847C76.5411 30.9859 76.5411 30.9859 76.5411 30.9859H76.4379C76.4379 30.9859 76.4379 30.9859 71.0944 10.8996H68.9517H65.2344H63.918V17.6684V39.0479H66.7059H67.0156H68.9002V17.3107C68.9002 17.3107 68.9002 17.3107 74.8117 39.0479H78.1158C83.9757 17.3107 83.9757 17.3107 83.9757 17.3107V39.0479H85.8085H86.1699H88.9578V18.2737V10.8721H87.7704V10.8996H87.7446Z" fill="currentColor"/>
</svg>
