<svg width="121" height="74" viewBox="0 0 121 74" fill="none" xmlns="http://www.w3.org/2000/svg">
<g clip-path="url(#clip0_793_23956)">
<path d="M28.5649 19.7878H51.198V21.5867H30.6396V35.1259H49.9721V36.9248H30.6396V51.7895H51.4338V53.5884H28.5649V19.7878ZM53.2256 19.7878H55.6304L66.2868 34.6525L77.179 19.7878L91.9941 0.90625L67.6542 36.2147L80.1967 53.5884H77.6976L66.2868 37.7769L54.8288 53.5884H52.3769L65.0137 36.2147L53.2256 19.7878ZM81.0926 21.5867V19.7878H106.885V21.5867H95.0025V53.5884H92.9278V21.5867H81.0926ZM0.25 19.7878H2.84338L38.6045 73.3009L23.8261 53.5884L2.41901 22.3442L2.3247 53.5884H0.25V19.7878ZM106.676 51.2466C106.252 51.2466 105.934 50.9182 105.934 50.4937C105.934 50.0693 106.252 49.7409 106.676 49.7409C107.105 49.7409 107.418 50.0693 107.418 50.4937C107.418 50.9182 107.105 51.2466 106.676 51.2466ZM108.715 49.2659H109.825C109.84 49.8672 110.279 50.2714 110.925 50.2714C111.646 50.2714 112.055 49.8369 112.055 49.0234V43.8696H113.185V49.0284C113.185 50.4937 112.338 51.3375 110.935 51.3375C109.618 51.3375 108.715 50.519 108.715 49.2659ZM114.664 49.2002H115.784C115.88 49.8925 116.556 50.3321 117.53 50.3321C118.438 50.3321 119.105 49.8621 119.105 49.2154C119.105 48.6596 118.681 48.3261 117.717 48.0987L116.778 47.8714C115.461 47.5632 114.861 46.9265 114.861 45.8553C114.861 44.5568 115.92 43.6928 117.51 43.6928C118.988 43.6928 120.068 44.5568 120.134 45.7846H119.034C118.928 45.1126 118.343 44.6932 117.495 44.6932C116.602 44.6932 116.006 45.1227 116.006 45.7795C116.006 46.3 116.39 46.5981 117.338 46.8204L118.141 47.0175C119.634 47.3661 120.25 47.9724 120.25 49.0689C120.25 50.4634 119.17 51.3375 117.444 51.3375C115.83 51.3375 114.745 50.5038 114.664 49.2002Z" fill="#A3A3A3"/>
</g>
<defs>
<clipPath id="clip0_793_23956">
<rect width="120" height="72.4219" fill="white" transform="translate(0.25 0.90625)"/>
</clipPath>
</defs>
</svg>
