<svg width="242" height="50" viewBox="0 0 242 50" fill="none" xmlns="http://www.w3.org/2000/svg">
<path d="M10.6197 16.3096C13.1407 16.3096 15.2987 16.4314 16.9323 17.1825C17.981 17.6696 19.9373 19.0094 20.7441 20.674C21.1676 21.5469 21.6517 22.4807 21.6517 24.531C21.6517 26.5813 21.3491 28.3473 20.1995 30.1336C18.5458 32.6915 15.8634 33.5034 14.8751 33.8283C12.0516 34.8027 6.70709 34.3966 6.46507 34.3764L6.78775 48.8704H0.333984L0.475161 16.4314C0.475161 16.4314 9.26843 16.3096 10.6197 16.3096ZM9.55077 32.1637C11.4062 31.981 12.4751 31.4125 13.1609 30.8239C14.0079 30.0931 14.6331 29.1999 15.1373 27.8804C15.581 26.7031 15.6214 24.7949 15.4802 23.6783C15.2382 22.0138 14.3104 20.4711 13.6449 19.8824C12.6768 19.0298 11.2247 18.7253 9.7323 18.6847C8.09868 18.644 6.54574 18.8876 6.54574 18.8876V32.0216C6.54574 32.0216 8.38104 32.2855 9.55077 32.1637Z" fill="currentColor"/>
<path d="M36.2752 16.4531H39.2601C39.2601 16.4531 44.1004 28.5924 46.4198 34.0327C48.7391 39.473 53.0954 48.8921 53.0954 48.8921H45.9559L43.9592 43.7969L42.0029 38.8031L30.3055 38.7829C30.3055 38.7829 28.8332 42.1932 28.1072 44.2028C27.3812 46.2126 26.5543 48.8921 26.5543 48.8921C26.5543 48.8921 22.2787 48.8921 22.1777 48.8921C22.1777 48.8921 26.5946 39.0467 29.1559 33.444C33.7138 23.3754 36.2752 16.4531 36.2752 16.4531ZM40.6114 35.8596L36.2147 24.5323L31.4349 35.8799C31.4349 35.8799 34.6819 36.0221 36.2551 36.0221C38.4332 36.0017 40.6114 35.8596 40.6114 35.8596Z" fill="currentColor"/>
<path d="M60.5361 16.4531H62.7949C62.7949 16.4531 70.6405 24.7354 75.5009 29.6074C81.3497 35.4536 85.0807 38.8234 85.0807 38.8234C85.0807 38.8234 85.0605 33.2613 84.9194 28.2472C84.7782 23.2332 84.4959 16.4531 84.4959 16.4531H88.4689C88.4689 16.4531 88.1664 26.5625 88.1059 32.1245C88.0454 37.6866 88.0857 48.8921 88.0857 48.8921H86.1093C86.1093 48.8921 78.7278 41.0766 73.8874 36.2657C69.047 31.4546 63.6218 26.4608 63.6218 26.4608C63.6218 26.4608 63.5413 33.8905 63.6823 39.2497C63.8236 44.6088 64.1664 48.8921 64.1664 48.8921H60.1328C60.1328 48.8921 60.4959 43.8172 60.5564 39.1483C60.6169 34.4792 60.5361 16.4531 60.5361 16.4531Z" fill="currentColor"/>
<path d="M112.565 16.4531C116.014 16.4531 120.935 17.2448 122.67 18.2801C124.404 19.3155 126.824 21.1424 127.913 22.9896C129.123 25.0805 130.293 27.8007 130.293 31.7997C130.293 35.5552 129.466 38.6002 128.317 40.691C126.058 44.7713 123.799 45.8472 122.226 46.8823C119.423 48.7094 115.389 48.8312 113.312 48.8921H100.081C100.081 48.8921 100.162 36.8138 100.122 28.7751C100.081 20.7364 99.9199 16.4531 99.9199 16.4531C99.9199 16.4531 109.117 16.4531 112.565 16.4531ZM106.192 46.1719C106.555 46.2328 111.537 46.4764 113.352 46.3749C115.51 46.2531 118.414 44.9742 120.007 43.1473C121.076 41.9293 123.718 38.9858 123.759 31.5764C123.779 27.212 121.742 24.1062 120.754 22.7663C119.443 20.98 116.196 19.2342 113.412 19.0719C110.629 18.9093 106.354 19.1733 106.253 19.1733C106.253 19.1733 105.95 27.1308 105.93 31.9011C105.91 36.6717 106.192 46.1719 106.192 46.1719Z" fill="currentColor"/>
<path d="M155.224 0.799805L153.953 8.737H156.575L155.224 0.799805Z" fill="currentColor"/>
<path d="M147.434 1.5127L149.773 9.14538L152.395 8.86119L147.434 1.5127Z" fill="currentColor"/>
<path d="M162.946 1.5127L160.606 9.14538L157.984 8.86119L162.946 1.5127Z" fill="currentColor"/>
<path d="M155.219 11.8818C155.831 11.8818 156.328 11.391 156.328 10.7856C156.328 10.1802 155.831 9.68945 155.219 9.68945C154.606 9.68945 154.109 10.1802 154.109 10.7856C154.109 11.391 154.606 11.8818 155.219 11.8818Z" fill="currentColor"/>
<path d="M158.713 12.2031C159.325 12.2031 159.822 11.7123 159.822 11.1069C159.822 10.5015 159.325 10.0107 158.713 10.0107C158.1 10.0107 157.604 10.5015 157.604 11.1069C157.604 11.7123 158.1 12.2031 158.713 12.2031Z" fill="currentColor"/>
<path d="M151.693 12.2031C152.306 12.2031 152.802 11.7123 152.802 11.1069C152.802 10.5015 152.306 10.0107 151.693 10.0107C151.081 10.0107 150.584 10.5015 150.584 11.1069C150.584 11.7123 151.081 12.2031 151.693 12.2031Z" fill="currentColor"/>
<path d="M151.066 13.2213L151.49 14.7235C151.49 14.7235 155.382 14.2566 158.75 14.8047L159.315 13.2213C159.295 13.2213 154.777 12.4905 151.066 13.2213Z" fill="currentColor"/>
<path d="M137.596 32.3697C137.596 27.9851 139.391 23.0928 142.517 20.4945C145.582 17.9367 149.031 16.0488 155.162 16.0488C161.293 16.0488 165.63 18.1397 168.151 20.4945C171.558 23.6613 172.729 27.5588 172.729 32.2683C172.729 36.3485 171.558 38.9266 170.53 41.058C169.865 42.4384 166.235 49.1982 155.142 49.1982C144.07 49.1982 140.48 42.8647 139.491 41.2002C138.281 39.0484 137.596 36.7341 137.596 32.3697ZM144.07 32.3697C144.07 34.9682 144.473 37.2823 145.058 39.089C145.643 40.8957 148.144 46.7826 155.182 46.7826C162.221 46.7826 164.217 41.4641 164.822 40.1852C165.892 37.8507 166.336 35.293 166.336 32.4104C166.336 28.7767 166.052 27.5181 164.844 24.6964C163.412 21.3268 160.486 18.4239 155.182 18.4239C149.878 18.4239 147.7 21.2861 145.723 24.7168C144.433 26.9294 144.07 30.0556 144.07 32.3697Z" fill="currentColor"/>
<path d="M181.359 16.3721C181.359 16.3721 191.242 16.3721 194.791 16.3721C200.54 16.3721 203.404 20.2087 203.404 24.0657C203.404 27.476 201.912 29.242 199.774 30.866C198.139 32.1044 195.457 32.7133 195.215 32.7336C195.215 32.7336 198.523 37.7071 200.64 40.6302C202.758 43.5535 206.912 48.8922 206.912 48.8922H198.926C198.926 48.8922 195.962 44.2639 193.945 41.2596C191.927 38.2552 188.499 33.3832 188.499 33.3832H187.47L187.631 48.8922H181.219C181.219 48.8922 181.421 40.752 181.421 34.52C181.421 28.288 181.359 16.3721 181.359 16.3721ZM191.686 31.2518C195.678 30.724 197.11 27.5775 197.11 25.1618C197.11 22.7462 196.628 20.4928 194.388 19.2952C192.149 18.1178 187.431 18.8892 187.431 18.8892L187.45 31.1096C187.491 31.1705 189.589 31.5156 191.686 31.2518Z" fill="currentColor"/>
<path d="M224.846 16.3721H227.832C227.832 16.3721 232.671 28.5316 234.99 33.9922C237.311 39.4529 241.667 48.8922 241.667 48.8922H234.527L232.531 43.7767L230.573 38.7829L218.877 38.7626C218.877 38.7626 217.404 42.1731 216.678 44.1827C215.952 46.1923 215.125 48.8922 215.125 48.8922C215.125 48.8922 210.849 48.8922 210.748 48.8922C210.748 48.8922 215.166 39.0265 217.727 33.4035C222.285 23.3145 224.846 16.3721 224.846 16.3721ZM229.182 35.8193L224.785 24.4513L220.005 35.8395C220.005 35.8395 223.252 35.9816 224.826 35.9816C227.003 35.9613 229.182 35.8193 229.182 35.8193Z" fill="currentColor"/>
</svg>
