<svg width="121" height="120" viewBox="0 0 121 120" fill="none" xmlns="http://www.w3.org/2000/svg">
<path d="M60.917 12L103.417 36V84L60.917 108L18.417 84V36L60.917 12Z" fill="#D1D1D1"/>
<path d="M95.1415 82.201L61.8769 101V86.3583L82.6027 74.9676L95.1415 82.201ZM97.417 80.1423V40.8274L85.2441 47.8463V73.1155L97.417 80.1423ZM25.6924 82.201L58.957 101V86.3583L38.2313 74.9676L25.6924 82.201ZM23.417 80.1423V40.8274L35.5899 47.8463V73.1155L23.417 80.1423ZM24.8411 38.2838L58.957 19V33.1568L37.1015 45.1675L36.9345 45.2629L24.8411 38.2838ZM95.9929 38.2838L61.8769 19V33.1568L83.7324 45.1675L83.8995 45.2629L95.9929 38.2838Z" fill="#757575"/>
<path d="M58.9509 83L38.417 71.8497V49.7544L58.9509 61.4649V83ZM61.8831 83L82.417 71.8497V49.7544L61.8831 61.4649V83ZM39.8072 47.1976L60.421 36L81.0348 47.1976L60.421 58.9555L39.8072 47.1976Z" fill="#474747"/>
</svg>
