<svg width="71" height="86" viewBox="0 0 71 86" fill="none" xmlns="http://www.w3.org/2000/svg">
<g clip-path="url(#clip0_793_23938)">
<path d="M52.5263 54.6677C51.9455 47.0072 49.4737 42.0418 48.2699 39.2277C47.0667 36.414 45.2168 33.7801 45.2156 33.7842C45.212 33.7962 43.55 42.7484 40.5616 49.2254C40.0627 50.3073 39.4003 51.6577 38.7318 52.7454L38.732 52.7455C36.6687 56.3861 33.6755 59.8689 31.8911 63.3992C30.1219 66.8979 29.7936 70.3631 29.9583 74.3027C30.1243 78.264 31.0397 82.1493 31.9187 86.0004C35.2325 85.2858 38.1169 84.0629 40.6118 82.4999C47.178 78.3854 51.1456 71.8045 52.2732 64.7146C52.2732 64.7146 52.3282 64.4267 52.3526 64.0755C52.8612 58.596 52.693 56.8672 52.5263 54.6677Z" fill="#919191"/>
<path d="M52.5263 54.6679C51.9455 47.0074 49.4736 42.042 48.2699 39.2278C47.0667 36.4141 45.2167 33.7803 45.2156 33.7844L45.2151 33.7863C45.2152 33.7851 45.2156 33.7838 45.2156 33.7838L44.7739 33.1275C35.0909 19.5417 16.5204 12.7585 0.83034 19.0455C0.074876 28.5682 4.49214 44.9534 20.6069 49.5235C27.1217 51.5267 32.3386 51.0074 38.7322 52.7449C38.7318 52.7451 38.7318 52.7453 38.7316 52.7454C38.7316 52.7454 45.2305 55.0092 49.0113 58.404C50.712 59.9307 52.4149 61.9398 52.3294 64.3295C52.8682 58.6421 52.6957 56.9022 52.5263 54.6679Z" fill="#BFBFBF"/>
<path fill-rule="evenodd" clip-rule="evenodd" d="M45.4895 25.8114C43.1998 19.1161 44.1701 14.6297 48.359 8.38608C50.3568 5.40714 53.8064 1.95177 56.8295 0C69.0272 7.6397 73.5373 21.8697 69.0515 35.0853C65.7868 44.7012 62.7237 48.733 54.9791 58.6267C55.8818 48.0306 52.1507 40.6849 48.4872 32.5224C47.555 30.4457 46.2656 28.0815 45.4895 25.8114Z" fill="#A8A8A8"/>
<path d="M52.3297 64.3294C52.4152 61.9397 50.7123 59.9307 49.0114 58.4039C45.2306 55.0092 38.732 52.7455 38.732 52.7455C39.4006 51.6578 40.063 50.3073 40.5617 49.2254C43.5502 42.7483 45.2122 33.7963 45.2158 33.7842C45.217 33.7801 47.0668 36.4141 48.2701 39.2277C49.474 42.0419 51.9458 47.0072 52.5265 54.6677C52.6957 56.9021 52.8682 58.6421 52.3297 64.3294Z" fill="#797979"/>
</g>
<defs>
<clipPath id="clip0_793_23938">
<rect width="70" height="86" fill="white" transform="translate(0.75)"/>
</clipPath>
</defs>
</svg>
