<svg width="174" height="62" viewBox="0 0 174 62" fill="none" xmlns="http://www.w3.org/2000/svg">
<path d="M63.6726 18.4082C51.6586 18.4082 41.9023 28.0202 41.9023 39.8318C41.9023 51.6436 51.6789 61.2357 63.6726 61.2357C75.6866 61.2357 85.463 51.6238 85.463 39.8318C85.4429 28.0202 75.6866 18.4082 63.6726 18.4082ZM74.719 39.8318C74.719 45.9953 69.7603 50.9896 63.6726 50.9896C57.5648 50.9896 52.6061 45.9756 52.6061 39.8318C52.6061 33.6683 57.5648 28.6741 63.6726 28.6741C69.7804 28.6543 74.719 33.6683 74.719 39.8318Z" fill="currentColor"/>
<path d="M104.253 0.75H92.4004V60.2051H104.253V0.75Z" fill="currentColor"/>
<path d="M123.38 0.75H111.527V60.2051H123.38V0.75Z" fill="currentColor"/>
<path d="M171.341 30.7092C167.974 23.0197 160.678 18.4219 151.808 18.4219C139.794 18.4219 130.018 28.0337 130.018 39.8455C130.018 51.6573 139.794 61.2494 151.808 61.2494C156.384 61.2494 160.214 59.9612 163.519 57.3054L163.6 60.1989H173.477V45.3154C173.477 40.5193 173.236 35.0296 171.341 30.7092ZM162.854 39.8256C162.854 45.9892 157.896 50.9835 151.808 50.9835C145.7 50.9835 140.742 45.9693 140.742 39.8256C140.742 33.6621 145.7 28.6679 151.808 28.6679C157.896 28.6679 162.854 33.6621 162.854 39.8256Z" fill="currentColor"/>
<path d="M40.615 19.9324L40.4739 19.4766H2.45662V28.6525H22.3522L0.521484 59.8862L0.581957 60.2033H39.1032V50.5913H19.2077L40.615 19.9324Z" fill="currentColor"/>
</svg>
