<svg width="174" height="48" viewBox="0 0 174 48" fill="none" xmlns="http://www.w3.org/2000/svg">
<path fill-rule="evenodd" clip-rule="evenodd" d="M93.3214 21.0488C93.3371 21.096 93.3529 21.143 93.3529 21.2058C93.6674 22.9642 94.3594 24.7225 95.3661 26.2297L84.3568 36.4661C78.5693 27.1717 79.9533 14.7374 88.2573 7.01317C97.5679 -1.65313 111.974 -1.15073 120.718 7.95517L118.139 10.3415C118.043 10.226 117.946 10.1046 117.848 9.98085C117.626 9.70107 117.394 9.40962 117.133 9.14836C111.911 3.49641 103.167 3.18241 97.5049 8.39476C94.2965 11.4091 92.7867 15.6167 93.1013 19.6986C93.1641 19.7615 93.1641 19.887 93.1641 20.0126C93.1956 20.1696 93.2114 20.3109 93.2271 20.4523C93.2428 20.5936 93.2586 20.7348 93.29 20.8918C93.29 20.9546 93.3057 21.0017 93.3214 21.0488ZM85.2375 1.67482C65.3583 -0.334757 52.7135 2.30281 46.3597 4.3124V17.9398L46.4227 18.0027C50.323 14.2974 55.2299 11.8483 60.1997 10.1527V46.7019H69.5732V7.89196C74.8821 6.93706 79.6819 6.63556 82.8668 6.43548C83.8711 6.37239 84.7148 6.3194 85.3634 6.25917L85.2375 1.67482ZM33.339 25.8531H15.7245C19.562 12.0373 27.1739 6.88774 33.339 5.12935V25.8531ZM0.563381 46.7025H13.3339C13.3339 40.4853 13.8372 35.1474 14.655 30.6259H33.339V46.7025H42.7754V4.43857V2.05219V1.2358C-2.45626 1.2358 0.563381 46.7025 0.563381 46.7025ZM131.163 1.9894V1.2358C176.394 1.2358 173.438 46.7025 173.438 46.7025H160.667C160.667 16.6844 149.217 7.64133 140.598 5.12935V46.7025H131.163V1.9894ZM112.919 21.7079C113.925 23.278 114.617 25.0363 114.932 26.7947C114.932 26.8575 114.947 26.9047 114.963 26.9517C114.979 26.9988 114.994 27.046 114.994 27.1087C115.026 27.2657 115.042 27.4071 115.057 27.5484C115.073 27.6896 115.089 27.8309 115.12 27.9879C115.12 28.1135 115.12 28.2392 115.183 28.3647C115.498 32.4467 113.988 36.6542 110.78 39.6685C105.118 44.881 96.3735 44.567 91.1519 38.915C90.7745 38.5383 90.46 38.0986 90.1454 37.659L87.5662 40.0454C96.3105 49.1512 110.717 49.6536 120.027 40.9873C128.331 33.2631 129.715 20.8288 123.928 11.5345L112.919 21.7079Z" fill="currentColor"/>
</svg>
