<svg width="110" height="62" viewBox="0 0 110 62" fill="none" xmlns="http://www.w3.org/2000/svg">
<path d="M28.5056 18.8572C28.0711 16.3009 26.8763 13.9576 24.9212 12.1469C23.0746 10.3361 20.5764 9.16452 17.9695 8.63196C15.1455 8.0994 12.1042 8.31242 9.38871 9.27103C9.38871 6.39518 9.38871 3.62585 9.38871 0.75C6.45601 0.75 3.63192 0.75 0.699219 0.75C0.699219 8.20591 0.699219 15.6618 0.699219 23.1177C0.699219 24.2894 0.916456 25.3545 1.24231 26.5261C1.89402 29.0825 3.41469 31.4258 5.47844 33.0235C7.5422 34.7276 10.2577 35.5798 12.9732 35.8993C15.2542 36.1123 17.5351 35.8993 19.7075 35.2602C22.0971 34.5147 24.2695 33.13 25.7901 31.2127C27.2022 29.5085 28.0711 27.4848 28.5056 25.3545C28.8315 23.1177 28.9401 20.881 28.5056 18.8572ZM20.142 22.2657C20.142 24.0763 19.8161 25.9936 18.8385 27.5913C18.1868 28.6564 17.1007 29.615 15.7972 29.828C14.6024 30.0411 13.1903 29.9346 12.2128 29.189C11.1266 28.4434 10.3663 27.2717 9.93181 26.1001C9.38871 24.3959 9.28009 22.4786 9.38871 20.668C9.60595 18.9637 10.0404 17.2595 11.018 15.9813C11.7783 15.0227 12.8645 14.3836 14.1679 14.2771C15.2542 14.1707 16.3403 14.3836 17.2093 14.9162C18.1868 15.5554 18.8385 16.5139 19.273 17.579C19.9248 18.9637 20.142 20.668 20.142 22.2657Z" fill="currentColor"/>
<path d="M57.0703 0.757812C59.8944 0.757812 62.6099 0.757812 65.434 0.757812C65.434 7.04208 65.434 13.3264 65.434 19.7171C65.5426 19.6106 65.6511 19.5041 65.7598 19.291C68.0408 15.8827 70.4305 12.3677 72.7115 8.95931C76.2958 8.95931 79.9889 8.95931 83.5733 8.95931C80.0974 13.1133 76.5131 17.1608 73.0372 21.3148C72.9286 21.4213 72.9286 21.5279 73.0372 21.5279C76.9476 26.1079 80.8578 30.5814 84.768 35.1615C81.1837 35.1615 77.7078 35.1615 74.1235 35.1615C74.0148 35.1615 73.9062 35.1615 73.9062 35.055C71.0821 31.0075 68.258 26.96 65.434 23.0191C65.434 27.0666 65.434 31.114 65.434 35.1615C64.2391 35.1615 63.0444 35.1615 61.9582 35.1615C60.3289 35.1615 58.6996 35.1615 57.1789 35.1615C57.0703 23.7646 57.0703 12.2613 57.0703 0.757812Z" fill="currentColor"/>
<path d="M55.2254 24.7239C55.7685 21.4219 55.5513 18.0135 54.2478 14.9246C53.7047 13.54 52.8358 12.3683 51.7496 11.3032C50.6635 10.238 49.2514 9.38595 47.7307 8.95991C45.8842 8.42733 44.0376 8.21431 42.0825 8.42733C39.8015 8.64036 37.5205 9.27944 35.674 10.5576C33.6103 11.9423 32.0896 13.9661 31.1121 16.0963C30.2431 18.1201 29.8086 20.2503 29.8086 22.3805C29.8086 24.6173 30.2431 26.7475 31.1121 28.7713C31.7638 30.156 32.7413 31.5407 34.0448 32.4993C35.1309 33.4579 36.4344 34.2035 37.8464 34.6295C39.8015 35.3751 41.8653 35.5882 43.8205 35.5882C47.1876 35.5882 50.6635 35.1621 53.8133 33.9905C53.4875 32.1797 53.0531 30.2625 52.7272 28.4518C50.0117 29.3038 47.1876 29.6234 44.3635 29.5169C42.517 29.4104 40.6705 28.8779 39.367 27.7062C38.3895 26.9606 37.8464 25.789 37.7378 24.6173C43.7119 24.7239 49.4686 24.7239 55.2254 24.7239ZM37.955 19.0787C38.0637 17.4809 38.7154 15.9897 40.0188 14.9246C40.8878 14.179 42.0825 13.753 43.2774 13.8595C44.4721 13.8595 45.667 14.2855 46.5359 15.2442C47.5135 16.3093 47.8394 17.8005 47.948 19.1852C44.4721 19.0787 41.2136 19.0787 37.955 19.0787Z" fill="currentColor"/>
<path d="M109.211 20.1396C108.994 18.1158 108.342 16.0921 107.256 14.3879C105.844 12.0446 103.563 10.2339 100.847 9.27528C98.6748 8.52969 96.3939 8.31666 94.1129 8.42318C93.244 8.52969 92.2664 8.6362 91.3974 8.84924C89.0078 9.3818 86.7268 10.5534 84.9889 12.2577C83.0338 14.1748 81.8389 16.6247 81.4046 19.2875C80.8614 22.4829 81.0787 25.8913 82.4907 28.7672C83.4683 30.6844 84.9889 32.4951 86.8354 33.6668C88.7906 34.9449 91.0716 35.584 93.3526 35.797C95.6336 36.01 97.806 35.797 99.978 35.1579C102.802 34.3059 105.409 32.4951 106.93 29.9388C108.994 27.063 109.537 23.4416 109.211 20.1396ZM100.63 23.761C100.413 25.2522 99.978 26.8499 99.1093 28.0216C98.4576 28.9802 97.3715 29.6193 96.2852 29.8323C95.1991 30.0453 94.1129 29.8323 93.244 29.4062C92.2664 28.8737 91.506 28.0216 90.963 26.9564C90.4199 25.7848 90.094 24.5067 89.9854 23.122C89.8768 21.5243 89.9854 19.9266 90.4199 18.4354C90.7458 17.2637 91.2888 16.0921 92.2664 15.2401C92.9181 14.6009 93.8956 14.1748 94.8732 14.0683C95.9594 13.9619 97.0456 14.1748 98.0232 14.814C99.0007 15.453 99.7608 16.6247 100.087 17.6898C100.63 19.7135 100.847 21.7373 100.63 23.761Z" fill="currentColor"/>
<path d="M25.4643 49.6399C52.2931 45.912 79.1219 42.2904 106.059 38.5625C106.059 41.3319 106.059 44.1012 106.059 46.8705C98.3474 47.9356 90.7441 49.0008 83.1409 50.066C55.6603 53.6874 28.1797 57.5218 0.699219 61.2497C0.699219 58.4804 0.699219 55.7111 0.699219 53.0482C8.95424 51.8766 17.2093 50.705 25.4643 49.6399Z" fill="currentColor"/>
</svg>
