<svg width="200" height="82" viewBox="0 0 200 82" fill="none" xmlns="http://www.w3.org/2000/svg">
<path fill-rule="evenodd" clip-rule="evenodd" d="M196.451 56.8745H197.104C197.429 56.8745 197.756 56.9284 197.756 57.3605C197.756 57.8464 197.375 57.8464 196.941 57.8464H196.451V56.8745ZM195.963 59.5202H196.451V58.2244H196.941L197.756 59.5202H198.244L197.375 58.1703C197.81 58.1163 198.191 57.9004 198.191 57.3605C198.191 56.7666 197.865 56.4965 197.104 56.4965H195.908V59.5202H195.963ZM194.821 58.0083C194.821 56.7666 195.745 55.7946 196.995 55.7946C198.191 55.7946 199.114 56.7666 199.114 58.0083C199.114 59.3043 198.191 60.2221 196.995 60.2221C195.745 60.2221 194.821 59.3043 194.821 58.0083ZM194.333 58.0083C194.333 59.5202 195.529 60.6001 196.941 60.6001C198.353 60.6001 199.549 59.4663 199.549 58.0083C199.549 56.5505 198.353 55.4167 196.941 55.4167C195.529 55.4167 194.333 56.5505 194.333 58.0083ZM166.674 58.8722V63.1917H155.751V64.5956V66.2154V68.1053H157.002H161.837H163.251C165.804 68.1053 167.87 70.157 167.87 72.6947V74.3145V75.6103V76.7443C167.87 79.282 165.804 81.3337 163.251 81.3337H150.535V77.0142H163.087V75.6103V74.3145V72.4787H161.837H157.002H155.588C153.034 72.4787 150.97 70.4269 150.97 67.8892V66.2694V64.6495V63.5157C150.97 60.978 153.034 58.9263 155.588 58.9263H166.674V58.8722ZM191.725 81.3337H180.639C178.085 81.3337 176.02 79.282 176.02 76.7443V73.7745V66.4314V63.4618C176.02 60.9241 178.085 58.8722 180.639 58.8722H191.725V63.1917H180.802V66.4314V68.2132H191.725V72.5327H180.802V73.7745V77.0142H191.725V81.3337ZM116.845 81.3337H105.759C103.205 81.3337 101.14 79.282 101.14 76.7443V73.7745V66.4314V63.4618C101.14 60.9241 103.205 58.8722 105.759 58.8722H116.845V63.1917H105.868V66.4314V68.2132H116.79V72.5327H105.868V73.7745V77.0142H116.79V81.3337H116.845ZM52.9956 58.8722H55.3865H63.4831C66.037 58.8722 68.1019 60.9241 68.1019 63.4618V81.3337H63.3201V63.1917H55.3322V81.3337H50.5502V58.8722H52.9956ZM130.212 68.2132H138.688V67.3492V64.0557V63.1917H130.212V68.2132ZM143.416 64.1096V67.4033V67.9972C143.416 70.3729 141.623 72.2628 139.341 72.5327L143.797 81.3337H138.472L134.559 72.5327H130.158V81.3337H125.43V58.8722H127.767H130.212H138.852C141.405 58.8722 143.471 60.9241 143.471 63.4618V64.1096H143.416ZM79.1329 58.8722L84.4581 77.5541L90.1094 58.8722H95.5434L88.2619 81.3337H80.763L73.7532 58.8722H79.1329ZM0.449219 63.4618C0.449219 60.9241 2.51412 58.8722 5.06807 58.8722H16.9141V63.1917H5.2311V76.9602H16.9684V81.2797H5.06807C2.51412 81.2797 0.449219 79.2279 0.449219 76.6902V63.4618ZM24.2499 63.4618C24.2499 60.9241 26.3148 58.8722 28.8688 58.8722H38.7586C41.3125 58.8722 43.3774 60.9241 43.3774 63.4618V76.7443C43.3774 79.282 41.3125 81.3337 38.7586 81.3337H28.8688C26.3148 81.3337 24.2499 79.282 24.2499 76.7443V63.4618ZM29.0317 63.2458H38.5956V77.0142H29.0317V63.2458ZM96.5759 0.666992L102.336 18.3229H121.029L105.922 29.2297L111.682 46.8857L96.5759 35.9789L81.4695 46.8857L87.2295 29.2297L72.1231 18.3229H90.8158L96.5759 0.666992Z" fill="currentColor"/>
</svg>
