<svg width="53" height="117" viewBox="0 0 53 117" fill="none" xmlns="http://www.w3.org/2000/svg">
<path fill-rule="evenodd" clip-rule="evenodd" d="M26.0744 91.9186C19.2497 91.9186 13.9762 90.8934 11.4403 90.2824C9.70616 89.8646 8.31365 89.4322 7.25581 88.9881L10.6379 94.7665L11.9609 112.821C11.9609 114.845 18.3908 116.486 26.3223 116.486C34.2538 116.486 40.6837 114.845 40.6837 112.821L41.7312 94.57L44.9313 88.9712C43.869 89.4214 42.464 89.8594 40.7081 90.2824C38.1722 90.8934 32.8988 91.9186 26.0744 91.9186ZM45.0411 33.1683C40.0321 33.8678 33.3843 34.2533 26.3223 34.2533C19.2603 34.2533 12.6124 33.8678 7.60349 33.1683C5.1223 32.8218 3.1593 32.413 1.76891 31.9541C1.43726 31.8444 0.875233 31.6572 0.334372 31.3591L3.43774 59.9207C3.58195 59.4289 3.74249 58.9376 3.92056 58.4481C4.28486 57.445 4.7063 56.4643 5.18458 55.5062C5.66316 54.5484 6.18407 53.6429 6.7473 52.7901C7.31023 51.9375 7.90974 51.1524 8.54493 50.435C9.18042 49.7179 9.83223 49.1011 10.5016 48.5841C11.1706 48.0678 11.846 47.6639 12.5278 47.373C13.2098 47.0822 13.8852 46.9365 14.5543 46.9365C15.3249 46.9365 16.0704 47.1472 16.7906 47.5686C17.5104 47.9898 18.1834 48.6721 18.8104 49.6151C18.9543 49.8258 19.0456 50.0389 19.0834 50.2545C19.1218 50.4703 19.1405 50.6735 19.1405 50.864C19.1405 51.3153 19.0326 51.6718 18.8167 51.9324C18.6009 52.1933 18.3445 52.3236 18.0482 52.3236C17.7767 52.3236 17.5249 52.1806 17.2921 51.8949C17.059 51.6089 16.7987 51.2002 16.5106 50.6684C16.2394 50.1868 15.941 49.8385 15.6151 49.6226C15.2889 49.4071 14.9355 49.2991 14.5543 49.2991C13.9614 49.2991 13.3283 49.5449 12.655 50.0365C11.9815 50.5278 11.3145 51.1775 10.6543 51.985C9.99337 52.7928 9.3603 53.7155 8.75474 54.754C8.14919 55.7922 7.61316 56.8555 7.14728 57.9438C6.6814 59.0328 6.31135 60.1064 6.03593 61.1645C5.76051 62.2226 5.62295 63.1732 5.62295 64.0157C5.62295 64.2969 5.6423 64.5856 5.68009 64.881C5.71849 65.1773 5.79014 65.4454 5.89626 65.6864C6.00177 65.9273 6.14598 66.1251 6.32798 66.2802C6.51028 66.4362 6.74095 66.5136 7.0203 66.5136C7.33381 66.5136 7.68935 66.4083 8.08781 66.1976C8.48567 65.9875 8.89865 65.7112 9.32614 65.3705C9.75393 65.0291 10.1838 64.6431 10.6159 64.2113C11.0482 63.7802 11.4503 63.344 11.8227 62.9023C12.1952 62.4612 12.5257 62.037 12.8135 61.631C13.1016 61.2247 13.3174 60.8709 13.4617 60.5698L14.6431 57.0335C14.787 56.6526 14.9754 56.3817 15.2085 56.2212C15.4413 56.0606 15.6807 55.9802 15.9265 55.9802C16.0447 55.9802 16.1632 56.0005 16.282 56.0404C16.4009 56.0806 16.5064 56.1435 16.5998 56.2284C16.6929 56.314 16.767 56.424 16.822 56.5598C16.877 56.6949 16.9045 56.853 16.9045 57.0335C16.9045 57.5151 16.8622 57.9662 16.7776 58.3879C16.6929 58.8097 16.585 59.2206 16.4535 59.622C16.3223 60.0229 16.1759 60.4268 16.0151 60.8332C15.8543 61.2395 15.6973 61.6633 15.5453 62.105C15.5114 62.1552 15.45 62.3127 15.3609 62.5785C15.272 62.8448 15.1643 63.1786 15.0371 63.5795C14.9101 63.981 14.7722 64.4296 14.6241 64.9263C14.4757 65.4231 14.3236 65.9295 14.167 66.4461C14.0101 66.9628 13.8598 67.4695 13.7159 67.9662C13.5717 68.4626 13.4423 68.9116 13.3283 69.3131C13.214 69.714 13.1188 70.0499 13.0423 70.321C12.9661 70.5919 12.9196 70.7522 12.9027 70.8029C12.8603 70.9629 12.7923 71.1413 12.6995 71.3366C12.6064 71.5322 12.4963 71.7181 12.369 71.8934C12.2421 72.0688 12.1024 72.2148 11.9497 72.3297C11.7973 72.4449 11.6407 72.5029 11.4796 72.5029C11.2087 72.5029 11.0116 72.4125 10.8892 72.2323C10.7661 72.0515 10.705 71.7205 10.705 71.2392V71.0285C10.705 70.958 10.709 70.8825 10.7174 70.8029C10.7256 70.6421 10.7894 70.341 10.9082 69.8993C11.0267 69.4582 11.1685 68.9594 11.3339 68.4025C11.499 67.8456 11.677 67.2688 11.8675 66.6717C12.0577 66.0749 12.2294 65.541 12.382 65.0693C11.9325 65.5712 11.446 66.07 10.9209 66.5668C10.3955 67.0632 9.85763 67.5097 9.30739 67.9058C8.75656 68.3021 8.20179 68.6256 7.64309 68.8765C7.08409 69.1272 6.54626 69.2529 6.02958 69.2529C5.43672 69.2529 4.9264 69.1223 4.4983 68.8614C4.42121 68.8139 4.34835 68.761 4.27579 68.7084L6.00267 86.8141C6.45223 87.9409 14.9155 90.7093 26.0744 90.7093C37.2383 90.7093 45.705 87.9382 46.1467 86.8123L48.6273 65.2861C48.422 65.4745 48.2221 65.6586 48.0311 65.8369C47.3194 66.4987 46.6479 67.068 46.017 67.5445C45.3863 68.021 44.7699 68.3901 44.1686 68.6504C43.5669 68.9116 42.9233 69.0419 42.2373 69.0419C41.5937 69.0419 41.0957 68.9013 40.7444 68.6205C40.3931 68.3399 40.2172 67.9538 40.2172 67.4619V67.3492C40.2172 67.3141 40.2214 67.2712 40.2302 67.221C40.2637 66.9205 40.3955 66.5737 40.6241 66.1828C40.8526 65.7913 41.1278 65.3853 41.4494 64.9641C41.7714 64.5427 42.1143 64.1161 42.4786 63.6847C42.8429 63.2536 43.1797 62.8448 43.4889 62.4582C43.7979 62.0727 44.054 61.719 44.2571 61.3976C44.4609 61.0765 44.5625 60.8159 44.5625 60.6152C44.5625 60.4949 44.5199 60.3996 44.4355 60.3289C44.3506 60.2593 44.2106 60.2237 44.0162 60.2237C43.6773 60.2237 43.3278 60.3116 42.9683 60.487C42.608 60.6623 42.2518 60.8988 41.9005 61.1944C41.5492 61.4904 41.2061 61.8293 40.8714 62.2103C40.5373 62.5915 40.2238 62.9878 39.9315 63.3987C39.6391 63.8105 39.3728 64.2243 39.1312 64.6406C38.8897 65.0569 38.6844 65.4406 38.5148 65.7913C38.464 65.9019 38.392 66.0576 38.2986 66.2578C38.2055 66.4585 38.1039 66.6847 37.9939 66.9353C37.8835 67.1862 37.7671 67.4447 37.6444 67.7099C37.5216 67.9762 37.4095 68.2271 37.3079 68.4626C37.2063 68.6985 37.1153 68.9086 37.0352 69.0945C36.9542 69.2798 36.897 69.408 36.8632 69.4785C36.8208 69.5686 36.751 69.7388 36.6536 69.9897C36.5563 70.2406 36.4438 70.5342 36.3172 70.8701C36.1902 71.206 36.0566 71.5597 35.9166 71.9312C35.7775 72.3019 35.6457 72.6535 35.523 72.9845C35.3999 73.3153 35.292 73.6064 35.1992 73.8573C35.106 74.1077 35.0462 74.2785 35.0208 74.3689C34.9364 74.6298 34.8367 74.875 34.7227 75.1066C34.6081 75.3369 34.4772 75.5401 34.3288 75.716C34.1806 75.8914 34.0113 76.0317 33.8206 76.1369C33.6298 76.2427 33.416 76.295 33.1793 76.295C32.874 76.295 32.6224 76.2218 32.4229 76.0767C32.2243 75.9313 32.1245 75.6526 32.1245 75.2417C32.1245 75.0409 32.1499 74.8354 32.2007 74.6249C32.2515 74.4142 32.3153 74.2056 32.3915 74.0003C32.4677 73.7942 32.5463 73.594 32.6267 73.3984C32.7068 73.2025 32.7812 73.0148 32.8486 72.834C33.3063 71.8309 33.7722 70.8253 34.2462 69.8168C34.7203 68.8088 35.1756 67.8108 35.6121 66.8225C35.7028 66.6163 35.7863 66.4144 35.8749 66.2094C35.8483 66.2354 35.8223 66.2626 35.7963 66.288C35.2454 66.8201 34.6973 67.2887 34.151 67.695C33.6044 68.1014 33.0623 68.4249 32.5251 68.6658C31.987 68.9062 31.4639 69.0268 30.9554 69.0268C30.6083 69.0268 30.3184 68.9718 30.0856 68.8614C29.8525 68.7508 29.6666 68.6002 29.5266 68.41C29.3867 68.2196 29.2869 67.9937 29.2276 67.7328C29.2077 67.6436 29.1953 67.5505 29.1823 67.4577C29.0335 67.5735 28.8836 67.6863 28.7324 67.7933C28.2073 68.1639 27.6906 68.4626 27.1824 68.6882C26.6745 68.914 26.2168 69.0268 25.8107 69.0268C25.4038 69.0268 25.0737 68.8913 24.8191 68.6205C24.5652 68.3499 24.4385 67.8882 24.4385 67.2364C24.4385 66.7745 24.5062 66.2378 24.6413 65.6262C24.4213 66.0174 24.1461 66.4138 23.816 66.8147C23.4853 67.2162 23.1086 67.5823 22.6853 67.9136C22.2611 68.2444 21.7871 68.5128 21.2623 68.7184C20.7368 68.924 20.1651 69.0268 19.5472 69.0268C19.2675 69.0268 18.9987 68.9917 18.7403 68.9216C18.4818 68.8511 18.2553 68.7308 18.0606 68.5603C17.8656 68.3901 17.7093 68.1615 17.5905 67.8758C17.472 67.5901 17.4127 67.231 17.4127 66.7999C17.4127 66.7899 17.4297 66.6369 17.4635 66.3406C17.4974 66.0446 17.6053 65.5782 17.7876 64.9412C17.9696 64.3045 18.2514 63.4791 18.632 62.4657C19.0136 61.4526 19.5514 60.2237 20.2458 58.7795C20.4236 58.3979 20.6292 58.1246 20.8617 57.9593C21.0951 57.7936 21.3466 57.7107 21.6175 57.7107C21.7363 57.7107 21.859 57.7286 21.986 57.7633C22.1136 57.7987 22.2318 57.8537 22.3422 57.929C22.4519 58.0043 22.5411 58.0998 22.6091 58.215C22.6762 58.3302 22.7107 58.4629 22.7107 58.6135C22.7107 58.7139 22.6977 58.8097 22.6723 58.8992C22.6297 59.0706 22.5387 59.2931 22.3996 59.5688C22.2596 59.8452 22.0964 60.1611 21.9098 60.5172C21.7239 60.8734 21.5268 61.257 21.3194 61.6688C21.1117 62.0796 20.9191 62.5059 20.7414 62.9476C20.5636 63.3893 20.4109 63.838 20.2839 64.2945C20.157 64.751 20.0847 65.1951 20.0681 65.6262C20.0681 65.8067 20.1101 65.9721 20.195 66.1226C20.2797 66.2732 20.4197 66.3482 20.6144 66.3482C21.1646 66.3482 21.6897 66.1674 22.1898 65.8067C22.6892 65.4454 23.1506 64.9965 23.5744 64.4599C23.998 63.9232 24.381 63.3461 24.7242 62.729C25.0673 62.112 25.353 61.5482 25.5816 61.0363C25.7427 60.6956 25.8845 60.3289 26.0073 59.938C26.13 59.5465 26.2636 59.1858 26.4075 58.8544C26.5517 58.5231 26.7165 58.2474 26.903 58.0267C27.089 57.8063 27.3224 57.6956 27.6014 57.6956C27.9068 57.6956 28.1477 57.8111 28.3261 58.0418C28.5039 58.2728 28.5924 58.5485 28.5924 58.8692C28.5924 59.0497 28.5356 59.2985 28.421 59.6145C28.3064 59.9304 28.1625 60.2917 27.989 60.698C27.8152 61.1043 27.6268 61.5382 27.424 61.9992C27.2208 62.4612 27.0318 62.9298 26.8589 63.4065C26.6845 63.883 26.5412 64.3495 26.4266 64.806C26.312 65.2622 26.2552 65.6864 26.2552 66.0773C26.2552 66.4386 26.4414 66.6194 26.8139 66.6194C27.0766 66.6194 27.4025 66.529 27.7922 66.3482C28.1819 66.1674 28.5906 65.9143 29.0181 65.5881C29.1248 65.5068 29.2325 65.4219 29.3392 65.3327C29.4586 64.8402 29.5986 64.3849 29.7615 63.971C30.0578 63.188 30.3586 62.411 30.6637 61.6386C30.9684 60.8661 31.2478 60.1587 31.5023 59.5165L35.3515 49.8107C35.5039 49.4195 35.7095 49.1434 35.9674 48.9829C36.2262 48.8227 36.4865 48.7423 36.7492 48.7423C37.0113 48.7423 37.2504 48.8275 37.4666 48.998C37.6828 49.1688 37.791 49.4446 37.791 49.8258C37.791 50.0063 37.7547 50.197 37.6828 50.3975C37.6108 50.5982 37.5198 50.8138 37.4095 51.0445C37.1981 51.5164 36.946 52.0929 36.6536 52.775C36.3613 53.4573 36.0478 54.1998 35.7134 55.0022C35.3787 55.8049 35.0356 56.6399 34.6843 57.5076C34.333 58.3756 33.9899 59.2206 33.6552 60.0432C33.3211 60.8661 33.0073 61.6455 32.715 62.3832C32.4229 63.1206 32.1714 63.7603 31.9591 64.3017C31.866 64.5324 31.775 64.8012 31.6864 65.1071C31.5973 65.4128 31.5531 65.6864 31.5531 65.9273C31.5531 66.0773 31.5785 66.1976 31.6293 66.288C31.6801 66.3784 31.7774 66.4238 31.9213 66.4238C32.0991 66.4238 32.3213 66.3612 32.5883 66.2354C32.8549 66.1102 33.1427 65.9443 33.452 65.7387C33.7616 65.5334 34.0833 65.2976 34.4174 65.0316C34.7523 64.7658 35.0846 64.4901 35.4147 64.2041C35.7455 63.9178 36.0608 63.6321 36.3613 63.3461C36.6618 63.0604 36.9312 62.7971 37.1685 62.5561C37.2241 62.4984 37.2906 62.4576 37.3638 62.427C37.5068 61.9998 37.6374 61.5814 37.7526 61.1721C37.8203 60.9913 37.9137 60.7358 38.0323 60.4045C38.1505 60.0731 38.2862 59.7472 38.4386 59.4261C38.591 59.1054 38.763 58.8266 38.9528 58.5911C39.1436 58.3556 39.3492 58.2374 39.5693 58.2374C39.9082 58.2374 40.154 58.3154 40.3063 58.4705C40.4587 58.6265 40.5349 58.8544 40.5349 59.1556C40.5349 59.2157 40.5264 59.3109 40.5095 59.4412C40.4923 59.5719 40.4717 59.71 40.4463 59.8554C40.4209 60.0006 40.3931 60.1387 40.3635 60.2693C40.3336 60.3996 40.3063 60.4949 40.281 60.555C40.5939 60.2137 40.9328 59.8754 41.2971 59.5395C41.6614 59.2033 42.0381 58.8992 42.4278 58.6289C42.8178 58.3577 43.2156 58.1376 43.6226 57.9662C44.0286 57.7963 44.4355 57.7107 44.8418 57.7107C45.1212 57.7107 45.3987 57.7509 45.6738 57.8314C45.949 57.9115 46.195 58.0294 46.4106 58.1848C46.6268 58.3408 46.8027 58.5361 46.9379 58.7719C47.0733 59.0074 47.141 59.2807 47.141 59.5918C47.141 60.0036 47.0376 60.4422 46.8299 60.9087C46.6225 61.3752 46.3622 61.8441 46.0487 62.3152C45.7352 62.7871 45.3963 63.2457 45.0326 63.6922C44.6683 64.1388 44.3276 64.5448 44.0098 64.9109C43.6921 65.2776 43.4251 65.5881 43.209 65.8439C42.9937 66.1003 42.8807 66.2732 42.8725 66.3636C42.8725 66.4839 42.9109 66.5816 42.9871 66.6572C43.0633 66.7321 43.1902 66.7699 43.368 66.7699C43.5119 66.7699 43.7241 66.6895 44.0032 66.529C44.2825 66.3684 44.6747 66.0903 45.1783 65.694C45.682 65.2976 46.322 64.7658 47.0969 64.0986C47.6284 63.6415 48.2506 63.0964 48.9517 62.4763L52.3117 31.3582C51.7705 31.6569 51.2076 31.8444 50.8757 31.9541C49.4856 32.413 47.5226 32.8218 45.0411 33.1683ZM26.3023 25.7852C11.776 25.7852 0 27.4094 0 29.4131C0 31.4168 11.776 33.041 26.3023 33.041C40.8286 33.041 52.6046 31.4168 52.6046 29.4131C52.6046 27.4094 40.8286 25.7852 26.3023 25.7852ZM36.8045 30.4733C36.8045 30.9434 35.405 31.3247 33.6785 31.3247C31.9522 31.3247 30.5527 30.9434 30.5527 30.4733C30.5527 30.0029 31.9522 29.6217 33.6785 29.6217C35.405 29.6217 36.8045 30.0029 36.8045 30.4733Z" fill="#A3A3A3"/>
<path fill-rule="evenodd" clip-rule="evenodd" d="M31.1855 30.0966C31.17 30.1213 31.162 30.1465 31.162 30.1722C31.162 30.4766 32.2888 30.723 33.6782 30.723C35.068 30.723 36.1945 30.4766 36.1945 30.1722L39.4811 16.8463L52.5515 3.04669C52.5558 3.04248 52.5599 3.03812 52.5639 3.03362C52.8405 2.72071 52.2791 1.75236 51.3477 0.921873C50.4162 0.0913849 49.4104 -0.189778 49.0978 0.126455C49.0954 0.12882 49.0931 0.131218 49.0909 0.13365L35.1454 14.808L31.1855 30.0966Z" fill="#A3A3A3"/>
</svg>
