<svg width="184" height="28" viewBox="0 0 184 28" fill="none" xmlns="http://www.w3.org/2000/svg">
<path d="M164 22.7838V0.383789H174.4C176.981 0.383789 178.933 1.04512 180.256 2.36779C181.28 3.39179 181.792 4.68246 181.792 6.23979C181.792 8.35179 180.811 9.96246 178.848 11.0718C180.235 11.6051 181.28 12.3091 181.984 13.1838C182.688 14.0371 183.04 15.1891 183.04 16.6398C183.04 18.6451 182.293 20.1705 180.8 21.2158C179.307 22.2611 177.259 22.7838 174.656 22.7838H164ZM168.8 9.43979H173.344C175.712 9.43979 176.896 8.62912 176.896 7.00779C176.896 6.26112 176.619 5.69579 176.064 5.31179C175.509 4.90646 174.709 4.70379 173.664 4.70379H168.8V9.43979ZM168.8 18.4638H174.656C176.981 18.4638 178.144 17.6318 178.144 15.9678C178.144 14.3465 176.928 13.5358 174.496 13.5358H168.8V18.4638Z" fill="currentColor"/>
<path d="M142.562 22.7838V0.383789H159.458V4.76779H147.458V9.31179H158.018V13.6958H147.458V18.3998H159.618V22.7838H142.562Z" fill="currentColor"/>
<path d="M112.576 22.9443L104.928 0.384312H110.208L114.848 15.5523L119.872 0.320312H124.096L129.12 15.5523L133.76 0.384312H138.912L131.264 22.9443H126.976L121.92 8.28831L116.864 22.9443H112.576Z" fill="currentColor"/>
<path d="M84.7168 27.9044V24.1924H104.045V27.9044H84.7168Z" fill="#C6964D"/>
<path d="M71.9347 22.7838V4.92779H65.1187V0.383789H83.6787V4.92779H76.8627V22.7838H71.9347Z" fill="currentColor"/>
<path d="M45.7188 22.7838V0.383789H62.7748V4.86379H50.6468V9.63179H61.3348V14.1118H50.6468V22.7838H45.7188Z" fill="currentColor"/>
<path d="M37.9233 19.808C35.662 22.048 32.8246 23.168 29.4113 23.168C25.998 23.168 23.1606 22.048 20.8993 19.808C18.6593 17.568 17.5393 14.8267 17.5393 11.584C17.5393 8.36267 18.67 5.632 20.9313 3.392C23.214 1.13067 26.062 0 29.4753 0C32.8886 0 35.7153 1.12 37.9553 3.36C40.2166 5.6 41.3473 8.34133 41.3473 11.584C41.3473 14.8053 40.206 17.5467 37.9233 19.808ZM24.6113 16.576C25.8913 17.9413 27.5126 18.624 29.4753 18.624C31.438 18.624 33.0486 17.952 34.3073 16.608C35.566 15.2427 36.1953 13.568 36.1953 11.584C36.1953 9.62133 35.5553 7.95733 34.2753 6.592C32.9953 5.22667 31.374 4.544 29.4113 4.544C27.4486 4.544 25.838 5.22667 24.5793 6.592C23.3206 7.936 22.6913 9.6 22.6913 11.584C22.6913 13.5467 23.3313 15.2107 24.6113 16.576Z" fill="currentColor"/>
<path d="M0 22.7838V0.383789H4.928V18.3038H16.096V22.7838H0Z" fill="currentColor"/>
</svg>
