<svg width="95" height="91" viewBox="0 0 95 91" fill="none" xmlns="http://www.w3.org/2000/svg">
<path d="M65.97 63.4796C69.45 63.1196 72.09 60.1196 71.97 56.5196C71.85 52.9196 68.85 50.0396 65.25 50.0396H65.01C61.2901 50.1596 58.41 53.2796 58.53 56.9996C58.65 58.7996 59.37 60.3596 60.45 61.4396C56.37 69.4796 50.13 75.3596 40.77 80.2796C34.41 83.6396 27.81 84.8396 21.21 83.9996C15.81 83.2796 11.61 80.8796 8.97004 76.9196C5.13004 71.0396 4.77004 64.6796 8.01004 58.3196C10.29 53.7596 13.89 50.3996 16.17 48.7196C15.69 47.1596 14.97 44.5196 14.61 42.5996C-2.78996 55.1996 -0.989959 72.2396 4.29004 80.2796C8.25004 86.2796 16.29 89.9996 25.17 89.9996C27.57 89.9996 29.97 89.7596 32.37 89.1596C47.73 86.1596 59.37 77.0396 65.97 63.4796Z" fill="#757575"/>
<path d="M87.0901 48.6004C77.9701 37.9204 64.5301 32.0404 49.1701 32.0404H47.2501C46.1701 29.8804 43.8901 28.4404 41.3701 28.4404H41.1301C37.4101 28.5604 34.5301 31.6804 34.6501 35.4004C34.7701 39.0004 37.7701 41.8804 41.3701 41.8804H41.6101C44.2501 41.7604 46.5301 40.0804 47.4901 37.8004H49.6501C58.7701 37.8004 67.4101 40.4404 75.2101 45.6004C81.2101 49.5604 85.5301 54.7204 87.9301 60.9604C89.9701 66.0004 89.8501 70.9204 87.6901 75.1204C84.3301 81.4804 78.6901 84.9604 71.2501 84.9604C66.4501 84.9604 61.8901 83.5204 59.4901 82.4404C58.1701 83.6404 55.7701 85.5604 54.0901 86.7604C59.2501 89.1604 64.5301 90.4804 69.5701 90.4804C81.0901 90.4804 89.6101 84.1204 92.8501 77.7604C96.3301 70.8004 96.0901 58.8004 87.0901 48.6004Z" fill="#757575"/>
<path d="M26.1301 65.52C26.2501 69.12 29.2501 72 32.8501 72H33.0901C36.8101 71.88 39.6901 68.76 39.5701 65.04C39.4501 61.44 36.4501 58.56 32.8501 58.56H32.6101C32.3701 58.56 32.0101 58.56 31.7701 58.68C26.8501 50.52 24.8101 41.64 25.5301 32.04C26.0101 24.84 28.4101 18.6 32.6101 13.44C36.0901 8.99996 42.8101 6.83996 47.3701 6.71996C60.0901 6.47996 65.4901 22.32 65.8501 28.68C67.4101 29.04 70.0501 29.88 71.8501 30.48C70.4101 11.04 58.4101 0.959961 46.8901 0.959961C36.0901 0.959961 26.1301 8.75996 22.1701 20.28C16.6501 35.64 20.2501 50.4 26.9701 62.04C26.3701 62.88 26.0101 64.2 26.1301 65.52Z" fill="#757575"/>
</svg>
