<svg width="101" height="100" viewBox="0 0 101 100" fill="none" xmlns="http://www.w3.org/2000/svg">
<g clip-path="url(#clip0_871_3986)">
<path d="M100.707 64.076C100.42 61.7479 99.2402 59.7284 97.1914 58.0663C97.1659 58.0353 97.1378 58.0065 97.1074 57.9803L97.0039 57.9061L96.9707 57.8827L95.8828 57.1014L95.8457 57.0741L95.707 56.9764C95.6562 56.9468 95.6017 56.9238 95.5449 56.9081C92.1035 54.8592 86.4062 53.4237 77.6894 56.4999C75.6094 52.9999 75.373 50.1952 76.7656 45.8983C77.0137 45.1503 76.7832 44.6561 76.041 44.3358C74.5488 43.701 72.5059 44.0253 71.0566 44.4081C70.3809 44.5839 69.9746 44.9667 69.8457 45.5467C68.9277 49.8436 66.2598 53.7694 63.6797 57.5585L63.5273 57.7811C61.9375 54.41 62.2676 51.7987 63.375 48.5272C63.5957 47.8749 63.4219 47.4413 62.8105 47.1171C61.1035 46.2362 58.543 46.8417 57.5234 47.1425C56.2305 47.5194 54.8437 51.0135 53.2949 55.1971C52.9043 56.2499 52.5684 57.1503 52.3672 57.5702C51.8887 58.5467 51.4316 59.66 50.9473 60.8417C49.8535 63.5155 48.6211 66.5253 46.8594 68.4159C46.2187 66.9999 47.2266 64.7674 48.2051 62.6014C49.3633 60.0409 50.457 57.621 49.1973 56.076C48.998 55.8318 48.7509 55.6309 48.4711 55.4858C48.1913 55.3407 47.8847 55.2544 47.5703 55.2323C47.1601 55.2011 46.7483 55.268 46.3691 55.4276C46.5 54.3241 46.5058 53.453 46.1836 52.4003C45.7226 50.8983 44.5254 50.0565 42.8769 50.1014C39.123 50.2108 35.9473 53.0077 33.9414 55.3358C32.6055 56.8983 29.6445 58.0897 27.0449 59.1346C26.0176 59.5702 25.041 59.9608 24.2266 60.3514C22.9277 59.2538 21.2773 58.1464 19.5391 56.9764C14.6562 53.6991 9.12304 49.9823 8.93163 44.9432C8.6582 37.4999 17.1348 32.2206 24.5332 28.453C30.1406 25.6014 35.0156 23.7108 39.4375 22.6776C45.6484 21.2264 50.8945 21.5194 55.0273 23.5448C57.2891 24.6522 58.3476 27.0604 57.6758 29.537C55.918 35.9725 48.6348 40.3827 42.4062 42.3671C38.6543 43.5624 35.4609 44.0624 32.6406 43.8983C29.1055 43.6932 26.2187 41.9198 24.9844 41.1639C24.7866 41.0289 24.5775 40.9113 24.3594 40.8124L24.3027 40.7987C24.191 40.7709 24.0737 40.7744 23.9638 40.8088C23.8539 40.8433 23.7556 40.9074 23.6797 40.994C23.4258 41.2967 23.5156 41.7753 23.6074 42.0175C24.8086 45.1561 27.2891 47.1385 30.9785 47.91C32.186 48.1518 33.4151 48.269 34.6465 48.2596C43.2812 48.2596 54.2988 43.2811 58.3457 39.1815C61.1055 36.3885 63.1152 33.5175 63.9473 28.5663C64.8164 23.3807 61.3008 19.7772 57.7187 18.1171C49.0137 14.0995 39.1269 15.6874 32.3652 17.7264C24.4551 20.1112 16.2715 24.4471 9.91601 29.6268C2.08007 36.0077 -0.751961 41.9315 1.49413 47.2538C3.80077 52.7089 9.42577 56.121 14.8652 59.4217C16.623 60.4862 18.2949 61.4999 19.8008 62.5467C19.3476 62.7674 18.8848 62.9921 18.4141 63.2167C13.8476 65.4296 8.66796 67.9198 5.79491 72.035C3.70898 75.0331 3.31835 78.0174 4.63476 80.9061C5.33788 82.4432 6.58788 83.4862 8.32421 84.0057C9.22744 84.2616 10.1628 84.386 11.1016 84.3749C14.4824 84.3749 18.2031 83.0077 20.2285 81.744C23.8066 79.4979 26.125 76.4823 27.1211 72.7811C28.0078 69.4882 27.7949 66.2167 26.5058 63.2967L30.8906 61.0858C28.7754 68.1171 30.3965 72.3163 32.1777 74.6327C32.834 75.4862 34.0176 75.9999 35.3398 76.0233C36.6621 76.0467 37.8789 75.5487 38.5664 74.701C39.8672 73.0897 40.8281 71.205 41.7129 69.3202C41.666 70.5507 41.7246 71.7967 42.1445 72.8534C42.5215 73.8046 43.1426 74.4354 43.9433 74.6776C44.7949 74.9374 45.793 74.7186 46.7539 74.0624C51.084 71.0995 54.0449 63.9882 56.4238 58.2714C56.7617 57.4589 57.0859 56.6776 57.4004 55.9471C57.9889 58.0534 58.8077 60.0885 59.8418 62.0155C60.0723 62.4335 60.0527 62.6171 59.7402 62.9608C59.2695 63.4764 58.6133 64.0995 57.918 64.7596C55.8125 66.7577 53.1914 69.2518 52.8398 71.4452C52.7031 72.3241 53.3086 73.1249 54.248 73.3065C57.0742 73.869 60.4785 73.0467 63.3574 71.1092C65.9746 69.3514 66.959 66.9003 66.2871 63.8456C65.6367 60.9042 67.1211 57.2518 70.6992 52.9823C71.2852 55.4296 72.0664 57.4081 73.1445 59.1405L73.1152 59.1639C70.5098 61.4393 66.9395 64.5546 67.4941 68.3339C67.5407 68.6933 67.6616 69.039 67.8493 69.3491C68.0369 69.6592 68.2871 69.9267 68.584 70.1346C68.9012 70.3488 69.2593 70.4951 69.6357 70.5644C70.0121 70.6336 70.3988 70.6243 70.7715 70.537C74.1836 69.8202 76.7519 68.3768 78.6191 66.1288C80.4863 63.8807 79.8047 61.3885 79.1758 59.455C84.0586 58.1307 88.4062 58.1639 92.4766 59.5526C94.7617 60.3339 96.4004 61.6171 97.3457 63.3885C98.5351 65.6171 97.8926 67.6737 95.5312 69.1796C94.8066 69.6425 94.457 69.9257 94.4355 70.2831C94.4307 70.366 94.446 70.4489 94.48 70.5247C94.514 70.6005 94.5657 70.667 94.6309 70.7186C94.9043 70.9432 95.748 71.3339 97.6562 70.1327C99.4141 69.0292 100.445 67.5272 100.709 65.6405C100.762 65.1203 100.761 64.5961 100.707 64.076ZM22.6348 68.9706L22.6152 69.2206C22.3105 72.0799 20.8574 74.5721 18.2891 76.6424C16.6758 77.9432 14.9238 78.7421 13.3574 78.8944C12.2637 78.9999 11.4687 78.8514 10.9961 78.451C10.6426 78.1522 10.4531 77.705 10.4101 77.0839C10.0898 72.1073 17.8945 67.162 22.2871 65.535C22.6006 66.6515 22.7182 67.8139 22.6348 68.9706ZM42.625 54.9354C41.9023 59.0546 39.7949 66.8299 36.4824 69.8475C36.3242 69.9921 36.1914 70.0428 36.1308 70.0292C36.0703 70.0155 36.0234 69.9432 35.9746 69.8339C34.8691 67.2714 35.2773 62.9432 36.9512 59.5428C38.2383 56.9217 40.0762 55.1854 42.1308 54.66C42.2161 54.6365 42.3041 54.624 42.3926 54.6229C42.4618 54.6181 42.5306 54.6366 42.5879 54.6757C42.6121 54.7139 42.6279 54.7568 42.6343 54.8016C42.6407 54.8463 42.6375 54.892 42.625 54.9354ZM58.9316 69.951C58.3086 70.6014 57.4551 70.5135 57.6562 70.2753L60.8281 66.9081C60.5723 68.0663 59.8164 69.0253 58.9316 69.951ZM72.0898 67.0389C71.7882 67.1876 71.4618 67.2796 71.1269 67.3104C71.0371 65.5389 72.7539 63.5448 74.4473 62.2147C74.9023 64.0624 73.9707 66.0155 72.0898 67.0389Z" fill="#A3A3A3"/>
</g>
<defs>
<clipPath id="clip0_871_3986">
<rect width="100" height="100" fill="white" transform="translate(0.75)"/>
</clipPath>
</defs>
</svg>
