<svg width="202" height="50" viewBox="0 0 202 50" fill="none" xmlns="http://www.w3.org/2000/svg">
<path fill-rule="evenodd" clip-rule="evenodd" d="M45.4032 0.876246C45.6441 0.82847 45.885 0.799805 46.1162 0.799805C47.6097 0.799805 48.9874 1.85087 49.3439 3.38926L54.6816 26.0636C55.2598 28.5289 55.7319 30.7553 56.2329 33.1249C56.2329 33.1249 56.3003 33.4784 56.3196 33.5454C56.8496 31.128 57.5143 28.1659 58.0058 26.0542L63.3532 3.39882C63.7193 1.86043 65.0874 0.80936 66.5905 0.80936C66.8314 0.80936 67.0626 0.82847 67.3035 0.885801L68.8932 1.2489C69.7314 1.44 70.4445 1.94643 70.907 2.67261C71.2442 3.19815 71.4273 3.81923 71.4273 4.44988L71.3406 5.22385L70.4637 8.94081C62.9002 41.0844 62.0525 44.6581 62.0428 44.6867C61.484 46.7316 59.4029 48.9866 57.2349 48.9866H55.4717C53.3521 48.9866 51.1746 46.6838 50.6446 44.6103L41.3565 5.22385C41.2986 4.9563 41.2698 4.69832 41.2698 4.44033C41.2698 3.80968 41.4432 3.19815 41.7901 2.66306C42.2526 1.93687 42.9751 1.43045 43.8039 1.23934L45.4032 0.876246ZM190.804 0.811098H189.195C187.402 0.811098 185.948 2.3017 185.948 4.1363V45.6536C185.948 47.4594 187.441 48.9883 189.224 48.9883H193.117C193.626 48.9883 194.041 48.5774 194.041 48.0614V21.498H200.632C201.142 21.498 201.556 21.0872 201.556 20.5712V17.0166C201.556 15.0387 199.89 13.9781 198.32 13.9781H194.051V4.1363C194.051 2.3017 192.595 0.811098 190.804 0.811098ZM99.7825 0.811134H101.392C103.174 0.811134 104.629 2.30174 104.639 4.13634V7.51886C104.639 9.35346 103.184 10.8441 101.392 10.8441H99.7825C97.9904 10.8441 96.5355 9.35346 96.5355 7.51886V4.13634C96.5355 2.30174 98.0001 0.811134 99.7825 0.811134ZM99.7825 13.9793H101.391C103.174 13.9793 104.629 15.4698 104.638 17.314V45.6643C104.638 47.4989 103.184 48.999 101.391 48.999H99.7825C97.9904 48.999 96.5355 47.4989 96.5355 45.6643V17.314C96.5355 15.4698 98 13.9793 99.7825 13.9793ZM173.49 13.7579H174.539C180.177 13.7579 182.749 18.5069 182.768 22.9213V45.653C182.768 47.4876 181.304 48.9878 179.521 48.9878H177.912C176.12 48.9878 174.665 47.4876 174.665 45.653V24.1443C174.665 22.6537 173.538 21.4976 172.102 21.4976H168.258C166.812 21.4976 165.694 22.6633 165.694 24.1443V45.634C165.694 47.4686 164.239 48.9687 162.448 48.9687H160.839C159.047 48.9687 157.592 47.4686 157.592 45.634V17.0736C157.592 15.8696 158.402 13.9585 160.56 13.9585H162.708C162.997 13.9585 163.267 14.0923 163.441 14.3216L164.356 15.4969C164.501 15.6832 164.668 15.8968 164.804 16.0722L164.807 16.0759C164.949 16.2586 165.059 16.3995 165.078 16.4238C165.29 16.7105 165.56 16.892 165.811 16.892C165.975 16.892 166.253 16.8537 166.832 16.4428L167.776 15.8122L168.421 15.3918C169.482 14.6942 171.158 13.7579 173.49 13.7579ZM139.949 41.4686C138.514 41.4686 137.386 40.3028 137.386 38.8217V36.4425C137.386 34.9615 138.514 33.8053 139.949 33.8053H143.794C145.229 33.8053 146.357 34.9615 146.357 36.4425V38.8217C146.357 40.3124 145.229 41.4686 143.794 41.4686H139.949ZM154.459 22.8455C154.459 17.2939 150.942 13.9783 145.056 13.9783H135.006C133.166 13.9783 131.827 15.0772 131.827 16.5869V20.5713C131.827 21.0873 132.241 21.4982 132.752 21.4982H144.025C145.344 21.4982 146.376 22.5302 146.376 23.8488V28.5117C146.376 28.894 146.299 29.0849 146.28 29.1327C146.27 29.1615 146.173 29.1997 146.077 29.1997C145.788 29.1997 145.585 29.0755 145.2 28.7792L144.641 28.3588L143.794 27.7186C142.907 27.0115 141.414 26.0656 138.918 26.0656H137.935C132.53 26.0656 129.302 30.7189 129.302 35.2194V39.9683C129.302 44.5071 132.53 49.1987 137.935 49.1987H138.918C140.836 49.1987 142.387 48.6923 143.794 47.6221L144.641 47.0105L145.182 46.6188C145.654 46.2747 145.981 46.2174 146.231 46.2079C146.742 46.2079 147.233 46.8099 147.976 47.794L148.225 48.1285L148.612 48.6253C148.784 48.8546 149.054 48.9884 149.343 48.9884H151.491C153.649 48.9884 154.459 47.0774 154.459 45.8735V22.8455ZM123.986 0.811319H122.377C120.585 0.811319 119.13 2.30192 119.13 4.13652V45.6537C119.13 47.4883 120.585 48.9885 122.377 48.9885H126.308C126.819 48.9885 127.233 48.5777 127.233 48.0617V4.13652C127.233 2.30192 125.778 0.811319 123.986 0.811319ZM112.683 0.811974H111.074C109.282 0.811974 107.827 2.30257 107.827 4.13717V45.6544C107.827 47.489 109.282 48.9892 111.074 48.9892H115.005C115.516 48.9892 115.93 48.5782 115.93 48.0624V4.13717C115.93 2.30257 114.475 0.811974 112.683 0.811974ZM76.2628 38.8228C76.2628 40.3039 77.3901 41.4697 78.8257 41.4697H82.67C84.1056 41.4697 85.233 40.3135 85.233 38.8228V36.4436C85.233 34.9626 84.1056 33.8064 82.67 33.8064H78.8257C77.3901 33.8064 76.2628 34.9626 76.2628 36.4436V38.8228ZM83.9322 13.9794C89.8192 13.9794 93.336 17.2951 93.336 22.8466V45.8746C93.336 47.0785 92.5266 48.9897 90.3685 48.9897H88.2198C87.9308 48.9897 87.661 48.8559 87.4876 48.6266L87.1022 48.1296L86.8516 47.7953C86.1097 46.811 85.6184 46.209 85.1078 46.209C84.8572 46.2186 84.5296 46.276 84.0575 46.6199L83.5179 47.0117L82.67 47.6232C81.2634 48.6934 79.7121 49.1998 77.7947 49.1998H76.812C71.4068 49.1998 68.179 44.5082 68.179 39.9694V35.2206C68.179 30.7201 71.4068 26.0667 76.812 26.0667H77.7947C80.2903 26.0667 81.7836 27.0127 82.67 27.7197L83.5179 28.36L84.0768 28.7803C84.4622 29.0766 84.6645 29.2008 84.9535 29.2008C85.0499 29.2008 85.1463 29.1626 85.1559 29.134C85.1751 29.0862 85.2523 28.8951 85.2523 28.5128V23.8499C85.2523 22.5313 84.2213 21.4993 82.9013 21.4993H71.6284C71.1177 21.4993 70.7035 21.0884 70.7035 20.5726V16.588C70.7035 15.0783 72.0427 13.9794 73.8831 13.9794H83.9322ZM4.03915 0.808968H34.6398C36.6149 0.808968 38.2241 2.40468 38.2336 4.35394V45.422C38.2336 47.3809 36.6149 48.9766 34.6398 48.9766H4.03915C2.05436 48.9766 0.445312 47.3809 0.445312 45.422V4.35394C0.445312 2.40468 2.05436 0.808968 4.03915 0.808968ZM5.27351 27.1073C4.58943 38.6787 10.6113 45.931 19.3406 45.931C28.0602 45.931 34.082 38.6787 33.4269 27.1073C33.2149 23.4476 32.2803 19.9982 30.835 17.084C31.9335 15.5742 33.3594 13.2714 34.3711 10.9304C35.6815 7.89183 36.0379 4.8724 35.142 4.01243C33.9953 2.89448 32.5212 4.28953 31.6251 5.15905L31.5355 5.24661C30.9427 5.82479 30.3793 6.3747 29.5536 7.3663C28.8311 8.22626 27.8965 9.43022 26.5571 11.2935C24.4278 9.39199 21.9517 8.27404 19.3502 8.27404C16.7488 8.27404 14.2726 9.38244 12.1432 11.2935C10.7943 9.43022 9.86939 8.22626 9.14677 7.3663C8.32115 6.37467 7.75757 5.8248 7.16496 5.24661L7.07525 5.15905C6.1792 4.28953 4.70505 2.89448 3.55849 4.01243C2.66244 4.8724 3.01893 7.89183 4.32928 10.9304C5.34095 13.281 6.76693 15.5742 7.86532 17.084C6.42007 19.9982 5.48548 23.4476 5.27351 27.1073ZM31.2985 12.6981C30.4507 14.3989 29.3426 16.1953 28.4369 17.4183C28.1784 17.7701 27.8925 18.1257 27.6288 18.4541C27.0471 19.1776 26.5725 19.7682 26.7316 19.8932C27.0302 20.132 28.2249 18.9186 29.1692 17.9057C30.152 16.8451 32.2619 13.7969 33.6205 10.6533C34.9791 7.50963 35.0466 4.98707 34.5454 4.49975C33.9674 3.94555 33.1292 4.53797 31.9827 5.64637L31.9303 5.69748C30.7296 6.86918 29.697 7.87675 26.2305 12.765C24.7072 14.9131 23.3771 17.3965 23.0783 17.954L23.0778 17.9552C23.0499 18.0071 23.0311 18.0422 23.022 18.0585C22.9546 18.1828 22.8679 18.2784 22.6559 18.2496C22.5394 18.2275 22.3999 18.1674 22.2205 18.0902C21.7032 17.8672 20.8553 17.5019 19.274 17.4948C17.7002 17.5018 16.858 17.8639 16.339 18.087C16.1558 18.1657 16.0128 18.2273 15.8922 18.2496C15.6803 18.2878 15.5839 18.1828 15.5261 18.0585C15.5122 18.0346 15.4797 17.9743 15.4304 17.8829C15.0664 17.2084 13.7854 14.8348 12.3176 12.765C8.85115 7.87675 7.81864 6.86918 6.61792 5.69748L6.56555 5.64637C5.42863 4.53797 4.58074 3.94555 4.01229 4.49975C3.50164 4.98707 3.57871 7.50963 4.93725 10.6533C6.29577 13.7969 8.41547 16.8451 9.3886 17.9057C10.3232 18.9186 11.5179 20.1416 11.8166 19.8932C11.9757 19.7682 11.501 19.1776 10.9194 18.4541C10.6556 18.1257 10.3698 17.7701 10.1112 17.4183C9.21517 16.1953 8.10715 14.3894 7.25927 12.6981C6.41139 10.9973 5.72732 9.32511 5.53461 8.59893C5.36118 7.96828 5.30337 7.30898 5.68877 7.19431C6.18015 7.04143 6.64263 7.72939 7.19182 9.01934C7.579 9.9286 7.85765 10.5979 8.08185 11.1364C8.55507 12.273 8.78576 12.8272 9.28261 13.8256C10.1788 15.6169 10.8095 16.6581 11.2831 17.4398C11.4662 17.7421 11.626 18.0061 11.7684 18.2592C12.0864 18.823 12.7223 19.9504 12.7512 20.0364C12.809 20.1893 12.6934 20.3135 12.6645 20.3423C12.6364 20.3755 12.6064 20.4105 12.5747 20.4475C12.0401 21.0725 11.0254 22.2586 10.8435 24.2789C10.6974 25.8953 11.1831 27.2804 11.5078 28.2061C11.59 28.4407 11.6619 28.6457 11.7106 28.8177C11.9515 29.6776 11.9033 30.4803 11.7106 31.0154C11.3927 31.904 11.2 32.8977 11.2674 33.9965L6.63299 33.7672C6.42103 33.7578 6.23797 33.9106 6.22833 34.1113C6.2187 34.312 6.38248 34.4935 6.59446 34.503L14.1964 34.8948C14.3362 34.3866 14.5726 34.0607 14.7656 33.7944C14.8521 33.6751 14.9299 33.5679 14.9864 33.4615C15.1696 33.108 15.2563 32.6302 15.1792 32.1238C15.0733 31.3689 14.6878 30.5567 14.1964 29.9357C13.6762 29.2764 12.5681 27.6042 12.4043 26.104C12.2213 24.47 12.6067 22.8074 13.6665 22.6451C14.6782 22.4825 15.6416 23.2375 16.6052 24.8141C17.5109 26.3046 18.2046 28.1966 18.3009 30.4516C18.3841 32.3135 18.068 32.7227 17.8293 33.0315L17.7999 33.0697C17.5205 33.4233 17.1254 33.9775 17.2026 34.503C17.277 34.9723 17.598 35.2018 17.8927 35.4123C18.018 35.5019 18.1386 35.588 18.2336 35.6879C19.4474 36.9873 17.6554 38.3442 16.7978 38.3346C15.8344 38.3156 14.524 37.8378 14.1868 36.4331L7.52906 36.7771C7.31708 36.7867 7.15328 36.9587 7.16291 37.1688C7.17255 37.3695 7.35562 37.5321 7.56758 37.5225L12.3176 37.274C13.255 38.6609 14.5785 39.2698 15.3596 39.6293C15.5579 39.7205 15.7212 39.7957 15.8344 39.8635C15.8921 39.9089 15.9755 39.9992 16.0845 40.1171C16.5942 40.6682 17.6628 41.824 19.274 41.8318C20.8917 41.8318 21.9546 40.6732 22.4629 40.1193C22.5721 40.0003 22.6558 39.9092 22.7137 39.8635C22.8273 39.7955 22.9919 39.72 23.1918 39.6283C23.9755 39.2687 25.3036 38.6596 26.2401 37.274L30.9902 37.5225C31.2021 37.5321 31.3852 37.3791 31.3948 37.1688C31.4045 36.9683 31.2406 36.7867 31.0287 36.7771L24.3709 36.4331C24.0338 37.8378 22.7234 38.3156 21.7599 38.3346C20.9024 38.3538 19.1103 36.9873 20.3243 35.6879C20.418 35.5861 20.5405 35.4976 20.6683 35.4051C20.9606 35.1937 21.2815 34.9617 21.3552 34.503C21.4323 33.9775 21.0372 33.4233 20.7578 33.0697L20.7311 33.0349C20.4923 32.7252 20.1732 32.3114 20.2568 30.4516C20.3532 28.1966 21.0469 26.2952 21.9525 24.8141C22.9161 23.2375 23.8796 22.4825 24.8912 22.6451C25.951 22.8074 26.3365 24.47 26.1534 26.104C25.9897 27.6042 24.8912 29.2764 24.3614 29.9357C23.8699 30.5567 23.4941 31.3594 23.3786 32.1238C23.2919 32.6302 23.3786 33.108 23.5617 33.4615C23.6182 33.5679 23.6961 33.6751 23.7825 33.7944C23.9757 34.0607 24.2119 34.3866 24.3517 34.8948L31.9537 34.503C32.1657 34.4935 32.3294 34.3214 32.3198 34.1113C32.3101 33.901 32.1271 33.7482 31.9152 33.7672L27.2711 34.0061C27.3386 32.9073 27.1554 31.9136 26.828 31.0249C26.6352 30.4898 26.5966 29.6872 26.828 28.8273C26.8761 28.6567 26.947 28.4535 27.028 28.2211C27.3504 27.2954 27.8337 25.9079 27.6951 24.2885C27.5156 22.2964 26.5183 21.1154 25.9848 20.4838L25.9842 20.483C25.9447 20.4363 25.9079 20.3925 25.874 20.3518C25.8452 20.3231 25.7295 20.1989 25.7873 20.046C25.8162 19.96 26.4519 18.8329 26.77 18.2691C26.9124 18.0159 27.0722 17.7519 27.2554 17.4494C27.7289 16.6677 28.3598 15.6264 29.2559 13.8352C29.7528 12.8367 29.9835 12.2826 30.4567 11.1459C30.681 10.6075 30.9597 9.93788 31.3467 9.0289C31.8958 7.73895 32.3583 7.05099 32.8498 7.20387C33.2352 7.31853 33.1677 7.97784 33.004 8.60848C32.8304 9.33467 32.1464 10.9973 31.2985 12.6981ZM19.2839 40.5691C18.6383 40.5691 17.8868 40.3016 17.405 39.7761C18.012 39.604 18.7635 39.1741 19.2839 38.6103C19.7945 39.1741 20.5461 39.604 21.1626 39.7761C20.6713 40.3016 19.9294 40.5691 19.2839 40.5691ZM16.5545 27.4834C16.4631 27.1829 16.331 26.7484 16.0936 26.2257C15.4119 24.7092 14.4926 24.8784 14.1689 24.938L14.1281 24.9454C14.0175 24.9709 13.9153 25.0204 13.8237 25.0645C13.6761 25.1359 13.5562 25.194 13.4729 25.1173C13.2224 24.888 13.762 24.353 14.5231 24.3624C15.7372 24.3816 16.296 25.4996 16.4982 26.0728C16.8548 27.0761 16.9127 27.8979 16.7777 27.9361C16.6995 27.9603 16.6487 27.7928 16.5545 27.4834ZM16.0939 29.1316C16.4023 28.931 16.4023 28.4628 16.2096 27.8131C16.1229 27.4978 16.0747 27.3352 16.0169 27.2493L15.853 27.2111C15.7278 27.2588 15.2942 27.3926 15.1208 27.0677C14.957 26.7524 15.3038 26.4849 15.4869 26.418L15.5062 26.2842C15.2075 25.7396 14.5137 25.3573 14.0224 25.6918C13.5792 25.9881 13.531 27.2589 14.0802 28.0232C14.851 29.1126 15.7471 29.3609 16.0939 29.1316ZM31.5387 35.2738L24.4377 35.2929C24.457 35.4936 24.4667 35.7133 24.4474 35.9618V36.0192L31.5292 36.0382C31.7411 36.0382 31.9241 35.8567 31.9241 35.6465C31.9241 35.4554 31.7507 35.2738 31.5387 35.2738ZM22.4628 29.1312C22.7999 29.3509 23.7056 29.1122 24.4957 28.0228C25.0449 27.268 24.987 25.9971 24.5439 25.6914C24.0429 25.3569 23.3492 25.7296 23.0601 26.2838L23.0793 26.4175C23.2623 26.4845 23.6093 26.752 23.4455 27.0673C23.272 27.3922 22.8385 27.2584 22.7132 27.2107L22.5495 27.2488C22.4916 27.3348 22.4434 27.4973 22.3567 27.8126C22.1543 28.4624 22.1543 28.9401 22.4628 29.1312ZM24.7353 25.0755C24.6408 25.0294 24.5348 24.9777 24.4195 24.9548L24.3971 24.9499C24.0993 24.8854 23.1579 24.6809 22.4539 26.2352C22.216 26.7591 22.0838 27.192 21.9924 27.4915C21.8987 27.7983 21.8479 27.9649 21.7699 27.9456C21.6253 27.9074 21.6927 27.0952 22.0493 26.0824C22.2515 25.509 22.8104 24.391 24.0244 24.372C24.7856 24.3624 25.3251 24.8974 25.0747 25.1268C24.9936 25.2015 24.8776 25.145 24.7353 25.0755ZM14.1078 35.9714C14.0885 35.7229 14.0982 35.5032 14.1174 35.3025L7.02611 35.2738C6.81414 35.2738 6.63107 35.4554 6.63107 35.6655C6.63107 35.8758 6.81414 36.0574 7.02611 36.0574L14.1078 36.0382V35.9714Z" fill="currentColor"/>
</svg>
