<?xml version="1.0" encoding="utf-8"?><svg viewBox="0 0 242 120" xmlns="http://www.w3.org/2000/svg" xmlns:xlink="http://www.w3.org/1999/xlink"><style>:root>svg{display:none}:root>svg:target{display:block}</style><svg fill="none" viewBox="0 0 174 48" id="atol" xmlns="http://www.w3.org/2000/svg"><path fill-rule="evenodd" clip-rule="evenodd" d="M93.321 21.049c.016.047.032.094.032.157a13.405 13.405 0 002.013 5.024l-11.01 10.236c-5.787-9.294-4.403-21.729 3.901-29.453 9.31-8.666 23.717-8.164 32.461.942l-2.579 2.386a19.75 19.75 0 01-.291-.36 9.645 9.645 0 00-.715-.833c-5.222-5.652-13.966-5.966-19.628-.753A14.05 14.05 0 0093.1 19.699c.063.063.063.188.063.314.032.157.047.298.063.44.016.14.032.282.063.439 0 .063.016.11.031.157zM85.237 1.675c-19.879-2.01-32.523.628-38.877 2.637V17.94l.063.063c3.9-3.706 8.807-6.155 13.777-7.85v36.549h9.373V7.892c5.31-.955 10.109-1.256 13.294-1.457a93.588 93.588 0 002.496-.176l-.126-4.584zM33.34 25.853H15.725C19.561 12.037 27.173 6.888 33.338 5.13v20.724zM.563 46.703h12.77c0-6.218.504-11.556 1.322-16.077h18.684v16.076h9.436V1.236C-2.456 1.236.563 46.703.563 46.703zm130.6-44.714v-.753c45.231 0 42.275 45.467 42.275 45.467h-12.771c0-30.019-11.45-39.062-20.069-41.574v41.574h-9.435V1.989zm-18.244 19.719a14.147 14.147 0 012.013 5.087c0 .063.015.11.031.157a.458.458 0 01.031.157c.032.157.048.298.063.44.016.14.032.282.063.439 0 .125 0 .251.063.377a14.05 14.05 0 01-4.403 11.304c-5.662 5.212-14.406 4.898-19.628-.754-.377-.377-.692-.816-1.007-1.256l-2.579 2.386c8.745 9.106 23.151 9.609 32.461.942 8.304-7.724 9.688-20.158 3.901-29.453l-11.009 10.174z" fill="currentColor"/></svg><svg fill="none" viewBox="0 0 110 62" id="beko" xmlns="http://www.w3.org/2000/svg"><path d="M28.506 18.857c-.435-2.556-1.63-4.9-3.585-6.71-1.846-1.81-4.345-2.982-6.951-3.515-2.824-.533-5.866-.32-8.581.639V.75H.699v22.368c0 1.171.217 2.237.543 3.408.652 2.556 2.173 4.9 4.236 6.497 2.064 1.705 4.78 2.557 7.495 2.876 2.281.213 4.562 0 6.734-.639 2.39-.745 4.563-2.13 6.083-4.047 1.412-1.704 2.281-3.728 2.716-5.858.325-2.237.434-4.474 0-6.498zm-8.364 3.409c0 1.81-.326 3.728-1.303 5.325-.652 1.065-1.738 2.024-3.042 2.237-1.195.213-2.607.107-3.584-.639-1.086-.746-1.847-1.917-2.281-3.089-.543-1.704-.652-3.621-.543-5.432.217-1.704.651-3.409 1.629-4.687.76-.958 1.846-1.597 3.15-1.704 1.086-.106 2.172.107 3.041.64.978.638 1.63 1.597 2.064 2.662.652 1.385.869 3.089.869 4.687zM57.07.758h8.364v18.96c.109-.107.217-.214.326-.427 2.28-3.408 4.67-6.923 6.951-10.332h10.862c-3.476 4.154-7.06 8.202-10.536 12.356-.108.106-.108.213 0 .213 3.91 4.58 7.82 9.053 11.731 13.633H74.124c-.11 0-.218 0-.218-.106-2.824-4.047-5.648-8.095-8.472-12.036v12.142h-8.256c-.108-11.396-.108-22.9-.108-34.403zm-1.845 23.966c.544-3.302.326-6.71-.977-9.8-.543-1.384-1.412-2.556-2.498-3.62a9.5 9.5 0 00-4.02-2.344c-1.846-.533-3.692-.746-5.647-.533-2.282.213-4.563.852-6.409 2.13-2.064 1.385-3.584 3.41-4.562 5.54a15.899 15.899 0 00-1.303 6.284c0 2.236.434 4.366 1.303 6.39.652 1.385 1.63 2.77 2.933 3.728a10.262 10.262 0 003.801 2.13c1.956.746 4.02.96 5.975.96 3.367 0 6.843-.427 9.992-1.599-.326-1.81-.76-3.728-1.086-5.538-2.715.852-5.54 1.171-8.363 1.065-1.847-.107-3.694-.64-4.997-1.81-.977-.746-1.52-1.918-1.63-3.09 5.975.107 11.732.107 17.488.107zm-17.27-5.645c.109-1.598.76-3.09 2.064-4.154.869-.746 2.064-1.172 3.258-1.066 1.195 0 2.39.427 3.259 1.385.977 1.065 1.303 2.556 1.412 3.941-3.476-.106-6.734-.106-9.993-.106z" fill="currentColor"/><path d="M109.211 20.14c-.217-2.024-.869-4.048-1.955-5.752-1.412-2.343-3.693-4.154-6.409-5.113-2.172-.745-4.453-.958-6.734-.852-.869.107-1.847.213-2.716.426-2.39.533-4.67 1.704-6.408 3.409-1.955 1.917-3.15 4.367-3.584 7.03-.544 3.195-.326 6.603 1.086 9.48.977 1.916 2.498 3.727 4.344 4.899 1.956 1.278 4.237 1.917 6.518 2.13 2.28.213 4.453 0 6.625-.64 2.824-.851 5.431-2.662 6.952-5.218 2.064-2.876 2.607-6.497 2.281-9.8zm-8.581 3.621c-.217 1.491-.652 3.089-1.52 4.26-.652.96-1.739 1.598-2.825 1.811-1.086.213-2.172 0-3.041-.426-.978-.532-1.738-1.384-2.281-2.45-.543-1.171-.869-2.45-.978-3.834-.108-1.598 0-3.195.435-4.687.326-1.171.869-2.343 1.846-3.195.652-.64 1.63-1.065 2.607-1.172 1.086-.106 2.173.107 3.15.746.978.639 1.738 1.81 2.064 2.876.543 2.023.76 4.047.543 6.071zM25.464 49.64c26.83-3.728 53.658-7.35 80.595-11.078v8.309c-7.712 1.065-15.315 2.13-22.918 3.195C55.66 53.687 28.18 57.522.699 61.25v-8.202c8.255-1.171 16.51-2.343 24.765-3.408z" fill="currentColor"/></svg><svg fill="none" viewBox="0 0 146 82" id="chicco" xmlns="http://www.w3.org/2000/svg"><path fill-rule="evenodd" clip-rule="evenodd" d="M1.151 23.068v35.864c0 2.649.994 5.187 2.65 7.173.993 1.104 2.207 2.207 3.53 3.09 3.864 2.538 9.382 4.635 16.445 6.4 13.355 3.2 31.786 5.187 49.334 5.187 17.548 0 35.979-1.986 49.333-5.187 7.175-1.765 12.693-3.862 16.445-6.4 1.324-.883 2.539-1.876 3.532-3.09 1.656-1.986 2.538-4.524 2.538-7.173V23.068c0-2.428-.772-4.745-2.207-6.62-.993-1.325-2.429-2.65-3.973-3.642-3.864-2.538-9.381-4.635-16.445-6.4C108.979 3.094 90.548 1.218 73 1.218S37.02 3.205 23.666 6.405c-7.174 1.766-12.692 3.863-16.444 6.4-1.546.994-2.98 2.318-3.974 3.642-1.324 1.876-2.097 4.304-2.097 6.621zm5.85-10.814c3.863-2.538 9.38-4.635 16.555-6.4C36.91 2.653 55.452.666 73 .666c17.548 0 36.089 1.986 49.443 5.407 7.175 1.655 12.693 3.863 16.556 6.4a16.574 16.574 0 014.083 3.753c1.545 2.096 2.318 4.413 2.318 6.952v35.863c0 2.76-.993 5.408-2.76 7.505a14.606 14.606 0 01-3.641 3.2c-3.863 2.538-9.381 4.635-16.556 6.4-13.354 3.2-31.895 5.187-49.443 5.187s-36.09-1.987-49.444-5.187c-7.174-1.655-12.692-3.862-16.555-6.4a14.604 14.604 0 01-3.642-3.2C1.593 64.34.599 61.69.599 58.932V23.068c0-2.538.773-4.965 2.318-6.952.994-1.434 2.428-2.759 4.084-3.862zm62.8 5.075c0 4.304-3.532 7.945-7.947 7.945a7.913 7.913 0 01-7.947-7.945 7.913 7.913 0 017.947-7.945 7.913 7.913 0 017.946 7.945zm70.192.993a13.027 13.027 0 00-3.091-2.869c-3.531-2.317-8.719-4.304-15.34-5.849-13.244-3.2-31.234-5.076-48.561-5.076-17.328 0-35.317 1.876-48.561 5.076-6.622 1.656-11.92 3.642-15.341 5.849-1.435.883-2.428 1.876-3.09 2.87a7.554 7.554 0 00-1.545 4.634V58.82a7.8 7.8 0 001.876 5.076c.662.883 1.655 1.655 2.759 2.428 3.532 2.317 8.719 4.304 15.34 5.849 13.245 3.2 31.234 5.076 48.562 5.076 17.327 0 35.317-1.876 48.561-5.076 6.621-1.656 11.919-3.642 15.34-5.849 1.215-.773 2.098-1.656 2.76-2.428 1.104-1.324 1.876-3.09 1.876-5.076V22.957a7.79 7.79 0 00-1.545-4.635zm-8.277 15.229c.552 1.434.994 5.959.994 11.366s-.442 9.931-.994 11.366a7.44 7.44 0 01-.221.552l-.094.221a5.235 5.235 0 00-.126.33c-1.987 1.435-5.298 1.987-8.719 1.987-3.311 0-6.732-.552-8.719-1.986a2.518 2.518 0 01-.256-.496 4.99 4.99 0 01-.186-.608c-.441-1.435-.882-5.959-.993-11.366 0-5.407.442-9.932.993-11.366.056-.166.138-.359.221-.552l.002-.004c.082-.192.164-.383.219-.548 1.987-1.434 5.298-1.986 8.719-1.986 3.311 0 6.732.552 8.719 1.986.22.331.331.662.441 1.104zm-10.595 1.655v19.532c0 .773.662 1.324 1.435 1.324.772 0 1.435-.551 1.435-1.324V35.206c0-.772-.663-1.324-1.435-1.324-.773 0-1.435.552-1.435 1.324zm-77.366-2.428V18.654c-2.76-.442-5.629-.442-8.608 0v37.85c2.869.442 5.187.442 8.608 0V38.406c0-1.103 1.104-1.544 1.655-1.544.552 0 1.546.44 1.546 1.544v23.505c2.98.442 5.407.442 8.167 0V42.158c0-3.09-.11-5.296-.331-6.4-.221-1.214-.883-2.207-1.987-3.09s-2.318-1.324-3.863-1.324c-.993 0-3.31.33-5.187 1.434zM32.938 47.787c-.11 4.194-.22 7.394-.662 8.608a7.542 7.542 0 01-.221.551l-.107.252a4.79 4.79 0 00-.114.3c-1.986 1.435-5.297 1.986-8.719 1.986-3.31 0-6.732-.551-8.718-1.986-.221-.33-.332-.662-.442-1.103-.441-1.435-.883-5.849-.993-11.367 0-5.407.441-9.931.993-11.366a7.61 7.61 0 01.22-.551 7.72 7.72 0 00.221-.552c1.987-1.435 5.298-1.986 8.72-1.986 3.31 0 6.732.551 8.718 1.986.22.33.331.662.442 1.103.441 1.214.552 4.304.662 8.608H24.55v-6.953c0-.772-.662-1.324-1.435-1.324-.772 0-1.434.552-1.434 1.325V54.74c0 .772.662 1.324 1.434 1.324.773 0 1.435-.552 1.435-1.325v-6.952h8.388zm47.125 2.76h8.385c-.11 4.138-.222 7.293-.66 8.496a7.622 7.622 0 01-.22.552 7.596 7.596 0 00-.22.552c-1.987 1.434-5.298 1.986-8.72 1.986-3.31 0-6.622-.552-8.719-1.986a2.73 2.73 0 01-.335-.72 6.526 6.526 0 01-.106-.384c-.442-1.435-.883-5.959-.993-11.366 0-5.407.441-9.931.993-11.366.034-.102.078-.215.127-.33l.094-.222c.082-.193.165-.386.22-.552 1.987-1.434 5.298-1.986 8.72-1.986 3.31 0 6.621.552 8.718 1.986.221.331.331.662.442 1.104.441 1.214.552 4.303.662 8.607h-8.388v-6.952c0-.772-.662-1.324-1.435-1.324-.772 0-1.434.552-1.434 1.324v19.532c0 .773.662 1.325 1.434 1.325.773 0 1.435-.552 1.435-1.325v-6.952zm30.352-5.408h-8.388v6.952c0 .772-.662 1.324-1.435 1.324-.772 0-1.435-.552-1.435-1.324V32.557c0-.772.663-1.324 1.435-1.324.773 0 1.435.552 1.435 1.324v6.953h8.388c-.111-4.304-.221-7.394-.662-8.608-.111-.441-.221-.772-.442-1.103-1.987-1.435-5.408-1.987-8.719-1.987-3.421 0-6.732.552-8.719 1.987-.055.165-.138.358-.22.552-.037.085-.074.17-.108.254a4.633 4.633 0 00-.113.297c-.552 1.435-.993 5.96-.993 11.366.11 5.518.551 9.932.993 11.367.068.272.136.503.23.718.059.132.127.259.211.385 1.987 1.435 5.408 1.986 8.719 1.986 3.421 0 6.732-.551 8.719-1.986.055-.165.138-.358.221-.551.083-.194.165-.387.221-.552.437-1.204.549-4.358.662-8.497zM66.267 56.394v-28.14c-3.09-.552-5.849-.552-8.719 0v28.14c3.201.441 5.85.441 8.72 0zm66.994-27.147c.22 0 .441 0 .551.11.221.11.331.221.331.552 0 .22-.11.331-.221.441a.38.38 0 00-.163.055h-.002c-.055.028-.11.056-.165.056.11 0 .33.11.33.22.111.11.111.221.111.331v.331h-.331v-.22c0-.221-.11-.442-.221-.442-.046 0-.091-.019-.145-.04a.714.714 0 00-.296-.07h-.331v.773h-.331v-2.097h.883zm.441.331c-.046 0-.091-.02-.145-.041a.711.711 0 00-.296-.07h-.331v.773h.662a.628.628 0 01.087-.071c.075-.055.133-.098.133-.26 0-.13-.038-.183-.069-.227-.022-.032-.041-.058-.041-.104zm.884 1.986a1.83 1.83 0 01-1.325.552c-.552 0-.993-.22-1.324-.552a1.828 1.828 0 01-.553-1.324c0-.552.222-.993.553-1.324a1.826 1.826 0 011.324-.552c.551 0 .994.22 1.325.552.331.33.551.772.551 1.324s-.11.993-.551 1.324zm-2.429-2.428c-.331.331-.441.663-.441 1.104 0 .441.11.883.441 1.104.331.33.662.44 1.104.44.441 0 .772-.11 1.103-.44.332-.332.442-.663.442-1.104 0-.441-.11-.773-.442-1.104a1.382 1.382 0 00-.677-.396 1.828 1.828 0 00-.426-.045c-.442 0-.773.11-1.104.441z" fill="currentColor"/></svg><svg fill="none" viewBox="0 0 200 82" id="fP-1" xmlns="http://www.w3.org/2000/svg"><path fill-rule="evenodd" clip-rule="evenodd" d="M196.451 56.874h.653c.325 0 .652.054.652.486 0 .486-.381.486-.815.486h-.49v-.971zm-.488 2.646h.488v-1.296h.49l.815 1.296h.488l-.869-1.35c.435-.054.816-.27.816-.81 0-.593-.326-.864-1.087-.864h-1.196v3.024h.055zm-1.142-1.512c0-1.241.924-2.213 2.174-2.213 1.196 0 2.119.972 2.119 2.213 0 1.296-.923 2.214-2.119 2.214-1.25 0-2.174-.918-2.174-2.214zm-.488 0c0 1.512 1.196 2.592 2.608 2.592 1.412 0 2.608-1.134 2.608-2.592 0-1.458-1.196-2.591-2.608-2.591-1.412 0-2.608 1.133-2.608 2.591zm-27.659.864v4.32h-10.923v4.914h7.5c2.553 0 4.619 2.051 4.619 4.589v4.049c0 2.538-2.066 4.59-4.619 4.59h-12.716v-4.32h12.552V72.48h-7.499c-2.554 0-4.618-2.052-4.618-4.59v-4.373c0-2.538 2.064-4.59 4.618-4.59h11.086v-.054zm25.051 22.462h-11.086c-2.554 0-4.619-2.052-4.619-4.59V63.461c0-2.537 2.065-4.589 4.619-4.589h11.086v4.32h-10.923v5.021h10.923v4.32h-10.923v4.482h10.923v4.319zm-74.88 0h-11.086c-2.554 0-4.619-2.052-4.619-4.59V63.461c0-2.537 2.065-4.589 4.619-4.589h11.086v4.32h-10.977v5.021h10.922v4.32h-10.922v4.482h10.922v4.319h.055zm-63.85-22.462h10.488c2.554 0 4.619 2.052 4.619 4.59v17.872H63.32V63.192h-7.988v18.142H50.55V58.872h2.446zm77.217 9.341h8.476v-5.021h-8.476v5.021zm13.204-4.103v3.887c0 2.376-1.793 4.266-4.075 4.536l4.456 8.8h-5.325l-3.913-8.8h-4.401v8.8h-4.728v-22.46h13.422c2.553 0 4.619 2.051 4.619 4.589v.648h-.055zm-64.283-5.238l5.325 18.682 5.651-18.682h5.434l-7.281 22.462h-7.499l-7.01-22.462h5.38zM.449 63.462c0-2.538 2.065-4.59 4.62-4.59h11.845v4.32H5.231V76.96h11.737v4.32h-11.9C2.514 81.28.45 79.228.45 76.69V63.462zm23.8 0c0-2.538 2.066-4.59 4.62-4.59h9.89c2.553 0 4.618 2.052 4.618 4.59v13.282c0 2.538-2.065 4.59-4.618 4.59h-9.89c-2.554 0-4.62-2.052-4.62-4.59V63.462zm4.783-.216h9.564v13.768h-9.564V63.246zM96.576.667l5.76 17.656h18.693L105.922 29.23l5.76 17.656-15.106-10.907L81.47 46.886l5.76-17.656-15.107-10.907h18.693L96.576.667z" fill="currentColor"/></svg><svg fill="none" viewBox="0 0 184 28" id="logo" xmlns="http://www.w3.org/2000/svg"><path d="M164 22.784V.384h10.4c2.581 0 4.533.661 5.856 1.984 1.024 1.024 1.536 2.314 1.536 3.872 0 2.112-.981 3.722-2.944 4.832 1.387.533 2.432 1.237 3.136 2.112.704.853 1.056 2.005 1.056 3.456 0 2.005-.747 3.53-2.24 4.576-1.493 1.045-3.541 1.568-6.144 1.568H164zm4.8-13.344h4.544c2.368 0 3.552-.81 3.552-2.432 0-.747-.277-1.312-.832-1.696-.555-.406-1.355-.608-2.4-.608H168.8V9.44zm0 9.024h5.856c2.325 0 3.488-.832 3.488-2.496 0-1.621-1.216-2.432-3.648-2.432H168.8v4.928zm-26.238 4.32V.384h16.896v4.384h-12v4.544h10.56v4.384h-10.56V18.4h12.16v4.384h-17.056zm-29.986.16L104.928.384h5.28l4.64 15.168L119.872.32h4.224l5.024 15.232L133.76.384h5.152l-7.648 22.56h-4.288L121.92 8.288l-5.056 14.656h-4.288z" fill="currentColor"/><path d="M84.717 27.904v-3.712h19.328v3.712H84.717z" fill="#C6964D"/><path d="M71.935 22.784V4.928h-6.816V.384h18.56v4.544h-6.816v17.856h-4.928zm-26.216 0V.384h17.056v4.48H50.647v4.768h10.688v4.48H50.647v8.672h-4.928zm-7.796-2.976c-2.261 2.24-5.098 3.36-8.512 3.36-3.413 0-6.25-1.12-8.512-3.36-2.24-2.24-3.36-4.981-3.36-8.224 0-3.221 1.131-5.952 3.392-8.192C23.214 1.131 26.062 0 29.475 0c3.414 0 6.24 1.12 8.48 3.36 2.262 2.24 3.392 4.981 3.392 8.224 0 3.221-1.141 5.963-3.424 8.224zm-13.312-3.232c1.28 1.365 2.902 2.048 4.864 2.048 1.963 0 3.574-.672 4.832-2.016 1.259-1.365 1.888-3.04 1.888-5.024 0-1.963-.64-3.627-1.92-4.992-1.28-1.365-2.901-2.048-4.864-2.048-1.962 0-3.573.683-4.832 2.048-1.258 1.344-1.888 3.008-1.888 4.992 0 1.963.64 3.627 1.92 4.992zM0 22.784V.384h4.928v17.92h11.168v4.48H0z" fill="currentColor"/></svg><svg fill="none" viewBox="0 0 242 50" id="mb" xmlns="http://www.w3.org/2000/svg"><path fill-rule="evenodd" clip-rule="evenodd" d="M36.685 20.145h9.061v-9.658h-9.06v9.658zm0 19.395h9.061v-9.686h-9.06v9.685zm0 9.659h9.061V39.54h-9.06v9.658zm-9.089-38.714h9.086V.8h-9.086v9.685zm0 9.66h9.086v-9.658h-9.086v9.658zm0 9.689h9.086v-9.686h-9.086v9.686zM18.51 10.485h9.086V.8H18.51v9.685zm0 19.349h9.086v-9.686H18.51v9.686zm0 19.365h9.086V39.54H18.51v9.658zM9.422 20.145h9.06v-9.658h-9.06v9.658zm0 9.716v-9.713h9.087v9.713H9.422z" fill="currentColor"/><path fill-rule="evenodd" clip-rule="evenodd" d="M9.422 39.54h9.06v-9.686h-9.06v9.685zM.334 10.485V.8h9.087v9.685H.334zm0 9.66h9.087v-9.658H.334v9.658zm0 19.395h9.087v-9.686H.334v9.685zm0 9.659h9.087V39.54H.334v9.658zm102.273-9.654c-5.73 0-8.931-4.733-8.931-10.979 0-6.246 3.15-10.923 8.931-10.923 5.731 0 8.932 4.677 8.932 10.923-.026 6.246-3.227 10.979-8.932 10.979zm0-17.748c-2.607 0-3.923 2.532-3.923 6.742 0 4.182 1.316 6.686 3.923 6.686 2.608 0 3.924-2.476 3.924-6.686s-1.316-6.742-3.924-6.742zm21.586 17.74c-6.351 0-9.836-3.99-9.836-10.813 0-6.439 3.15-10.814 9.19-10.814 1.059 0 2.195.193 2.788.44V8.527h4.982v29.497c-1.368.825-4.156 1.513-7.124 1.513zm2.194-17.28c-.413-.192-1.42-.385-2.298-.385-3.097 0-4.749 2.78-4.749 6.742 0 4.237 1.703 6.74 4.749 6.74.878 0 1.911-.192 2.298-.44V22.258zm17.71 17.286c-5.446 0-8.286-2.339-8.286-7.814V18.08h4.982v13.785c0 2.257 1.135 3.302 3.33 3.302 1.29 0 2.322-.247 2.891-.495v-16.62h4.981v19.95c-1.78.907-4.827 1.54-7.898 1.54zm12.309-.5V8.473h4.983v30.57h-4.983zm17.482.385c-2.247 0-4.44-.632-5.911-1.458V8.474h2.142v10.235c1.109-.577 2.788-.963 4.44-.963 5.085 0 8.519 3.99 8.519 10.484 0 7.924-4.028 11.198-9.19 11.198zm.49-19.756c-1.497 0-3.15.386-4.207.936v16.096c.773.386 2.245.826 3.795.826 3.846 0 6.943-2.476 6.943-9.163 0-5.42-2.633-8.695-6.531-8.695zm20.211 19.76c-5.163 0-7.771-2.448-7.771-6.245 0-6.109 6.273-6.88 12.21-7.21v-1.843c0-3.55-2.245-4.595-5.162-4.595-1.833 0-4.027.633-5.266 1.32l-.645-1.705c1.419-.743 3.846-1.459 6.092-1.459 4.104 0 7.098 1.761 7.098 6.577v13.757c-1.394.826-4.13 1.403-6.556 1.403zm4.439-11.749c-4.723.303-10.145.523-10.145 5.449 0 2.668 1.834 4.485 5.68 4.485 1.703 0 3.717-.33 4.491-.771v-9.163h-.026zm20.008 11.367V24.714c0-3.11-1.78-5.118-5.342-5.118-1.963 0-3.718.385-4.803.88V39.05h-2.141V19.1c1.78-.88 4.258-1.457 6.944-1.457 4.905 0 7.511 2.586 7.511 6.933V39.05h-2.169zm19.923-.007l-9.913-10.868h-.104v10.868h-2.065V8.473h2.065v19.344h.104l9.422-9.74h2.684l-9.654 9.988 10.171 10.978h-2.71zM87.745 10.9h-5.86L76.54 30.986h-.103L71.094 10.9h-7.176v28.148H68.9V17.31l5.912 21.737h3.304l5.86-21.737v21.737h4.982V10.872H87.77v.028h-.025z" fill="currentColor"/></svg><svg fill="none" viewBox="0 0 242 50" id="pandora" xmlns="http://www.w3.org/2000/svg"><path d="M10.62 16.31c2.52 0 4.679.121 6.312.873 1.049.487 3.005 1.826 3.812 3.491.424.873.908 1.807.908 3.857 0 2.05-.303 3.816-1.453 5.603-1.653 2.557-4.336 3.37-5.324 3.694-2.823.975-8.168.569-8.41.548l.323 14.494H.334l.141-32.439s8.793-.121 10.145-.121zM9.55 32.164c1.856-.183 2.925-.752 3.61-1.34.848-.73 1.473-1.624 1.977-2.944.444-1.177.484-3.085.343-4.202-.242-1.664-1.17-3.207-1.835-3.796-.968-.852-2.42-1.157-3.913-1.197a20.076 20.076 0 00-3.186.203v13.134s1.835.264 3.005.142zm26.725-15.711h2.985s4.84 12.14 7.16 17.58c2.32 5.44 6.675 14.86 6.675 14.86h-7.14l-1.996-5.096-1.956-4.994-11.698-.02s-1.472 3.41-2.198 5.42-1.553 4.69-1.553 4.69h-4.376s4.417-9.846 6.978-15.449c4.558-10.069 7.12-16.99 7.12-16.99zm4.336 19.407l-4.396-11.328-4.78 11.348s3.247.142 4.82.142a89.337 89.337 0 004.356-.162zm19.925-19.407h2.259S70.64 24.735 75.5 29.607c5.849 5.847 9.58 9.216 9.58 9.216s-.02-5.562-.162-10.576c-.14-5.014-.423-11.794-.423-11.794h3.973s-.303 10.11-.363 15.671c-.06 5.563-.02 16.768-.02 16.768h-1.977s-7.381-7.815-12.222-12.626c-4.84-4.811-10.265-9.805-10.265-9.805s-.08 7.43.06 12.789c.142 5.359.484 9.642.484 9.642h-4.033s.363-5.075.423-9.744-.02-22.695-.02-22.695zm52.029 0c3.449 0 8.37.792 10.105 1.827 1.734 1.035 4.154 2.862 5.243 4.71 1.21 2.09 2.38 4.81 2.38 8.81 0 3.755-.827 6.8-1.976 8.891-2.259 4.08-4.518 5.156-6.091 6.191-2.803 1.827-6.837 1.95-8.914 2.01h-13.231s.081-12.078.041-20.117c-.041-8.039-.202-12.322-.202-12.322h12.645zm-6.373 29.719c.363.06 5.345.304 7.16.203 2.158-.122 5.062-1.4 6.655-3.228 1.069-1.218 3.711-4.161 3.752-11.57.02-4.365-2.017-7.47-3.005-8.81-1.311-1.787-4.558-3.533-7.342-3.695-2.783-.163-7.058.101-7.159.101 0 0-.303 7.958-.323 12.728-.02 4.77.262 14.27.262 14.27zM155.224.8l-1.271 7.937h2.622L155.224.8zm-7.79.713l2.339 7.632 2.622-.284-4.961-7.348zm15.512 0l-2.34 7.632-2.622-.284 4.962-7.348zm-7.727 10.369c.612 0 1.109-.491 1.109-1.096 0-.606-.497-1.097-1.109-1.097-.613 0-1.11.491-1.11 1.097 0 .605.497 1.096 1.11 1.096zm3.494.321c.612 0 1.109-.49 1.109-1.096 0-.605-.497-1.096-1.109-1.096-.613 0-1.109.49-1.109 1.096 0 .605.496 1.096 1.109 1.096zm-7.02 0c.613 0 1.109-.49 1.109-1.096 0-.605-.496-1.096-1.109-1.096-.612 0-1.109.49-1.109 1.096 0 .605.497 1.096 1.109 1.096zm-.627 1.018l.424 1.502s3.892-.466 7.26.082l.565-1.584c-.02 0-4.538-.73-8.249 0zm-13.47 19.149c0-4.385 1.795-9.277 4.921-11.875 3.065-2.558 6.514-4.446 12.645-4.446 6.131 0 10.468 2.09 12.989 4.445 3.407 3.167 4.578 7.065 4.578 11.774 0 4.08-1.171 6.659-2.199 8.79-.665 1.38-4.295 8.14-15.388 8.14-11.072 0-14.662-6.333-15.651-7.998-1.21-2.152-1.895-4.466-1.895-8.83zm6.474 0c0 2.598.403 4.912.988 6.719.585 1.807 3.086 7.694 10.124 7.694 7.039 0 9.035-5.319 9.64-6.598 1.07-2.334 1.514-4.892 1.514-7.775 0-3.633-.284-4.892-1.492-7.714-1.432-3.37-4.358-6.272-9.662-6.272-5.304 0-7.482 2.862-9.459 6.293-1.29 2.212-1.653 5.339-1.653 7.653zm37.289-15.998h13.432c5.749 0 8.613 3.837 8.613 7.694 0 3.41-1.492 5.176-3.63 6.8-1.635 1.238-4.317 1.847-4.559 1.868 0 0 3.308 4.973 5.425 7.896 2.118 2.923 6.272 8.262 6.272 8.262h-7.986s-2.964-4.628-4.981-7.632c-2.018-3.005-5.446-7.877-5.446-7.877h-1.029l.161 15.51h-6.412s.202-8.141.202-14.373c0-6.232-.062-18.148-.062-18.148zm10.327 14.88c3.992-.528 5.424-3.674 5.424-6.09s-.482-4.67-2.722-5.867c-2.239-1.177-6.957-.406-6.957-.406l.019 12.22c.041.061 2.139.407 4.236.143zm33.16-14.88h2.986s4.839 12.16 7.158 17.62c2.321 5.46 6.677 14.9 6.677 14.9h-7.14l-1.996-5.115-1.958-4.994-11.696-.02s-1.473 3.41-2.199 5.42c-.726 2.01-1.553 4.71-1.553 4.71h-4.377s4.418-9.867 6.979-15.49c4.558-10.088 7.119-17.03 7.119-17.03zm4.336 19.447l-4.397-11.368-4.78 11.389s3.247.142 4.821.142c2.177-.02 4.356-.163 4.356-.163z" fill="currentColor"/></svg><svg fill="none" viewBox="0 0 120 120" id="scroll-right" xmlns="http://www.w3.org/2000/svg"><g clip-path="url(#ha)" fill="#C6964D"><path d="M113.3 67.871c.122-.878.521-1.568 1.195-2.07.682-.502 1.45-.693 2.305-.574l.022.003a3.08 3.08 0 012.072 1.184c.524.678.726 1.456.603 2.334-.134.96-.586 1.704-1.355 2.232l-.793-.972c.561-.403.88-.882.957-1.438a1.597 1.597 0 00-.38-1.304c-.322-.374-.746-.597-1.271-.67l-.023-.004c-.54-.075-1.016.026-1.43.305-.415.287-.658.689-.73 1.206-.077.548.099 1.097.527 1.646l-.925.709a3.673 3.673 0 01-.684-1.174c-.136-.402-.165-.873-.09-1.413zm-.413 3.506l5.789 1.57-.357 1.316-2.773-.752 2.09 3.275-.422 1.558-1.825-2.909-4.014 1.526.425-1.569 2.865-1.107-.742-1.214-1.393-.377.357-1.317zm-3.613 6.21l7.175 3.1-.545 1.262-.918-.396c.479.784.554 1.555.227 2.313-.3.696-.821 1.185-1.561 1.468-.734.285-1.542.237-2.425-.144-.869-.376-1.455-.93-1.757-1.663-.295-.73-.293-1.443.007-2.139.327-.758.919-1.24 1.776-1.448l-2.524-1.09.545-1.263zm1.424 3.982a1.58 1.58 0 00.009 1.328c.194.448.559.787 1.095 1.018.521.225 1.011.256 1.47.09a1.6 1.6 0 00.972-.904c.189-.438.186-.89-.01-1.353-.198-.458-.558-.799-1.08-1.024-.514-.222-1.006-.25-1.475-.08a1.674 1.674 0 00-.981.925zm-4.688 6.483c.474-.776 1.127-1.265 1.96-1.466.833-.201 1.621-.075 2.364.38a3 3 0 011.411 1.94c.204.844.069 1.654-.405 2.43-.474.775-1.127 1.264-1.96 1.465-.837.208-1.63.083-2.379-.375a3.021 3.021 0 01-1.411-1.94c-.197-.84-.057-1.652.42-2.434zm1.006.641c-.284.466-.354.938-.211 1.416s.447.859.912 1.143c.459.28.937.369 1.436.265.504-.1.895-.376 1.171-.829.28-.459.349-.928.206-1.406-.143-.477-.447-.859-.912-1.143a1.943 1.943 0 00-1.436-.265c-.505.1-.893.373-1.166.82zm-3.298 3.061c.139-.17.329-.362.571-.575l.807.79a1.64 1.64 0 00-.286.28.922.922 0 00-.191.342c-.032.111-.011.265.063.463.075.207.226.442.452.705.225.262.564.602 1.016 1.019.457.421 1.033.915 1.725 1.48l-2.862 3.515-4.65-3.79.868-1.066 3.734 3.043 1.184-1.453a19.675 19.675 0 01-1.627-1.458c-.42-.43-.73-.8-.928-1.109-.203-.302-.319-.592-.347-.869a1.426 1.426 0 01.075-.686c.077-.191.209-.401.396-.63zm-4.598 5.509c.16-.15.374-.316.642-.496l.697.889a1.617 1.617 0 00-.32.24.925.925 0 00-.234.314c-.046.106-.045.262.002.467.047.216.166.468.356.758.19.29.481.67.875 1.143.398.478.904 1.042 1.517 1.692l-3.296 3.112-4.116-4.365 1-.943 3.305 3.505 1.363-1.287a19.655 19.655 0 01-1.422-1.658c-.361-.482-.62-.889-.776-1.22-.162-.326-.24-.629-.231-.907a1.43 1.43 0 01.164-.67c.102-.18.26-.371.475-.574zm-7.449 6.595l3.257 5.039-2.585 1.673c-.502.325-.977.469-1.424.434-.45-.025-.8-.232-1.05-.62-.341-.528-.32-1.088.064-1.68-.82.252-1.438.056-1.853-.587-.276-.426-.323-.869-.142-1.329.174-.456.547-.869 1.12-1.239l2.613-1.691zm-.543 1.651l-1.306.845c-.274.177-.447.37-.519.579a.692.692 0 00.08.626.61.61 0 00.528.294c.222.009.483-.083.782-.276l1.25-.808-.815-1.26zm1.32 2.042l-1.182.765c-.236.153-.383.329-.443.53a.67.67 0 00.09.578c.11.172.26.27.446.293.191.03.41-.035.658-.195l1.202-.778-.77-1.193zm-6.883.131l2.561 5.426-4.838 2.286-2.56-5.426 1.242-.588 2.056 4.358 2.353-1.111-2.057-4.358 1.243-.587zm-7.066 1.255l2.3 7.473-1.314.404-.294-.955c-.286.873-.823 1.431-1.612 1.674-.724.223-1.434.144-2.13-.236-.692-.373-1.18-1.02-1.464-1.939-.278-.906-.237-1.711.124-2.417.364-.699.907-1.159 1.631-1.382.789-.243 1.54-.106 2.254.411l-.809-2.629 1.314-.404zm-2.104 3.668a1.583 1.583 0 00-1.004.869c-.214.438-.235.936-.064 1.494.168.543.463.936.886 1.178a1.6 1.6 0 001.319.152c.456-.14.797-.435 1.023-.885.218-.448.244-.944.077-1.487-.165-.536-.464-.927-.897-1.175a1.68 1.68 0 00-1.34-.146zm-10.135 1.093l1.346-.209.114.73c.39-.644.986-1.028 1.787-1.152.591-.092 1.117-.009 1.579.249.455.267.728.692.819 1.276.098.637-.047 1.154-.438 1.552-.39.398-.945.653-1.663.764a5.425 5.425 0 01-1.677.008l.017.112c.064.412.24.706.528.884.28.179.657.232 1.128.158.54-.083 1.085-.295 1.638-.634l.54 1.032a5.515 5.515 0 01-2.18.845c-.86.134-1.542.017-2.043-.35-.51-.366-.826-.949-.95-1.75l-.545-3.515zm1.646 1.941l.052.337c.428.094.893.102 1.395.025.426-.067.747-.201.96-.403a.806.806 0 00.252-.752.757.757 0 00-.425-.589c-.242-.124-.527-.16-.856-.109-.457.071-.813.245-1.069.523a1.099 1.099 0 00-.31.968zm-3.81-1.711l.139 6-3.078.071c-.598.014-1.078-.111-1.44-.376-.37-.257-.56-.616-.57-1.078-.015-.629.296-1.094.933-1.397-.83-.216-1.255-.706-1.272-1.471-.012-.508.18-.91.574-1.207.387-.297.921-.454 1.602-.469l3.112-.073zm-1.326 1.123l-1.556.036c-.325.007-.574.081-.745.221a.692.692 0 00-.26.575.61.61 0 00.297.527c.185.125.455.183.81.175l1.489-.035-.035-1.499zm.056 2.431l-1.408.033c-.28.006-.498.079-.654.219a.67.67 0 00-.226.54c.005.205.08.366.227.484.147.125.368.184.663.177l1.431-.033-.033-1.42zm-8.965-3.962c.903.101 1.622.487 2.157 1.157.534.67.753 1.438.655 2.304-.097.866-.484 1.566-1.161 2.1-.678.541-1.468.761-2.372.66-.903-.102-1.621-.488-2.156-1.158-.542-.67-.764-1.442-.666-2.316a3.024 3.024 0 011.162-2.1c.677-.533 1.47-.749 2.381-.647zm-.155 1.183c-.542-.061-1 .075-1.372.407-.373.331-.59.768-.65 1.311-.06.534.062 1.005.367 1.413.304.415.72.653 1.246.712.535.06.988-.076 1.36-.408.373-.331.59-.768.65-1.311a1.943 1.943 0 00-.367-1.413 1.705 1.705 0 00-1.234-.711zm-10.213-.439l-.48 1.481-1.438-.466.48-1.481 1.438.466zm-9.9-7.333c.774.431 1.274 1.052 1.5 1.863.221.817.122 1.602-.298 2.357l-.01.02a3.08 3.08 0 01-1.852 1.506c-.821.245-1.619.152-2.393-.279-.847-.472-1.378-1.162-1.592-2.07l1.192-.39c.174.669.506 1.14.995 1.413.43.239.881.278 1.353.115.465-.166.826-.48 1.084-.944l.011-.02c.265-.476.342-.958.232-1.444a1.685 1.685 0 00-.861-1.117c-.483-.269-1.058-.303-1.725-.102l-.327-1.118a3.69 3.69 0 011.342-.216c.423.019.873.161 1.35.426zm-3.093-1.638l-3.546 4.84-1.1-.806 1.7-2.319-3.807.773-1.3-.954 3.368-.657.021-4.297 1.31.961.002 3.073 1.4-.256.852-1.164 1.1.806zm-4.488-5.605l-5.466 5.589-.983-.962.7-.715c-.904.166-1.65-.041-2.24-.618-.542-.53-.811-1.192-.81-1.985-.002-.787.332-1.525 1.005-2.213.662-.677 1.39-1.025 2.181-1.044.787-.014 1.452.244 1.993.774.59.578.828 1.303.715 2.178l1.922-1.966.983.962zm-4.227-.099a1.58 1.58 0 00-1.242-.468c-.487.021-.934.24-1.342.657-.398.407-.601.853-.612 1.341a1.6 1.6 0 00.495 1.232c.341.334.763.493 1.267.477.497-.022.945-.236 1.342-.642.392-.4.593-.85.604-1.348 0-.499-.17-.915-.512-1.249zm-4.36-6.68c.556.72.78 1.504.67 2.354-.108.85-.507 1.542-1.196 2.075-.689.533-1.46.742-2.315.627-.86-.11-1.569-.525-2.124-1.244-.556-.72-.78-1.504-.671-2.355.104-.856.504-1.553 1.199-2.09a3.018 3.018 0 012.315-.627c.854.114 1.562.534 2.122 1.26zm-.957.712c-.334-.432-.75-.666-1.246-.703-.498-.037-.962.112-1.394.446-.425.329-.678.745-.758 1.247-.087.508.032.971.356 1.39.329.426.742.658 1.24.694.497.037.961-.111 1.392-.445.42-.324.673-.74.76-1.248a1.703 1.703 0 00-.35-1.381zm-1.677-4.163c.11.19.22.436.334.739l-1.026.472a1.646 1.646 0 00-.159-.367.931.931 0 00-.252-.3c-.092-.07-.243-.105-.454-.106-.22-.004-.494.053-.82.17-.325.118-.763.313-1.313.587-.557.277-1.223.639-1.997 1.085l-2.262-3.93 5.197-2.994.686 1.191-4.173 2.405.935 1.625c.742-.427 1.389-.76 1.94-1 .553-.24 1.009-.397 1.367-.473.355-.082.667-.087.936-.014.258.07.463.174.614.315.15.14.3.339.447.595zm-3.509-6.266c.083.203.16.462.232.777l-1.08.332a1.642 1.642 0 00-.108-.385.93.93 0 00-.21-.332c-.082-.081-.227-.136-.435-.165-.219-.034-.497-.014-.835.06-.339.073-.799.208-1.38.406-.59.2-1.298.47-2.124.81l-1.719-4.197 5.55-2.275.52 1.272-4.456 1.828.711 1.735a19.686 19.686 0 012.057-.733c.58-.164 1.052-.26 1.417-.287.363-.034.672.003.93.11.246.104.435.236.566.395.13.16.252.376.364.65zM7.797 73.87l-5.874 1.214-.623-3.016c-.12-.586-.084-1.081.111-1.485.186-.41.505-.662.958-.755.615-.127 1.13.095 1.541.668.063-.857.469-1.362 1.218-1.517.497-.103.927.013 1.29.348.361.328.611.826.749 1.493l.63 3.05zm-1.342-1.104l-.315-1.524c-.065-.32-.183-.55-.351-.694a.69.69 0 00-.612-.152.611.611 0 00-.465.387c-.09.204-.098.48-.026.829l.301 1.458 1.468-.303zm-2.38.493l-.285-1.38c-.057-.275-.168-.477-.334-.605a.67.67 0 00-.57-.125.606.606 0 00-.436.31c-.097.167-.115.395-.055.685l.29 1.402 1.39-.287zm2.374-6.319l-5.982.44-.392-5.338 5.982-.44.1 1.372-4.803.353.19 2.595 4.804-.353.1 1.372zm1.347-7.19L0 59.208l.095-1.372.998.07C.38 57.323.055 56.621.112 55.797c.052-.756.381-1.39.986-1.903.597-.512 1.376-.736 2.335-.669.945.066 1.68.395 2.21.986.52.59.754 1.264.701 2.02-.057.823-.455 1.475-1.195 1.956l2.743.19-.096 1.372zm-2.664-3.284c.034-.484-.115-.9-.448-1.25-.332-.357-.789-.556-1.37-.597-.567-.04-1.04.095-1.417.403-.379.308-.584.7-.617 1.176-.034.476.12.9.458 1.274.339.365.791.567 1.358.607.559.039 1.032-.1 1.418-.414.38-.323.585-.723.618-1.199zm2.593-9.849l-.286 1.333-.722-.155c.46.595.606 1.289.436 2.082-.125.585-.391 1.047-.797 1.386-.411.33-.906.433-1.483.31-.63-.136-1.06-.457-1.293-.964-.232-.507-.271-1.116-.119-1.827a5.43 5.43 0 01.592-1.57l-.11-.024c-.408-.088-.746-.028-1.015.177-.267.199-.45.531-.55.998-.115.533-.113 1.119.006 1.757l-1.156.135a5.526 5.526 0 01-.01-2.338c.183-.852.535-1.447 1.057-1.785.523-.344 1.181-.432 1.973-.262l3.477.747zm-2.4.844l-.334-.071a3.77 3.77 0 00-.521 1.294c-.091.423-.08.77.032 1.042s.316.44.612.503c.267.057.5-.005.702-.186.202-.182.338-.435.408-.761.096-.452.061-.847-.106-1.185a1.099 1.099 0 00-.794-.636zm2.972-3.057l-5.64-2.045 1.05-2.895c.204-.563.494-.965.872-1.207.373-.252.777-.299 1.21-.141.592.214.913.673.964 1.377.502-.697 1.113-.915 1.832-.654.477.173.782.497.916.973.136.469.088 1.023-.144 1.664l-1.06 2.928zm-.565-1.643l.53-1.464c.111-.306.132-.565.063-.775a.69.69 0 00-.44-.45.61.61 0 00-.6.085c-.182.127-.334.358-.456.693l-.507 1.4 1.41.51zm-2.285-.829l.48-1.325c.095-.263.106-.493.032-.69a.67.67 0 00-.42-.406.606.606 0 00-.534.037c-.17.091-.305.276-.406.554l-.487 1.346 1.335.484zm6.826-6.734c-.42.806-1.04 1.337-1.858 1.593-.817.256-1.612.182-2.384-.222a2.997 2.997 0 01-1.536-1.843c-.26-.828-.178-1.645.243-2.45.421-.806 1.04-1.337 1.858-1.593.821-.263 1.62-.19 2.4.216a3.02 3.02 0 011.536 1.843c.252.825.166 1.644-.259 2.456zm-1.046-.573c.253-.484.292-.959.117-1.426-.174-.468-.503-.828-.986-1.081-.476-.25-.96-.306-1.45-.169a1.714 1.714 0 00-1.114.905c-.249.477-.286.949-.112 1.416.174.468.503.828.986 1.08.47.246.953.303 1.45.17a1.702 1.702 0 001.109-.895zm3.962-9.262l-1.21-.98.95-1.174 1.21.979-.95 1.175zm10.499-6.79c-.679.57-1.437.815-2.274.736-.842-.084-1.54-.457-2.095-1.119l-.015-.017a3.081 3.081 0 01-.745-2.268c.064-.855.436-1.567 1.114-2.137.743-.623 1.576-.873 2.5-.75l-.06 1.254c-.687-.076-1.245.066-1.674.426a1.599 1.599 0 00-.591 1.223c-.011.494.154.944.495 1.35l.014.018c.35.418.773.662 1.267.732.5.065.95-.07 1.35-.407.423-.355.66-.88.71-1.575l1.16.093a3.687 3.687 0 01-.277 1.331c-.168.39-.461.759-.88 1.11zm2.592-2.294l-3.256-5.04 1.145-.74 1.56 2.414.634-3.834 1.354-.876-.586 3.384 4.005 1.55-1.364.883-2.87-1.093-.26 1.399.784 1.212-1.145.74zm6.66-2.129l-3.283-7.094 1.247-.578.42.907c.166-.903.623-1.529 1.373-1.876.687-.318 1.4-.336 2.14-.052.738.276 1.308.85 1.713 1.724.398.86.465 1.663.202 2.411-.266.741-.743 1.271-1.43 1.59-.75.346-1.512.312-2.29-.105l1.156 2.496-1.247.578zm1.592-3.918a1.58 1.58 0 00.879-.995c.152-.464.106-.96-.139-1.49-.238-.515-.584-.864-1.036-1.047a1.602 1.602 0 00-1.327.026c-.433.2-.73.539-.894 1.016-.157.473-.116.967.123 1.483.236.509.584.856 1.046 1.043.466.177.915.165 1.348-.036zm7.808-1.73c-.87.261-1.683.188-2.437-.218-.754-.407-1.256-1.028-1.506-1.862a2.999 2.999 0 01.245-2.387c.412-.764 1.053-1.277 1.923-1.538.87-.261 1.683-.188 2.437.218.762.405 1.269 1.028 1.52 1.87a3.023 3.023 0 01-.245 2.387c-.413.757-1.06 1.267-1.937 1.53zm-.32-1.15c.522-.156.89-.46 1.102-.911.213-.452.24-.939.084-1.461-.154-.516-.451-.901-.892-1.157a1.713 1.713 0 00-1.425-.165c-.515.154-.879.457-1.091.908-.213.452-.241.938-.085 1.461.152.508.45.894.892 1.156a1.7 1.7 0 001.415.17zm4.749-.147a5.039 5.039 0 01-.81.045l-.07-1.128c.124.012.257.006.399-.016a.928.928 0 00.371-.127c.098-.06.185-.19.262-.385.083-.205.129-.48.136-.827.008-.346-.017-.825-.073-1.437a38.399 38.399 0 00-.293-2.255L53.17.379l.92 5.93-1.358.21-.739-4.76-1.852.287c.131.846.21 1.57.233 2.172.025.602.008 1.084-.051 1.445-.051.361-.16.654-.324.879a1.43 1.43 0 01-.515.46c-.185.09-.423.157-.715.203zm6.934-1.013a5.039 5.039 0 01-.808-.06l.076-1.128c.122.028.255.04.399.037a.929.929 0 00.384-.078c.105-.047.209-.164.31-.348.11-.192.19-.459.243-.801.053-.342.091-.82.115-1.435.023-.622.025-1.38.004-2.274L60.957 0l.139 6-1.374.031-.112-4.817-1.873.043c.02.856.002 1.584-.052 2.184-.055.6-.134 1.075-.24 1.426-.098.351-.243.628-.435.829a1.429 1.429 0 01-.57.388 2.497 2.497 0 01-.737.108zm10.072.06l.966-5.923 3.038.496c.59.096 1.04.308 1.347.634.316.32.437.709.362 1.165-.101.62-.492 1.021-1.174 1.202.777.364 1.104.924.98 1.68-.081.5-.343.86-.786 1.08-.434.221-.988.277-1.661.167l-3.072-.501zm1.51-.86l1.536.251c.321.053.579.026.773-.081a.69.69 0 00.36-.517.612.612 0 00-.194-.573c-.159-.156-.414-.263-.765-.32l-1.469-.24-.241 1.48zm.391-2.4l1.39.227c.277.045.505.013.683-.096a.67.67 0 00.322-.489.606.606 0 00-.135-.517c-.12-.15-.327-.249-.619-.297l-1.412-.23-.229 1.402zm5.102 4.464l1.743-5.741 5.12 1.556-1.744 5.741-1.315-.4 1.4-4.61-2.49-.757-1.4 4.611-1.314-.4zm6.079 3.766l3.31-7.083 1.245.582-.423.906c.798-.455 1.57-.507 2.318-.157.686.32 1.16.856 1.42 1.605.263.742.19 1.549-.217 2.42-.4.858-.972 1.428-1.713 1.708-.738.274-1.45.25-2.136-.071-.748-.35-1.213-.956-1.395-1.82l-1.164 2.492-1.245-.582zm4.02-1.306a1.58 1.58 0 001.328.031c.453-.18.802-.536 1.05-1.064.24-.515.285-1.004.134-1.468a1.603 1.603 0 00-.875-1c-.432-.201-.883-.212-1.353-.03-.462.185-.814.535-1.055 1.05-.237.508-.278.999-.123 1.473.164.47.463.806.895 1.008zm8.456 6.073l-1.139-.75.406-.617c-.721.216-1.42.1-2.098-.345-.5-.329-.834-.743-1.004-1.245-.158-.503-.076-1.001.249-1.495.353-.539.808-.824 1.365-.857.556-.034 1.138.15 1.745.549.488.32.904.694 1.25 1.12l.062-.095c.228-.348.295-.685.2-1.01-.088-.32-.331-.612-.73-.874-.455-.3-1.002-.51-1.639-.63l.292-1.127c.803.13 1.53.408 2.182.837.728.478 1.155 1.022 1.28 1.63.133.613-.023 1.258-.468 1.936l-1.953 2.973zm.081-2.545l.187-.285a3.766 3.766 0 00-1.017-.954c-.361-.237-.689-.353-.983-.347a.805.805 0 00-.69.39.759.759 0 00-.08.722c.096.254.283.472.562.655.386.254.767.364 1.142.33a1.1 1.1 0 00.88-.51zm1.582 3.719l3.922-4.54 2.33 2.014c.452.391.724.807.815 1.246.101.438.001.832-.3 1.182-.412.476-.955.612-1.63.409.47.718.456 1.366-.044 1.945-.332.384-.743.554-1.235.509-.486-.04-.987-.283-1.503-.729l-2.355-2.036zm1.736.059l1.177 1.018c.247.213.48.325.701.336a.689.689 0 00.578-.252.612.612 0 00.134-.59c-.053-.216-.214-.44-.484-.674l-1.125-.973-.981 1.135zm1.59-1.84l1.065.921c.212.184.423.276.632.277a.67.67 0 00.53-.248.606.606 0 00.156-.511c-.025-.192-.149-.384-.372-.578l-1.083-.936-.928 1.075zm3.997 8.918c-.602-.68-.876-1.449-.823-2.305.053-.855.405-1.571 1.058-2.148.653-.577 1.409-.836 2.269-.778.866.054 1.6.421 2.201 1.103.602.681.876 1.45.824 2.305-.048.861-.401 1.583-1.06 2.165a3.018 3.018 0 01-2.269.777c-.86-.058-1.594-.431-2.2-1.118zm.909-.772c.361.409.791.615 1.289.62.499.003.953-.175 1.361-.537.403-.356.628-.787.676-1.294a1.716 1.716 0 00-.447-1.365c-.356-.403-.783-.606-1.282-.61-.499-.005-.952.174-1.361.535a1.95 1.95 0 00-.676 1.295c-.053.512.094.964.44 1.356zm7.239 7.016l1.345-.782.759 1.307-1.346.782-.758-1.307zm2.553 12.153c-.29-.838-.248-1.634.124-2.388.38-.756.978-1.276 1.794-1.558l.021-.007a3.077 3.077 0 012.383.114c.776.365 1.308.967 1.597 1.805.317.916.252 1.785-.194 2.604l-1.148-.505c.317-.614.383-1.187.2-1.717a1.597 1.597 0 00-.93-.989c-.457-.186-.936-.193-1.437-.02l-.022.008c-.515.178-.894.485-1.136.921-.239.444-.273.913-.103 1.407.181.523.586.931 1.217 1.226l-.502 1.052a3.68 3.68 0 01-1.143-.735c-.303-.297-.543-.702-.721-1.218zm1.212 3.246l5.869-1.236.281 1.334-2.812.593 3.351 1.965.332 1.58-2.947-1.76-2.882 3.185-.335-1.59 2.049-2.29-1.213-.743-1.412.297-.281-1.335zm-.385 7.205l7.799-.513.09 1.373-.998.065c.783.48 1.202 1.132 1.256 1.956.049.756-.191 1.429-.722 2.018-.523.589-1.264.915-2.224.978-.944.062-1.718-.164-2.321-.68-.595-.514-.918-1.15-.968-1.906-.054-.824.253-1.524.921-2.1l-2.743.181-.09-1.372zm3.082 2.895c.032.484.236.877.612 1.179.377.309.857.445 1.438.406.567-.037 1.017-.233 1.351-.59.333-.355.484-.772.453-1.248-.032-.476-.24-.876-.626-1.2-.385-.317-.861-.456-1.427-.42-.559.038-1.009.238-1.35.602a1.678 1.678 0 00-.451 1.271zM62.281 46L76 60 62.281 74h-4.077l12.198-12.448H44v-3.104h26.402L58.204 46h4.077z"/></g><defs><clipPath id="ha"><path fill="#fff" d="M0 0h120v120H0z"/></clipPath></defs></svg><svg fill="none" viewBox="0 0 202 50" id="vaillant" xmlns="http://www.w3.org/2000/svg"><path fill-rule="evenodd" clip-rule="evenodd" d="M45.403.876A3.68 3.68 0 0146.116.8c1.494 0 2.871 1.05 3.228 2.59l5.338 22.674a313.2 313.2 0 011.638 7.481c.53-2.417 1.194-5.38 1.686-7.49l5.347-22.656c.366-1.539 1.734-2.59 3.238-2.59.24 0 .472.02.713.077l1.59.363a3.224 3.224 0 012.013 1.424c.337.525.52 1.146.52 1.777l-.086.774-.877 3.717c-7.564 32.143-8.411 35.717-8.421 35.746-.559 2.045-2.64 4.3-4.808 4.3h-1.763c-2.12 0-4.297-2.303-4.827-4.377L41.356 5.224a3.676 3.676 0 01-.086-.784c0-.63.173-1.242.52-1.777a3.249 3.249 0 012.014-1.424l1.6-.363zM190.804.811h-1.609c-1.793 0-3.247 1.49-3.247 3.325v41.518c0 1.805 1.493 3.334 3.276 3.334h3.893c.509 0 .924-.41.924-.927V21.498h6.591c.51 0 .924-.41.924-.927v-3.554c0-1.978-1.666-3.039-3.236-3.039h-4.269V4.136c0-1.834-1.456-3.325-3.247-3.325zm-91.022 0h1.61c1.782 0 3.237 1.49 3.247 3.325V7.52c0 1.834-1.455 3.325-3.247 3.325h-1.61c-1.792 0-3.246-1.49-3.246-3.325V4.136c0-1.834 1.464-3.325 3.246-3.325zm0 13.168h1.609c1.783 0 3.238 1.49 3.247 3.335v28.35c0 1.835-1.454 3.335-3.247 3.335h-1.609c-1.792 0-3.246-1.5-3.246-3.335v-28.35c0-1.844 1.464-3.335 3.246-3.335zm73.708-.221h1.049c5.638 0 8.21 4.749 8.229 9.163v22.732c0 1.835-1.464 3.335-3.247 3.335h-1.609c-1.792 0-3.247-1.5-3.247-3.335V24.144c0-1.49-1.127-2.646-2.563-2.646h-3.844c-1.446 0-2.564 1.165-2.564 2.646v21.49c0 1.835-1.455 3.335-3.246 3.335h-1.609c-1.792 0-3.247-1.5-3.247-3.335v-28.56c0-1.204.81-3.116 2.968-3.116h2.148c.289 0 .559.134.733.364l.915 1.175.448.575.003.004.271.348c.212.287.482.468.733.468.164 0 .442-.038 1.021-.45l.944-.63.645-.42c1.061-.698 2.737-1.634 5.069-1.634zm-33.541 27.71c-1.435 0-2.563-1.165-2.563-2.646v-2.38c0-1.48 1.128-2.637 2.563-2.637h3.845c1.435 0 2.563 1.157 2.563 2.638v2.379c0 1.49-1.128 2.647-2.563 2.647h-3.845zm14.51-18.623c0-5.551-3.517-8.867-9.403-8.867h-10.05c-1.84 0-3.179 1.1-3.179 2.609v3.984c0 .516.414.927.925.927h11.273a2.325 2.325 0 012.351 2.35v4.664c0 .382-.077.573-.096.62-.01.03-.107.068-.203.068-.289 0-.492-.124-.877-.42l-.559-.421-.847-.64c-.887-.707-2.38-1.653-4.876-1.653h-.983c-5.405 0-8.633 4.653-8.633 9.153v4.75c0 4.538 3.228 9.23 8.633 9.23h.983c1.918 0 3.469-.507 4.876-1.577l.847-.611.541-.392c.472-.344.799-.402 1.049-.411.511 0 1.002.602 1.745 1.586l.249.335.387.496c.172.23.442.363.731.363h2.148c2.158 0 2.968-1.91 2.968-3.114V22.845zM123.986.812h-1.609c-1.792 0-3.247 1.49-3.247 3.326v41.517c0 1.834 1.455 3.334 3.247 3.334h3.931c.511 0 .925-.41.925-.926V4.137c0-1.835-1.455-3.326-3.247-3.326zm-11.303.001h-1.609c-1.792 0-3.247 1.49-3.247 3.325v41.517c0 1.835 1.455 3.335 3.247 3.335h3.931a.923.923 0 00.925-.927V4.137c0-1.834-1.455-3.325-3.247-3.325zm-36.42 38.01c0 1.482 1.127 2.648 2.563 2.648h3.844c1.436 0 2.563-1.157 2.563-2.647v-2.38c0-1.48-1.127-2.637-2.563-2.637h-3.844c-1.436 0-2.563 1.157-2.563 2.638v2.379zm7.67-24.843c5.886 0 9.403 3.316 9.403 8.868v23.028c0 1.203-.81 3.115-2.968 3.115H88.22a.915.915 0 01-.732-.363l-.386-.497-.25-.335c-.742-.984-1.234-1.586-1.744-1.586-.25.01-.578.067-1.05.41l-.54.393-.848.611c-1.407 1.07-2.958 1.577-4.875 1.577h-.983c-5.405 0-8.633-4.692-8.633-9.23v-4.75c0-4.5 3.228-9.153 8.633-9.153h.983c2.495 0 3.989.946 4.875 1.653l.848.64.559.42c.385.297.588.42.877.42.096 0 .192-.037.202-.066.02-.048.096-.239.096-.621V23.85a2.324 2.324 0 00-2.35-2.35H71.627a.923.923 0 01-.924-.927v-3.985c0-1.51 1.339-2.609 3.18-2.609h10.048zM4.038.81h30.6c1.976 0 3.585 1.596 3.595 3.545v41.068c0 1.959-1.62 3.555-3.594 3.555H4.04c-1.986 0-3.595-1.596-3.595-3.555V4.354c0-1.95 1.61-3.545 3.594-3.545zm1.235 26.298C4.589 38.68 10.61 45.931 19.34 45.931c8.72 0 14.741-7.252 14.086-18.824-.212-3.66-1.147-7.109-2.592-10.023 1.098-1.51 2.524-3.813 3.536-6.154 1.31-3.038 1.667-6.058.771-6.918-1.147-1.118-2.62.278-3.517 1.147l-.09.088a24.678 24.678 0 00-1.981 2.12c-.723.86-1.657 2.063-2.997 3.926-2.13-1.901-4.605-3.019-7.207-3.019-2.601 0-5.077 1.108-7.207 3.02C10.794 9.43 9.87 8.226 9.147 7.365a24.693 24.693 0 00-1.982-2.12l-.09-.087c-.896-.87-2.37-2.265-3.517-1.147-.896.86-.54 3.88.771 6.918 1.012 2.351 2.438 4.644 3.536 6.154-1.445 2.914-2.38 6.364-2.591 10.023zm26.025-14.409c-.848 1.7-1.956 3.497-2.862 4.72-.259.352-.545.708-.808 1.036-.582.724-1.056 1.314-.897 1.44.298.238 1.493-.975 2.437-1.988.983-1.06 3.093-4.11 4.451-7.253 1.36-3.143 1.427-5.666.925-6.153-.578-.554-1.416.038-2.562 1.146l-.053.051c-1.2 1.172-2.233 2.18-5.7 7.068-1.523 2.148-2.853 4.631-3.152 5.189v.001l-.056.104c-.067.124-.154.22-.366.19-.117-.021-.256-.082-.435-.159-.518-.223-1.366-.588-2.947-.595-1.574.007-2.416.369-2.935.592-.183.079-.326.14-.447.163-.212.038-.308-.067-.366-.192-.014-.023-.046-.084-.096-.175-.364-.675-1.645-3.048-3.112-5.118-3.467-4.888-4.5-5.896-5.7-7.068l-.052-.05C5.429 4.537 4.58 3.945 4.012 4.5c-.51.487-.433 3.01.925 6.153 1.359 3.144 3.478 6.192 4.452 7.253.934 1.013 2.129 2.236 2.428 1.987.159-.125-.316-.715-.898-1.439-.263-.328-.55-.684-.808-1.036-.896-1.223-2.004-3.029-2.852-4.72-.848-1.7-1.532-3.373-1.724-4.1-.174-.63-.232-1.289.154-1.404.491-.153.954.535 1.503 1.825.387.91.666 1.579.89 2.117.473 1.137.704 1.691 1.2 2.69a45.885 45.885 0 002.001 3.614c.183.302.343.566.485.82.318.563.954 1.69.983 1.776.058.153-.058.277-.086.306l-.09.106c-.535.625-1.55 1.81-1.731 3.83-.147 1.617.34 3.002.664 3.928.082.235.154.44.203.612.24.86.192 1.662 0 2.197a7.416 7.416 0 00-.444 2.981l-4.634-.229c-.212-.01-.395.144-.405.344a.382.382 0 00.366.392l7.602.392c.14-.508.377-.834.57-1.1.086-.12.164-.227.22-.334.184-.353.27-.83.193-1.337-.106-.755-.491-1.567-.983-2.188-.52-.66-1.628-2.332-1.792-3.832-.183-1.634.203-3.297 1.262-3.459 1.012-.162 1.976.593 2.94 2.17a11.748 11.748 0 011.695 5.637c.083 1.861-.233 2.27-.472 2.58l-.03.038c-.279.353-.674.907-.596 1.433.074.47.395.699.69.91.125.089.246.175.34.275 1.214 1.3-.578 2.656-1.435 2.647-.964-.02-2.274-.497-2.611-1.902l-6.658.344a.377.377 0 00-.366.392c.01.2.193.363.405.354l4.75-.249c.937 1.387 2.26 1.996 3.042 2.355.198.092.361.167.474.235.058.045.142.135.25.253.51.551 1.579 1.707 3.19 1.715 1.618 0 2.68-1.159 3.189-1.713.11-.119.193-.21.25-.255.114-.069.279-.144.479-.236.784-.36 2.112-.968 3.048-2.354l4.75.248a.378.378 0 00.405-.353.383.383 0 00-.366-.392l-6.658-.344c-.337 1.405-1.648 1.883-2.611 1.902-.858.019-2.65-1.348-1.436-2.647.094-.102.216-.19.344-.283.293-.211.614-.443.687-.902.077-.526-.318-1.08-.597-1.433l-.027-.035c-.239-.31-.558-.724-.474-2.583.096-2.255.79-4.157 1.695-5.638.964-1.576 1.928-2.331 2.94-2.169 1.059.162 1.445 1.825 1.261 3.459-.163 1.5-1.262 3.172-1.792 3.832-.491.62-.867 1.423-.982 2.188-.087.506 0 .984.183 1.337.056.107.134.214.22.333.194.267.43.593.57 1.1l7.602-.391a.377.377 0 00.366-.392.365.365 0 00-.405-.344l-4.644.24a7.253 7.253 0 00-.443-2.982c-.193-.535-.231-1.338 0-2.198.048-.17.119-.374.2-.606.322-.926.806-2.313.667-3.933-.18-1.992-1.177-3.173-1.71-3.804v-.001l-.111-.131c-.029-.029-.144-.153-.087-.306.03-.086.665-1.213.983-1.777.142-.253.302-.517.485-.82a45.308 45.308 0 002-3.614c.498-.998.729-1.552 1.202-2.69.224-.537.503-1.207.89-2.116.549-1.29 1.011-1.978 1.503-1.825.385.115.318.774.154 1.404-.174.727-.858 2.39-1.705 4.09zM19.284 40.57c-.646 0-1.397-.267-1.879-.793a4.368 4.368 0 001.879-1.166 4.26 4.26 0 001.879 1.166c-.492.526-1.234.793-1.88.793zm-2.73-13.086a9.48 9.48 0 00-.46-1.257c-.682-1.517-1.601-1.348-1.925-1.288l-.04.007a1.436 1.436 0 00-.305.12c-.148.07-.268.129-.351.052-.25-.229.289-.764 1.05-.755 1.214.02 1.773 1.138 1.975 1.71.357 1.004.415 1.826.28 1.864-.078.024-.13-.143-.223-.453zm-.46 1.649c.308-.201.308-.67.116-1.319-.087-.315-.135-.478-.193-.564l-.164-.038c-.125.048-.559.182-.732-.143-.164-.316.183-.583.366-.65l.02-.134c-.3-.544-.993-.927-1.485-.592-.443.296-.491 1.567.058 2.331.771 1.09 1.667 1.338 2.014 1.109zm15.445 6.142l-7.101.019c.019.2.029.42.01.669v.057l7.081.02a.401.401 0 00.395-.392.39.39 0 00-.385-.373zm-9.076-6.143c.337.22 1.243-.019 2.033-1.108.549-.755.491-2.026.048-2.332-.501-.334-1.195.039-1.484.593l.02.134c.182.067.53.334.366.65-.174.324-.608.19-.733.143l-.164.038c-.057.086-.106.248-.192.564-.203.65-.203 1.127.106 1.318zm2.272-4.055a1.314 1.314 0 00-.316-.121l-.022-.005c-.298-.065-1.24-.27-1.943 1.285-.238.524-.37.957-.462 1.256-.093.307-.144.474-.222.455-.145-.039-.077-.85.28-1.864.201-.573.76-1.691 1.974-1.71.762-.01 1.301.525 1.05.755-.08.075-.196.018-.339-.051zM14.108 35.97c-.02-.248-.01-.468.01-.668l-7.092-.03a.402.402 0 00-.395.392c0 .21.183.392.395.392l7.082-.019v-.067z" fill="currentColor"/></svg><svg fill="none" viewBox="0 0 174 62" id="zolla" xmlns="http://www.w3.org/2000/svg"><path d="M63.673 18.408c-12.014 0-21.77 9.612-21.77 21.424s9.776 21.404 21.77 21.404c12.014 0 21.79-9.612 21.79-21.404-.02-11.812-9.776-21.424-21.79-21.424zm11.046 21.424c0 6.163-4.959 11.158-11.046 11.158-6.108 0-11.067-5.014-11.067-11.158 0-6.164 4.959-11.158 11.067-11.158 6.107-.02 11.046 4.994 11.046 11.158zM104.253.75H92.4v59.455h11.853V.75zm19.127 0h-11.853v59.455h11.853V.75zm47.961 29.96c-3.367-7.69-10.663-12.288-19.533-12.288-12.014 0-21.79 9.612-21.79 21.424 0 11.811 9.776 21.403 21.79 21.403 4.576 0 8.406-1.288 11.711-3.944l.081 2.894h9.877V45.315c0-4.796-.241-10.285-2.136-14.606zm-8.487 9.116c0 6.163-4.958 11.157-11.046 11.157-6.108 0-11.066-5.014-11.066-11.157 0-6.164 4.958-11.158 11.066-11.158 6.088 0 11.046 4.994 11.046 11.158zM40.615 19.932l-.141-.455H2.457v9.175h19.895L.522 59.886l.06.317h38.521v-9.612H19.208l21.407-30.659z" fill="currentColor"/></svg></svg>