<?xml version="1.0" encoding="utf-8"?><svg viewBox="0 0 242 82" xmlns="http://www.w3.org/2000/svg" xmlns:xlink="http://www.w3.org/1999/xlink"><style>:root>svg{display:none}:root>svg:target{display:block}</style><svg fill="none" viewBox="0 0 174 48" id="atol" xmlns="http://www.w3.org/2000/svg"><path fill-rule="evenodd" clip-rule="evenodd" d="M93.321 21.049c.016.047.032.094.032.157a13.405 13.405 0 002.013 5.024l-11.01 10.236c-5.787-9.294-4.403-21.729 3.901-29.453 9.31-8.666 23.717-8.164 32.461.942l-2.579 2.386a19.75 19.75 0 01-.291-.36 9.645 9.645 0 00-.715-.833c-5.222-5.652-13.966-5.966-19.628-.753A14.05 14.05 0 0093.1 19.699c.063.063.063.188.063.314.032.157.047.298.063.44.016.14.032.282.063.439 0 .063.016.11.031.157zM85.237 1.675c-19.879-2.01-32.523.628-38.877 2.637V17.94l.063.063c3.9-3.706 8.807-6.155 13.777-7.85v36.549h9.373V7.892c5.31-.955 10.109-1.256 13.294-1.457a93.588 93.588 0 002.496-.176l-.126-4.584zM33.34 25.853H15.725C19.561 12.037 27.173 6.888 33.338 5.13v20.724zM.563 46.703h12.77c0-6.218.504-11.556 1.322-16.077h18.684v16.076h9.436V1.236C-2.456 1.236.563 46.703.563 46.703zm130.6-44.714v-.753c45.231 0 42.275 45.467 42.275 45.467h-12.771c0-30.019-11.45-39.062-20.069-41.574v41.574h-9.435V1.989zm-18.244 19.719a14.147 14.147 0 012.013 5.087c0 .063.015.11.031.157a.458.458 0 01.031.157c.032.157.048.298.063.44.016.14.032.282.063.439 0 .125 0 .251.063.377a14.05 14.05 0 01-4.403 11.304c-5.662 5.212-14.406 4.898-19.628-.754-.377-.377-.692-.816-1.007-1.256l-2.579 2.386c8.745 9.106 23.151 9.609 32.461.942 8.304-7.724 9.688-20.158 3.901-29.453l-11.009 10.174z" fill="currentColor"/></svg><svg fill="none" viewBox="0 0 110 62" id="beko" xmlns="http://www.w3.org/2000/svg"><path d="M28.506 18.857c-.435-2.556-1.63-4.9-3.585-6.71-1.846-1.81-4.345-2.982-6.951-3.515-2.824-.533-5.866-.32-8.581.639V.75H.699v22.368c0 1.171.217 2.237.543 3.408.652 2.556 2.173 4.9 4.236 6.497 2.064 1.705 4.78 2.557 7.495 2.876 2.281.213 4.562 0 6.734-.639 2.39-.745 4.563-2.13 6.083-4.047 1.412-1.704 2.281-3.728 2.716-5.858.325-2.237.434-4.474 0-6.498zm-8.364 3.409c0 1.81-.326 3.728-1.303 5.325-.652 1.065-1.738 2.024-3.042 2.237-1.195.213-2.607.107-3.584-.639-1.086-.746-1.847-1.917-2.281-3.089-.543-1.704-.652-3.621-.543-5.432.217-1.704.651-3.409 1.629-4.687.76-.958 1.846-1.597 3.15-1.704 1.086-.106 2.172.107 3.041.64.978.638 1.63 1.597 2.064 2.662.652 1.385.869 3.089.869 4.687zM57.07.758h8.364v18.96c.109-.107.217-.214.326-.427 2.28-3.408 4.67-6.923 6.951-10.332h10.862c-3.476 4.154-7.06 8.202-10.536 12.356-.108.106-.108.213 0 .213 3.91 4.58 7.82 9.053 11.731 13.633H74.124c-.11 0-.218 0-.218-.106-2.824-4.047-5.648-8.095-8.472-12.036v12.142h-8.256c-.108-11.396-.108-22.9-.108-34.403zm-1.845 23.966c.544-3.302.326-6.71-.977-9.8-.543-1.384-1.412-2.556-2.498-3.62a9.5 9.5 0 00-4.02-2.344c-1.846-.533-3.692-.746-5.647-.533-2.282.213-4.563.852-6.409 2.13-2.064 1.385-3.584 3.41-4.562 5.54a15.899 15.899 0 00-1.303 6.284c0 2.236.434 4.366 1.303 6.39.652 1.385 1.63 2.77 2.933 3.728a10.262 10.262 0 003.801 2.13c1.956.746 4.02.96 5.975.96 3.367 0 6.843-.427 9.992-1.599-.326-1.81-.76-3.728-1.086-5.538-2.715.852-5.54 1.171-8.363 1.065-1.847-.107-3.694-.64-4.997-1.81-.977-.746-1.52-1.918-1.63-3.09 5.975.107 11.732.107 17.488.107zm-17.27-5.645c.109-1.598.76-3.09 2.064-4.154.869-.746 2.064-1.172 3.258-1.066 1.195 0 2.39.427 3.259 1.385.977 1.065 1.303 2.556 1.412 3.941-3.476-.106-6.734-.106-9.993-.106z" fill="currentColor"/><path d="M109.211 20.14c-.217-2.024-.869-4.048-1.955-5.752-1.412-2.343-3.693-4.154-6.409-5.113-2.172-.745-4.453-.958-6.734-.852-.869.107-1.847.213-2.716.426-2.39.533-4.67 1.704-6.408 3.409-1.955 1.917-3.15 4.367-3.584 7.03-.544 3.195-.326 6.603 1.086 9.48.977 1.916 2.498 3.727 4.344 4.899 1.956 1.278 4.237 1.917 6.518 2.13 2.28.213 4.453 0 6.625-.64 2.824-.851 5.431-2.662 6.952-5.218 2.064-2.876 2.607-6.497 2.281-9.8zm-8.581 3.621c-.217 1.491-.652 3.089-1.52 4.26-.652.96-1.739 1.598-2.825 1.811-1.086.213-2.172 0-3.041-.426-.978-.532-1.738-1.384-2.281-2.45-.543-1.171-.869-2.45-.978-3.834-.108-1.598 0-3.195.435-4.687.326-1.171.869-2.343 1.846-3.195.652-.64 1.63-1.065 2.607-1.172 1.086-.106 2.173.107 3.15.746.978.639 1.738 1.81 2.064 2.876.543 2.023.76 4.047.543 6.071zM25.464 49.64c26.83-3.728 53.658-7.35 80.595-11.078v8.309c-7.712 1.065-15.315 2.13-22.918 3.195C55.66 53.687 28.18 57.522.699 61.25v-8.202c8.255-1.171 16.51-2.343 24.765-3.408z" fill="currentColor"/></svg><svg fill="none" viewBox="0 0 146 82" id="chicco" xmlns="http://www.w3.org/2000/svg"><path fill-rule="evenodd" clip-rule="evenodd" d="M1.151 23.068v35.864c0 2.649.994 5.187 2.65 7.173.993 1.104 2.207 2.207 3.53 3.09 3.864 2.538 9.382 4.635 16.445 6.4 13.355 3.2 31.786 5.187 49.334 5.187 17.548 0 35.979-1.986 49.333-5.187 7.175-1.765 12.693-3.862 16.445-6.4 1.324-.883 2.539-1.876 3.532-3.09 1.656-1.986 2.538-4.524 2.538-7.173V23.068c0-2.428-.772-4.745-2.207-6.62-.993-1.325-2.429-2.65-3.973-3.642-3.864-2.538-9.381-4.635-16.445-6.4C108.979 3.094 90.548 1.218 73 1.218S37.02 3.205 23.666 6.405c-7.174 1.766-12.692 3.863-16.444 6.4-1.546.994-2.98 2.318-3.974 3.642-1.324 1.876-2.097 4.304-2.097 6.621zm5.85-10.814c3.863-2.538 9.38-4.635 16.555-6.4C36.91 2.653 55.452.666 73 .666c17.548 0 36.089 1.986 49.443 5.407 7.175 1.655 12.693 3.863 16.556 6.4a16.574 16.574 0 014.083 3.753c1.545 2.096 2.318 4.413 2.318 6.952v35.863c0 2.76-.993 5.408-2.76 7.505a14.606 14.606 0 01-3.641 3.2c-3.863 2.538-9.381 4.635-16.556 6.4-13.354 3.2-31.895 5.187-49.443 5.187s-36.09-1.987-49.444-5.187c-7.174-1.655-12.692-3.862-16.555-6.4a14.604 14.604 0 01-3.642-3.2C1.593 64.34.599 61.69.599 58.932V23.068c0-2.538.773-4.965 2.318-6.952.994-1.434 2.428-2.759 4.084-3.862zm62.8 5.075c0 4.304-3.532 7.945-7.947 7.945a7.913 7.913 0 01-7.947-7.945 7.913 7.913 0 017.947-7.945 7.913 7.913 0 017.946 7.945zm70.192.993a13.027 13.027 0 00-3.091-2.869c-3.531-2.317-8.719-4.304-15.34-5.849-13.244-3.2-31.234-5.076-48.561-5.076-17.328 0-35.317 1.876-48.561 5.076-6.622 1.656-11.92 3.642-15.341 5.849-1.435.883-2.428 1.876-3.09 2.87a7.554 7.554 0 00-1.545 4.634V58.82a7.8 7.8 0 001.876 5.076c.662.883 1.655 1.655 2.759 2.428 3.532 2.317 8.719 4.304 15.34 5.849 13.245 3.2 31.234 5.076 48.562 5.076 17.327 0 35.317-1.876 48.561-5.076 6.621-1.656 11.919-3.642 15.34-5.849 1.215-.773 2.098-1.656 2.76-2.428 1.104-1.324 1.876-3.09 1.876-5.076V22.957a7.79 7.79 0 00-1.545-4.635zm-8.277 15.229c.552 1.434.994 5.959.994 11.366s-.442 9.931-.994 11.366a7.44 7.44 0 01-.221.552l-.094.221a5.235 5.235 0 00-.126.33c-1.987 1.435-5.298 1.987-8.719 1.987-3.311 0-6.732-.552-8.719-1.986a2.518 2.518 0 01-.256-.496 4.99 4.99 0 01-.186-.608c-.441-1.435-.882-5.959-.993-11.366 0-5.407.442-9.932.993-11.366.056-.166.138-.359.221-.552l.002-.004c.082-.192.164-.383.219-.548 1.987-1.434 5.298-1.986 8.719-1.986 3.311 0 6.732.552 8.719 1.986.22.331.331.662.441 1.104zm-10.595 1.655v19.532c0 .773.662 1.324 1.435 1.324.772 0 1.435-.551 1.435-1.324V35.206c0-.772-.663-1.324-1.435-1.324-.773 0-1.435.552-1.435 1.324zm-77.366-2.428V18.654c-2.76-.442-5.629-.442-8.608 0v37.85c2.869.442 5.187.442 8.608 0V38.406c0-1.103 1.104-1.544 1.655-1.544.552 0 1.546.44 1.546 1.544v23.505c2.98.442 5.407.442 8.167 0V42.158c0-3.09-.11-5.296-.331-6.4-.221-1.214-.883-2.207-1.987-3.09s-2.318-1.324-3.863-1.324c-.993 0-3.31.33-5.187 1.434zM32.938 47.787c-.11 4.194-.22 7.394-.662 8.608a7.542 7.542 0 01-.221.551l-.107.252a4.79 4.79 0 00-.114.3c-1.986 1.435-5.297 1.986-8.719 1.986-3.31 0-6.732-.551-8.718-1.986-.221-.33-.332-.662-.442-1.103-.441-1.435-.883-5.849-.993-11.367 0-5.407.441-9.931.993-11.366a7.61 7.61 0 01.22-.551 7.72 7.72 0 00.221-.552c1.987-1.435 5.298-1.986 8.72-1.986 3.31 0 6.732.551 8.718 1.986.22.33.331.662.442 1.103.441 1.214.552 4.304.662 8.608H24.55v-6.953c0-.772-.662-1.324-1.435-1.324-.772 0-1.434.552-1.434 1.325V54.74c0 .772.662 1.324 1.434 1.324.773 0 1.435-.552 1.435-1.325v-6.952h8.388zm47.125 2.76h8.385c-.11 4.138-.222 7.293-.66 8.496a7.622 7.622 0 01-.22.552 7.596 7.596 0 00-.22.552c-1.987 1.434-5.298 1.986-8.72 1.986-3.31 0-6.622-.552-8.719-1.986a2.73 2.73 0 01-.335-.72 6.526 6.526 0 01-.106-.384c-.442-1.435-.883-5.959-.993-11.366 0-5.407.441-9.931.993-11.366.034-.102.078-.215.127-.33l.094-.222c.082-.193.165-.386.22-.552 1.987-1.434 5.298-1.986 8.72-1.986 3.31 0 6.621.552 8.718 1.986.221.331.331.662.442 1.104.441 1.214.552 4.303.662 8.607h-8.388v-6.952c0-.772-.662-1.324-1.435-1.324-.772 0-1.434.552-1.434 1.324v19.532c0 .773.662 1.325 1.434 1.325.773 0 1.435-.552 1.435-1.325v-6.952zm30.352-5.408h-8.388v6.952c0 .772-.662 1.324-1.435 1.324-.772 0-1.435-.552-1.435-1.324V32.557c0-.772.663-1.324 1.435-1.324.773 0 1.435.552 1.435 1.324v6.953h8.388c-.111-4.304-.221-7.394-.662-8.608-.111-.441-.221-.772-.442-1.103-1.987-1.435-5.408-1.987-8.719-1.987-3.421 0-6.732.552-8.719 1.987-.055.165-.138.358-.22.552-.037.085-.074.17-.108.254a4.633 4.633 0 00-.113.297c-.552 1.435-.993 5.96-.993 11.366.11 5.518.551 9.932.993 11.367.068.272.136.503.23.718.059.132.127.259.211.385 1.987 1.435 5.408 1.986 8.719 1.986 3.421 0 6.732-.551 8.719-1.986.055-.165.138-.358.221-.551.083-.194.165-.387.221-.552.437-1.204.549-4.358.662-8.497zM66.267 56.394v-28.14c-3.09-.552-5.849-.552-8.719 0v28.14c3.201.441 5.85.441 8.72 0zm66.994-27.147c.22 0 .441 0 .551.11.221.11.331.221.331.552 0 .22-.11.331-.221.441a.38.38 0 00-.163.055h-.002c-.055.028-.11.056-.165.056.11 0 .33.11.33.22.111.11.111.221.111.331v.331h-.331v-.22c0-.221-.11-.442-.221-.442-.046 0-.091-.019-.145-.04a.714.714 0 00-.296-.07h-.331v.773h-.331v-2.097h.883zm.441.331c-.046 0-.091-.02-.145-.041a.711.711 0 00-.296-.07h-.331v.773h.662a.628.628 0 01.087-.071c.075-.055.133-.098.133-.26 0-.13-.038-.183-.069-.227-.022-.032-.041-.058-.041-.104zm.884 1.986a1.83 1.83 0 01-1.325.552c-.552 0-.993-.22-1.324-.552a1.828 1.828 0 01-.553-1.324c0-.552.222-.993.553-1.324a1.826 1.826 0 011.324-.552c.551 0 .994.22 1.325.552.331.33.551.772.551 1.324s-.11.993-.551 1.324zm-2.429-2.428c-.331.331-.441.663-.441 1.104 0 .441.11.883.441 1.104.331.33.662.44 1.104.44.441 0 .772-.11 1.103-.44.332-.332.442-.663.442-1.104 0-.441-.11-.773-.442-1.104a1.382 1.382 0 00-.677-.396 1.828 1.828 0 00-.426-.045c-.442 0-.773.11-1.104.441z" fill="currentColor"/></svg><svg fill="none" viewBox="0 0 200 82" id="fP-1" xmlns="http://www.w3.org/2000/svg"><path fill-rule="evenodd" clip-rule="evenodd" d="M196.451 56.874h.653c.325 0 .652.054.652.486 0 .486-.381.486-.815.486h-.49v-.971zm-.488 2.646h.488v-1.296h.49l.815 1.296h.488l-.869-1.35c.435-.054.816-.27.816-.81 0-.593-.326-.864-1.087-.864h-1.196v3.024h.055zm-1.142-1.512c0-1.241.924-2.213 2.174-2.213 1.196 0 2.119.972 2.119 2.213 0 1.296-.923 2.214-2.119 2.214-1.25 0-2.174-.918-2.174-2.214zm-.488 0c0 1.512 1.196 2.592 2.608 2.592 1.412 0 2.608-1.134 2.608-2.592 0-1.458-1.196-2.591-2.608-2.591-1.412 0-2.608 1.133-2.608 2.591zm-27.659.864v4.32h-10.923v4.914h7.5c2.553 0 4.619 2.051 4.619 4.589v4.049c0 2.538-2.066 4.59-4.619 4.59h-12.716v-4.32h12.552V72.48h-7.499c-2.554 0-4.618-2.052-4.618-4.59v-4.373c0-2.538 2.064-4.59 4.618-4.59h11.086v-.054zm25.051 22.462h-11.086c-2.554 0-4.619-2.052-4.619-4.59V63.461c0-2.537 2.065-4.589 4.619-4.589h11.086v4.32h-10.923v5.021h10.923v4.32h-10.923v4.482h10.923v4.319zm-74.88 0h-11.086c-2.554 0-4.619-2.052-4.619-4.59V63.461c0-2.537 2.065-4.589 4.619-4.589h11.086v4.32h-10.977v5.021h10.922v4.32h-10.922v4.482h10.922v4.319h.055zm-63.85-22.462h10.488c2.554 0 4.619 2.052 4.619 4.59v17.872H63.32V63.192h-7.988v18.142H50.55V58.872h2.446zm77.217 9.341h8.476v-5.021h-8.476v5.021zm13.204-4.103v3.887c0 2.376-1.793 4.266-4.075 4.536l4.456 8.8h-5.325l-3.913-8.8h-4.401v8.8h-4.728v-22.46h13.422c2.553 0 4.619 2.051 4.619 4.589v.648h-.055zm-64.283-5.238l5.325 18.682 5.651-18.682h5.434l-7.281 22.462h-7.499l-7.01-22.462h5.38zM.449 63.462c0-2.538 2.065-4.59 4.62-4.59h11.845v4.32H5.231V76.96h11.737v4.32h-11.9C2.514 81.28.45 79.228.45 76.69V63.462zm23.8 0c0-2.538 2.066-4.59 4.62-4.59h9.89c2.553 0 4.618 2.052 4.618 4.59v13.282c0 2.538-2.065 4.59-4.618 4.59h-9.89c-2.554 0-4.62-2.052-4.62-4.59V63.462zm4.783-.216h9.564v13.768h-9.564V63.246zM96.576.667l5.76 17.656h18.693L105.922 29.23l5.76 17.656-15.106-10.907L81.47 46.886l5.76-17.656-15.107-10.907h18.693L96.576.667z" fill="currentColor"/></svg><svg fill="none" viewBox="0 0 184 28" id="logo" xmlns="http://www.w3.org/2000/svg"><path d="M164 22.784V.384h10.4c2.581 0 4.533.661 5.856 1.984 1.024 1.024 1.536 2.314 1.536 3.872 0 2.112-.981 3.722-2.944 4.832 1.387.533 2.432 1.237 3.136 2.112.704.853 1.056 2.005 1.056 3.456 0 2.005-.747 3.53-2.24 4.576-1.493 1.045-3.541 1.568-6.144 1.568H164zm4.8-13.344h4.544c2.368 0 3.552-.81 3.552-2.432 0-.747-.277-1.312-.832-1.696-.555-.406-1.355-.608-2.4-.608H168.8V9.44zm0 9.024h5.856c2.325 0 3.488-.832 3.488-2.496 0-1.621-1.216-2.432-3.648-2.432H168.8v4.928zm-26.238 4.32V.384h16.896v4.384h-12v4.544h10.56v4.384h-10.56V18.4h12.16v4.384h-17.056zm-29.986.16L104.928.384h5.28l4.64 15.168L119.872.32h4.224l5.024 15.232L133.76.384h5.152l-7.648 22.56h-4.288L121.92 8.288l-5.056 14.656h-4.288z" fill="currentColor"/><path d="M84.717 27.904v-3.712h19.328v3.712H84.717z" fill="#C6964D"/><path d="M71.935 22.784V4.928h-6.816V.384h18.56v4.544h-6.816v17.856h-4.928zm-26.216 0V.384h17.056v4.48H50.647v4.768h10.688v4.48H50.647v8.672h-4.928zm-7.796-2.976c-2.261 2.24-5.098 3.36-8.512 3.36-3.413 0-6.25-1.12-8.512-3.36-2.24-2.24-3.36-4.981-3.36-8.224 0-3.221 1.131-5.952 3.392-8.192C23.214 1.131 26.062 0 29.475 0c3.414 0 6.24 1.12 8.48 3.36 2.262 2.24 3.392 4.981 3.392 8.224 0 3.221-1.141 5.963-3.424 8.224zm-13.312-3.232c1.28 1.365 2.902 2.048 4.864 2.048 1.963 0 3.574-.672 4.832-2.016 1.259-1.365 1.888-3.04 1.888-5.024 0-1.963-.64-3.627-1.92-4.992-1.28-1.365-2.901-2.048-4.864-2.048-1.962 0-3.573.683-4.832 2.048-1.258 1.344-1.888 3.008-1.888 4.992 0 1.963.64 3.627 1.92 4.992zM0 22.784V.384h4.928v17.92h11.168v4.48H0z" fill="currentColor"/></svg><svg fill="none" viewBox="0 0 242 50" id="mb" xmlns="http://www.w3.org/2000/svg"><path fill-rule="evenodd" clip-rule="evenodd" d="M36.685 20.145h9.061v-9.658h-9.06v9.658zm0 19.395h9.061v-9.686h-9.06v9.685zm0 9.659h9.061V39.54h-9.06v9.658zm-9.089-38.714h9.086V.8h-9.086v9.685zm0 9.66h9.086v-9.658h-9.086v9.658zm0 9.689h9.086v-9.686h-9.086v9.686zM18.51 10.485h9.086V.8H18.51v9.685zm0 19.349h9.086v-9.686H18.51v9.686zm0 19.365h9.086V39.54H18.51v9.658zM9.422 20.145h9.06v-9.658h-9.06v9.658zm0 9.716v-9.713h9.087v9.713H9.422z" fill="currentColor"/><path fill-rule="evenodd" clip-rule="evenodd" d="M9.422 39.54h9.06v-9.686h-9.06v9.685zM.334 10.485V.8h9.087v9.685H.334zm0 9.66h9.087v-9.658H.334v9.658zm0 19.395h9.087v-9.686H.334v9.685zm0 9.659h9.087V39.54H.334v9.658zm102.273-9.654c-5.73 0-8.931-4.733-8.931-10.979 0-6.246 3.15-10.923 8.931-10.923 5.731 0 8.932 4.677 8.932 10.923-.026 6.246-3.227 10.979-8.932 10.979zm0-17.748c-2.607 0-3.923 2.532-3.923 6.742 0 4.182 1.316 6.686 3.923 6.686 2.608 0 3.924-2.476 3.924-6.686s-1.316-6.742-3.924-6.742zm21.586 17.74c-6.351 0-9.836-3.99-9.836-10.813 0-6.439 3.15-10.814 9.19-10.814 1.059 0 2.195.193 2.788.44V8.527h4.982v29.497c-1.368.825-4.156 1.513-7.124 1.513zm2.194-17.28c-.413-.192-1.42-.385-2.298-.385-3.097 0-4.749 2.78-4.749 6.742 0 4.237 1.703 6.74 4.749 6.74.878 0 1.911-.192 2.298-.44V22.258zm17.71 17.286c-5.446 0-8.286-2.339-8.286-7.814V18.08h4.982v13.785c0 2.257 1.135 3.302 3.33 3.302 1.29 0 2.322-.247 2.891-.495v-16.62h4.981v19.95c-1.78.907-4.827 1.54-7.898 1.54zm12.309-.5V8.473h4.983v30.57h-4.983zm17.482.385c-2.247 0-4.44-.632-5.911-1.458V8.474h2.142v10.235c1.109-.577 2.788-.963 4.44-.963 5.085 0 8.519 3.99 8.519 10.484 0 7.924-4.028 11.198-9.19 11.198zm.49-19.756c-1.497 0-3.15.386-4.207.936v16.096c.773.386 2.245.826 3.795.826 3.846 0 6.943-2.476 6.943-9.163 0-5.42-2.633-8.695-6.531-8.695zm20.211 19.76c-5.163 0-7.771-2.448-7.771-6.245 0-6.109 6.273-6.88 12.21-7.21v-1.843c0-3.55-2.245-4.595-5.162-4.595-1.833 0-4.027.633-5.266 1.32l-.645-1.705c1.419-.743 3.846-1.459 6.092-1.459 4.104 0 7.098 1.761 7.098 6.577v13.757c-1.394.826-4.13 1.403-6.556 1.403zm4.439-11.749c-4.723.303-10.145.523-10.145 5.449 0 2.668 1.834 4.485 5.68 4.485 1.703 0 3.717-.33 4.491-.771v-9.163h-.026zm20.008 11.367V24.714c0-3.11-1.78-5.118-5.342-5.118-1.963 0-3.718.385-4.803.88V39.05h-2.141V19.1c1.78-.88 4.258-1.457 6.944-1.457 4.905 0 7.511 2.586 7.511 6.933V39.05h-2.169zm19.923-.007l-9.913-10.868h-.104v10.868h-2.065V8.473h2.065v19.344h.104l9.422-9.74h2.684l-9.654 9.988 10.171 10.978h-2.71zM87.745 10.9h-5.86L76.54 30.986h-.103L71.094 10.9h-7.176v28.148H68.9V17.31l5.912 21.737h3.304l5.86-21.737v21.737h4.982V10.872H87.77v.028h-.025z" fill="currentColor"/></svg><svg fill="none" viewBox="0 0 242 50" id="pandora" xmlns="http://www.w3.org/2000/svg"><path d="M10.62 16.31c2.52 0 4.679.121 6.312.873 1.049.487 3.005 1.826 3.812 3.491.424.873.908 1.807.908 3.857 0 2.05-.303 3.816-1.453 5.603-1.653 2.557-4.336 3.37-5.324 3.694-2.823.975-8.168.569-8.41.548l.323 14.494H.334l.141-32.439s8.793-.121 10.145-.121zM9.55 32.164c1.856-.183 2.925-.752 3.61-1.34.848-.73 1.473-1.624 1.977-2.944.444-1.177.484-3.085.343-4.202-.242-1.664-1.17-3.207-1.835-3.796-.968-.852-2.42-1.157-3.913-1.197a20.076 20.076 0 00-3.186.203v13.134s1.835.264 3.005.142zm26.725-15.711h2.985s4.84 12.14 7.16 17.58c2.32 5.44 6.675 14.86 6.675 14.86h-7.14l-1.996-5.096-1.956-4.994-11.698-.02s-1.472 3.41-2.198 5.42-1.553 4.69-1.553 4.69h-4.376s4.417-9.846 6.978-15.449c4.558-10.069 7.12-16.99 7.12-16.99zm4.336 19.407l-4.396-11.328-4.78 11.348s3.247.142 4.82.142a89.337 89.337 0 004.356-.162zm19.925-19.407h2.259S70.64 24.735 75.5 29.607c5.849 5.847 9.58 9.216 9.58 9.216s-.02-5.562-.162-10.576c-.14-5.014-.423-11.794-.423-11.794h3.973s-.303 10.11-.363 15.671c-.06 5.563-.02 16.768-.02 16.768h-1.977s-7.381-7.815-12.222-12.626c-4.84-4.811-10.265-9.805-10.265-9.805s-.08 7.43.06 12.789c.142 5.359.484 9.642.484 9.642h-4.033s.363-5.075.423-9.744-.02-22.695-.02-22.695zm52.029 0c3.449 0 8.37.792 10.105 1.827 1.734 1.035 4.154 2.862 5.243 4.71 1.21 2.09 2.38 4.81 2.38 8.81 0 3.755-.827 6.8-1.976 8.891-2.259 4.08-4.518 5.156-6.091 6.191-2.803 1.827-6.837 1.95-8.914 2.01h-13.231s.081-12.078.041-20.117c-.041-8.039-.202-12.322-.202-12.322h12.645zm-6.373 29.719c.363.06 5.345.304 7.16.203 2.158-.122 5.062-1.4 6.655-3.228 1.069-1.218 3.711-4.161 3.752-11.57.02-4.365-2.017-7.47-3.005-8.81-1.311-1.787-4.558-3.533-7.342-3.695-2.783-.163-7.058.101-7.159.101 0 0-.303 7.958-.323 12.728-.02 4.77.262 14.27.262 14.27zM155.224.8l-1.271 7.937h2.622L155.224.8zm-7.79.713l2.339 7.632 2.622-.284-4.961-7.348zm15.512 0l-2.34 7.632-2.622-.284 4.962-7.348zm-7.727 10.369c.612 0 1.109-.491 1.109-1.096 0-.606-.497-1.097-1.109-1.097-.613 0-1.11.491-1.11 1.097 0 .605.497 1.096 1.11 1.096zm3.494.321c.612 0 1.109-.49 1.109-1.096 0-.605-.497-1.096-1.109-1.096-.613 0-1.109.49-1.109 1.096 0 .605.496 1.096 1.109 1.096zm-7.02 0c.613 0 1.109-.49 1.109-1.096 0-.605-.496-1.096-1.109-1.096-.612 0-1.109.49-1.109 1.096 0 .605.497 1.096 1.109 1.096zm-.627 1.018l.424 1.502s3.892-.466 7.26.082l.565-1.584c-.02 0-4.538-.73-8.249 0zm-13.47 19.149c0-4.385 1.795-9.277 4.921-11.875 3.065-2.558 6.514-4.446 12.645-4.446 6.131 0 10.468 2.09 12.989 4.445 3.407 3.167 4.578 7.065 4.578 11.774 0 4.08-1.171 6.659-2.199 8.79-.665 1.38-4.295 8.14-15.388 8.14-11.072 0-14.662-6.333-15.651-7.998-1.21-2.152-1.895-4.466-1.895-8.83zm6.474 0c0 2.598.403 4.912.988 6.719.585 1.807 3.086 7.694 10.124 7.694 7.039 0 9.035-5.319 9.64-6.598 1.07-2.334 1.514-4.892 1.514-7.775 0-3.633-.284-4.892-1.492-7.714-1.432-3.37-4.358-6.272-9.662-6.272-5.304 0-7.482 2.862-9.459 6.293-1.29 2.212-1.653 5.339-1.653 7.653zm37.289-15.998h13.432c5.749 0 8.613 3.837 8.613 7.694 0 3.41-1.492 5.176-3.63 6.8-1.635 1.238-4.317 1.847-4.559 1.868 0 0 3.308 4.973 5.425 7.896 2.118 2.923 6.272 8.262 6.272 8.262h-7.986s-2.964-4.628-4.981-7.632c-2.018-3.005-5.446-7.877-5.446-7.877h-1.029l.161 15.51h-6.412s.202-8.141.202-14.373c0-6.232-.062-18.148-.062-18.148zm10.327 14.88c3.992-.528 5.424-3.674 5.424-6.09s-.482-4.67-2.722-5.867c-2.239-1.177-6.957-.406-6.957-.406l.019 12.22c.041.061 2.139.407 4.236.143zm33.16-14.88h2.986s4.839 12.16 7.158 17.62c2.321 5.46 6.677 14.9 6.677 14.9h-7.14l-1.996-5.115-1.958-4.994-11.696-.02s-1.473 3.41-2.199 5.42c-.726 2.01-1.553 4.71-1.553 4.71h-4.377s4.418-9.867 6.979-15.49c4.558-10.088 7.119-17.03 7.119-17.03zm4.336 19.447l-4.397-11.368-4.78 11.389s3.247.142 4.821.142c2.177-.02 4.356-.163 4.356-.163z" fill="currentColor"/></svg><svg fill="none" viewBox="0 0 202 50" id="vaillant" xmlns="http://www.w3.org/2000/svg"><path fill-rule="evenodd" clip-rule="evenodd" d="M45.403.876A3.68 3.68 0 0146.116.8c1.494 0 2.871 1.05 3.228 2.59l5.338 22.674a313.2 313.2 0 011.638 7.481c.53-2.417 1.194-5.38 1.686-7.49l5.347-22.656c.366-1.539 1.734-2.59 3.238-2.59.24 0 .472.02.713.077l1.59.363a3.224 3.224 0 012.013 1.424c.337.525.52 1.146.52 1.777l-.086.774-.877 3.717c-7.564 32.143-8.411 35.717-8.421 35.746-.559 2.045-2.64 4.3-4.808 4.3h-1.763c-2.12 0-4.297-2.303-4.827-4.377L41.356 5.224a3.676 3.676 0 01-.086-.784c0-.63.173-1.242.52-1.777a3.249 3.249 0 012.014-1.424l1.6-.363zM190.804.811h-1.609c-1.793 0-3.247 1.49-3.247 3.325v41.518c0 1.805 1.493 3.334 3.276 3.334h3.893c.509 0 .924-.41.924-.927V21.498h6.591c.51 0 .924-.41.924-.927v-3.554c0-1.978-1.666-3.039-3.236-3.039h-4.269V4.136c0-1.834-1.456-3.325-3.247-3.325zm-91.022 0h1.61c1.782 0 3.237 1.49 3.247 3.325V7.52c0 1.834-1.455 3.325-3.247 3.325h-1.61c-1.792 0-3.246-1.49-3.246-3.325V4.136c0-1.834 1.464-3.325 3.246-3.325zm0 13.168h1.609c1.783 0 3.238 1.49 3.247 3.335v28.35c0 1.835-1.454 3.335-3.247 3.335h-1.609c-1.792 0-3.246-1.5-3.246-3.335v-28.35c0-1.844 1.464-3.335 3.246-3.335zm73.708-.221h1.049c5.638 0 8.21 4.749 8.229 9.163v22.732c0 1.835-1.464 3.335-3.247 3.335h-1.609c-1.792 0-3.247-1.5-3.247-3.335V24.144c0-1.49-1.127-2.646-2.563-2.646h-3.844c-1.446 0-2.564 1.165-2.564 2.646v21.49c0 1.835-1.455 3.335-3.246 3.335h-1.609c-1.792 0-3.247-1.5-3.247-3.335v-28.56c0-1.204.81-3.116 2.968-3.116h2.148c.289 0 .559.134.733.364l.915 1.175.448.575.003.004.271.348c.212.287.482.468.733.468.164 0 .442-.038 1.021-.45l.944-.63.645-.42c1.061-.698 2.737-1.634 5.069-1.634zm-33.541 27.71c-1.435 0-2.563-1.165-2.563-2.646v-2.38c0-1.48 1.128-2.637 2.563-2.637h3.845c1.435 0 2.563 1.157 2.563 2.638v2.379c0 1.49-1.128 2.647-2.563 2.647h-3.845zm14.51-18.623c0-5.551-3.517-8.867-9.403-8.867h-10.05c-1.84 0-3.179 1.1-3.179 2.609v3.984c0 .516.414.927.925.927h11.273a2.325 2.325 0 012.351 2.35v4.664c0 .382-.077.573-.096.62-.01.03-.107.068-.203.068-.289 0-.492-.124-.877-.42l-.559-.421-.847-.64c-.887-.707-2.38-1.653-4.876-1.653h-.983c-5.405 0-8.633 4.653-8.633 9.153v4.75c0 4.538 3.228 9.23 8.633 9.23h.983c1.918 0 3.469-.507 4.876-1.577l.847-.611.541-.392c.472-.344.799-.402 1.049-.411.511 0 1.002.602 1.745 1.586l.249.335.387.496c.172.23.442.363.731.363h2.148c2.158 0 2.968-1.91 2.968-3.114V22.845zM123.986.812h-1.609c-1.792 0-3.247 1.49-3.247 3.326v41.517c0 1.834 1.455 3.334 3.247 3.334h3.931c.511 0 .925-.41.925-.926V4.137c0-1.835-1.455-3.326-3.247-3.326zm-11.303.001h-1.609c-1.792 0-3.247 1.49-3.247 3.325v41.517c0 1.835 1.455 3.335 3.247 3.335h3.931a.923.923 0 00.925-.927V4.137c0-1.834-1.455-3.325-3.247-3.325zm-36.42 38.01c0 1.482 1.127 2.648 2.563 2.648h3.844c1.436 0 2.563-1.157 2.563-2.647v-2.38c0-1.48-1.127-2.637-2.563-2.637h-3.844c-1.436 0-2.563 1.157-2.563 2.638v2.379zm7.67-24.843c5.886 0 9.403 3.316 9.403 8.868v23.028c0 1.203-.81 3.115-2.968 3.115H88.22a.915.915 0 01-.732-.363l-.386-.497-.25-.335c-.742-.984-1.234-1.586-1.744-1.586-.25.01-.578.067-1.05.41l-.54.393-.848.611c-1.407 1.07-2.958 1.577-4.875 1.577h-.983c-5.405 0-8.633-4.692-8.633-9.23v-4.75c0-4.5 3.228-9.153 8.633-9.153h.983c2.495 0 3.989.946 4.875 1.653l.848.64.559.42c.385.297.588.42.877.42.096 0 .192-.037.202-.066.02-.048.096-.239.096-.621V23.85a2.324 2.324 0 00-2.35-2.35H71.627a.923.923 0 01-.924-.927v-3.985c0-1.51 1.339-2.609 3.18-2.609h10.048zM4.038.81h30.6c1.976 0 3.585 1.596 3.595 3.545v41.068c0 1.959-1.62 3.555-3.594 3.555H4.04c-1.986 0-3.595-1.596-3.595-3.555V4.354c0-1.95 1.61-3.545 3.594-3.545zm1.235 26.298C4.589 38.68 10.61 45.931 19.34 45.931c8.72 0 14.741-7.252 14.086-18.824-.212-3.66-1.147-7.109-2.592-10.023 1.098-1.51 2.524-3.813 3.536-6.154 1.31-3.038 1.667-6.058.771-6.918-1.147-1.118-2.62.278-3.517 1.147l-.09.088a24.678 24.678 0 00-1.981 2.12c-.723.86-1.657 2.063-2.997 3.926-2.13-1.901-4.605-3.019-7.207-3.019-2.601 0-5.077 1.108-7.207 3.02C10.794 9.43 9.87 8.226 9.147 7.365a24.693 24.693 0 00-1.982-2.12l-.09-.087c-.896-.87-2.37-2.265-3.517-1.147-.896.86-.54 3.88.771 6.918 1.012 2.351 2.438 4.644 3.536 6.154-1.445 2.914-2.38 6.364-2.591 10.023zm26.025-14.409c-.848 1.7-1.956 3.497-2.862 4.72-.259.352-.545.708-.808 1.036-.582.724-1.056 1.314-.897 1.44.298.238 1.493-.975 2.437-1.988.983-1.06 3.093-4.11 4.451-7.253 1.36-3.143 1.427-5.666.925-6.153-.578-.554-1.416.038-2.562 1.146l-.053.051c-1.2 1.172-2.233 2.18-5.7 7.068-1.523 2.148-2.853 4.631-3.152 5.189v.001l-.056.104c-.067.124-.154.22-.366.19-.117-.021-.256-.082-.435-.159-.518-.223-1.366-.588-2.947-.595-1.574.007-2.416.369-2.935.592-.183.079-.326.14-.447.163-.212.038-.308-.067-.366-.192-.014-.023-.046-.084-.096-.175-.364-.675-1.645-3.048-3.112-5.118-3.467-4.888-4.5-5.896-5.7-7.068l-.052-.05C5.429 4.537 4.58 3.945 4.012 4.5c-.51.487-.433 3.01.925 6.153 1.359 3.144 3.478 6.192 4.452 7.253.934 1.013 2.129 2.236 2.428 1.987.159-.125-.316-.715-.898-1.439-.263-.328-.55-.684-.808-1.036-.896-1.223-2.004-3.029-2.852-4.72-.848-1.7-1.532-3.373-1.724-4.1-.174-.63-.232-1.289.154-1.404.491-.153.954.535 1.503 1.825.387.91.666 1.579.89 2.117.473 1.137.704 1.691 1.2 2.69a45.885 45.885 0 002.001 3.614c.183.302.343.566.485.82.318.563.954 1.69.983 1.776.058.153-.058.277-.086.306l-.09.106c-.535.625-1.55 1.81-1.731 3.83-.147 1.617.34 3.002.664 3.928.082.235.154.44.203.612.24.86.192 1.662 0 2.197a7.416 7.416 0 00-.444 2.981l-4.634-.229c-.212-.01-.395.144-.405.344a.382.382 0 00.366.392l7.602.392c.14-.508.377-.834.57-1.1.086-.12.164-.227.22-.334.184-.353.27-.83.193-1.337-.106-.755-.491-1.567-.983-2.188-.52-.66-1.628-2.332-1.792-3.832-.183-1.634.203-3.297 1.262-3.459 1.012-.162 1.976.593 2.94 2.17a11.748 11.748 0 011.695 5.637c.083 1.861-.233 2.27-.472 2.58l-.03.038c-.279.353-.674.907-.596 1.433.074.47.395.699.69.91.125.089.246.175.34.275 1.214 1.3-.578 2.656-1.435 2.647-.964-.02-2.274-.497-2.611-1.902l-6.658.344a.377.377 0 00-.366.392c.01.2.193.363.405.354l4.75-.249c.937 1.387 2.26 1.996 3.042 2.355.198.092.361.167.474.235.058.045.142.135.25.253.51.551 1.579 1.707 3.19 1.715 1.618 0 2.68-1.159 3.189-1.713.11-.119.193-.21.25-.255.114-.069.279-.144.479-.236.784-.36 2.112-.968 3.048-2.354l4.75.248a.378.378 0 00.405-.353.383.383 0 00-.366-.392l-6.658-.344c-.337 1.405-1.648 1.883-2.611 1.902-.858.019-2.65-1.348-1.436-2.647.094-.102.216-.19.344-.283.293-.211.614-.443.687-.902.077-.526-.318-1.08-.597-1.433l-.027-.035c-.239-.31-.558-.724-.474-2.583.096-2.255.79-4.157 1.695-5.638.964-1.576 1.928-2.331 2.94-2.169 1.059.162 1.445 1.825 1.261 3.459-.163 1.5-1.262 3.172-1.792 3.832-.491.62-.867 1.423-.982 2.188-.087.506 0 .984.183 1.337.056.107.134.214.22.333.194.267.43.593.57 1.1l7.602-.391a.377.377 0 00.366-.392.365.365 0 00-.405-.344l-4.644.24a7.253 7.253 0 00-.443-2.982c-.193-.535-.231-1.338 0-2.198.048-.17.119-.374.2-.606.322-.926.806-2.313.667-3.933-.18-1.992-1.177-3.173-1.71-3.804v-.001l-.111-.131c-.029-.029-.144-.153-.087-.306.03-.086.665-1.213.983-1.777.142-.253.302-.517.485-.82a45.308 45.308 0 002-3.614c.498-.998.729-1.552 1.202-2.69.224-.537.503-1.207.89-2.116.549-1.29 1.011-1.978 1.503-1.825.385.115.318.774.154 1.404-.174.727-.858 2.39-1.705 4.09zM19.284 40.57c-.646 0-1.397-.267-1.879-.793a4.368 4.368 0 001.879-1.166 4.26 4.26 0 001.879 1.166c-.492.526-1.234.793-1.88.793zm-2.73-13.086a9.48 9.48 0 00-.46-1.257c-.682-1.517-1.601-1.348-1.925-1.288l-.04.007a1.436 1.436 0 00-.305.12c-.148.07-.268.129-.351.052-.25-.229.289-.764 1.05-.755 1.214.02 1.773 1.138 1.975 1.71.357 1.004.415 1.826.28 1.864-.078.024-.13-.143-.223-.453zm-.46 1.649c.308-.201.308-.67.116-1.319-.087-.315-.135-.478-.193-.564l-.164-.038c-.125.048-.559.182-.732-.143-.164-.316.183-.583.366-.65l.02-.134c-.3-.544-.993-.927-1.485-.592-.443.296-.491 1.567.058 2.331.771 1.09 1.667 1.338 2.014 1.109zm15.445 6.142l-7.101.019c.019.2.029.42.01.669v.057l7.081.02a.401.401 0 00.395-.392.39.39 0 00-.385-.373zm-9.076-6.143c.337.22 1.243-.019 2.033-1.108.549-.755.491-2.026.048-2.332-.501-.334-1.195.039-1.484.593l.02.134c.182.067.53.334.366.65-.174.324-.608.19-.733.143l-.164.038c-.057.086-.106.248-.192.564-.203.65-.203 1.127.106 1.318zm2.272-4.055a1.314 1.314 0 00-.316-.121l-.022-.005c-.298-.065-1.24-.27-1.943 1.285-.238.524-.37.957-.462 1.256-.093.307-.144.474-.222.455-.145-.039-.077-.85.28-1.864.201-.573.76-1.691 1.974-1.71.762-.01 1.301.525 1.05.755-.08.075-.196.018-.339-.051zM14.108 35.97c-.02-.248-.01-.468.01-.668l-7.092-.03a.402.402 0 00-.395.392c0 .21.183.392.395.392l7.082-.019v-.067z" fill="currentColor"/></svg><svg fill="none" viewBox="0 0 174 62" id="zolla" xmlns="http://www.w3.org/2000/svg"><path d="M63.673 18.408c-12.014 0-21.77 9.612-21.77 21.424s9.776 21.404 21.77 21.404c12.014 0 21.79-9.612 21.79-21.404-.02-11.812-9.776-21.424-21.79-21.424zm11.046 21.424c0 6.163-4.959 11.158-11.046 11.158-6.108 0-11.067-5.014-11.067-11.158 0-6.164 4.959-11.158 11.067-11.158 6.107-.02 11.046 4.994 11.046 11.158zM104.253.75H92.4v59.455h11.853V.75zm19.127 0h-11.853v59.455h11.853V.75zm47.961 29.96c-3.367-7.69-10.663-12.288-19.533-12.288-12.014 0-21.79 9.612-21.79 21.424 0 11.811 9.776 21.403 21.79 21.403 4.576 0 8.406-1.288 11.711-3.944l.081 2.894h9.877V45.315c0-4.796-.241-10.285-2.136-14.606zm-8.487 9.116c0 6.163-4.958 11.157-11.046 11.157-6.108 0-11.066-5.014-11.066-11.157 0-6.164 4.958-11.158 11.066-11.158 6.088 0 11.046 4.994 11.046 11.158zM40.615 19.932l-.141-.455H2.457v9.175h19.895L.522 59.886l.06.317h38.521v-9.612H19.208l21.407-30.659z" fill="currentColor"/></svg></svg>