<?xml version="1.0" encoding="utf-8"?><svg viewBox="0 0 242 120" xmlns="http://www.w3.org/2000/svg" xmlns:xlink="http://www.w3.org/1999/xlink"><style>:root>svg{display:none}:root>svg:target{display:block}</style><svg fill="none" viewBox="0 0 28 24" id="arrow-l" xmlns="http://www.w3.org/2000/svg"><path d="M12.075 24L.5 12 12.075 0h3.44L5.223 10.67H27.5v2.66H5.223L15.515 24h-3.44z" fill="currentColor"/></svg><svg fill="none" viewBox="0 0 28 24" id="arrow-r" xmlns="http://www.w3.org/2000/svg"><path d="M15.925 0L27.5 12 15.925 24h-3.44l10.292-10.67H.5v-2.66h22.277L12.485 0h3.44z" fill="currentColor"/></svg><svg fill="none" viewBox="0 0 174 48" id="atol" xmlns="http://www.w3.org/2000/svg"><path fill-rule="evenodd" clip-rule="evenodd" d="M93.321 21.049c.016.047.032.094.032.157a13.405 13.405 0 002.013 5.024l-11.01 10.236c-5.787-9.294-4.403-21.729 3.901-29.453 9.31-8.666 23.717-8.164 32.461.942l-2.579 2.386a19.75 19.75 0 01-.291-.36 9.645 9.645 0 00-.715-.833c-5.222-5.652-13.966-5.966-19.628-.753A14.05 14.05 0 0093.1 19.699c.063.063.063.188.063.314.032.157.047.298.063.44.016.14.032.282.063.439 0 .063.016.11.031.157zM85.237 1.675c-19.879-2.01-32.523.628-38.877 2.637V17.94l.063.063c3.9-3.706 8.807-6.155 13.777-7.85v36.549h9.373V7.892c5.31-.955 10.109-1.256 13.294-1.457a93.588 93.588 0 002.496-.176l-.126-4.584zM33.34 25.853H15.725C19.561 12.037 27.173 6.888 33.338 5.13v20.724zM.563 46.703h12.77c0-6.218.504-11.556 1.322-16.077h18.684v16.076h9.436V1.236C-2.456 1.236.563 46.703.563 46.703zm130.6-44.714v-.753c45.231 0 42.275 45.467 42.275 45.467h-12.771c0-30.019-11.45-39.062-20.069-41.574v41.574h-9.435V1.989zm-18.244 19.719a14.147 14.147 0 012.013 5.087c0 .063.015.11.031.157a.458.458 0 01.031.157c.032.157.048.298.063.44.016.14.032.282.063.439 0 .125 0 .251.063.377a14.05 14.05 0 01-4.403 11.304c-5.662 5.212-14.406 4.898-19.628-.754-.377-.377-.692-.816-1.007-1.256l-2.579 2.386c8.745 9.106 23.151 9.609 32.461.942 8.304-7.724 9.688-20.158 3.901-29.453l-11.009 10.174z" fill="currentColor"/></svg><svg fill="none" viewBox="0 0 110 62" id="beko" xmlns="http://www.w3.org/2000/svg"><path d="M28.506 18.857c-.435-2.556-1.63-4.9-3.585-6.71-1.846-1.81-4.345-2.982-6.951-3.515-2.824-.533-5.866-.32-8.581.639V.75H.699v22.368c0 1.171.217 2.237.543 3.408.652 2.556 2.173 4.9 4.236 6.497 2.064 1.705 4.78 2.557 7.495 2.876 2.281.213 4.562 0 6.734-.639 2.39-.745 4.563-2.13 6.083-4.047 1.412-1.704 2.281-3.728 2.716-5.858.325-2.237.434-4.474 0-6.498zm-8.364 3.409c0 1.81-.326 3.728-1.303 5.325-.652 1.065-1.738 2.024-3.042 2.237-1.195.213-2.607.107-3.584-.639-1.086-.746-1.847-1.917-2.281-3.089-.543-1.704-.652-3.621-.543-5.432.217-1.704.651-3.409 1.629-4.687.76-.958 1.846-1.597 3.15-1.704 1.086-.106 2.172.107 3.041.64.978.638 1.63 1.597 2.064 2.662.652 1.385.869 3.089.869 4.687zM57.07.758h8.364v18.96c.109-.107.217-.214.326-.427 2.28-3.408 4.67-6.923 6.951-10.332h10.862c-3.476 4.154-7.06 8.202-10.536 12.356-.108.106-.108.213 0 .213 3.91 4.58 7.82 9.053 11.731 13.633H74.124c-.11 0-.218 0-.218-.106-2.824-4.047-5.648-8.095-8.472-12.036v12.142h-8.256c-.108-11.396-.108-22.9-.108-34.403zm-1.845 23.966c.544-3.302.326-6.71-.977-9.8-.543-1.384-1.412-2.556-2.498-3.62a9.5 9.5 0 00-4.02-2.344c-1.846-.533-3.692-.746-5.647-.533-2.282.213-4.563.852-6.409 2.13-2.064 1.385-3.584 3.41-4.562 5.54a15.899 15.899 0 00-1.303 6.284c0 2.236.434 4.366 1.303 6.39.652 1.385 1.63 2.77 2.933 3.728a10.262 10.262 0 003.801 2.13c1.956.746 4.02.96 5.975.96 3.367 0 6.843-.427 9.992-1.599-.326-1.81-.76-3.728-1.086-5.538-2.715.852-5.54 1.171-8.363 1.065-1.847-.107-3.694-.64-4.997-1.81-.977-.746-1.52-1.918-1.63-3.09 5.975.107 11.732.107 17.488.107zm-17.27-5.645c.109-1.598.76-3.09 2.064-4.154.869-.746 2.064-1.172 3.258-1.066 1.195 0 2.39.427 3.259 1.385.977 1.065 1.303 2.556 1.412 3.941-3.476-.106-6.734-.106-9.993-.106z" fill="currentColor"/><path d="M109.211 20.14c-.217-2.024-.869-4.048-1.955-5.752-1.412-2.343-3.693-4.154-6.409-5.113-2.172-.745-4.453-.958-6.734-.852-.869.107-1.847.213-2.716.426-2.39.533-4.67 1.704-6.408 3.409-1.955 1.917-3.15 4.367-3.584 7.03-.544 3.195-.326 6.603 1.086 9.48.977 1.916 2.498 3.727 4.344 4.899 1.956 1.278 4.237 1.917 6.518 2.13 2.28.213 4.453 0 6.625-.64 2.824-.851 5.431-2.662 6.952-5.218 2.064-2.876 2.607-6.497 2.281-9.8zm-8.581 3.621c-.217 1.491-.652 3.089-1.52 4.26-.652.96-1.739 1.598-2.825 1.811-1.086.213-2.172 0-3.041-.426-.978-.532-1.738-1.384-2.281-2.45-.543-1.171-.869-2.45-.978-3.834-.108-1.598 0-3.195.435-4.687.326-1.171.869-2.343 1.846-3.195.652-.64 1.63-1.065 2.607-1.172 1.086-.106 2.173.107 3.15.746.978.639 1.738 1.81 2.064 2.876.543 2.023.76 4.047.543 6.071zM25.464 49.64c26.83-3.728 53.658-7.35 80.595-11.078v8.309c-7.712 1.065-15.315 2.13-22.918 3.195C55.66 53.687 28.18 57.522.699 61.25v-8.202c8.255-1.171 16.51-2.343 24.765-3.408z" fill="currentColor"/></svg><svg fill="none" viewBox="0 0 146 82" id="chicco" xmlns="http://www.w3.org/2000/svg"><path fill-rule="evenodd" clip-rule="evenodd" d="M1.151 23.068v35.864c0 2.649.994 5.187 2.65 7.173.993 1.104 2.207 2.207 3.53 3.09 3.864 2.538 9.382 4.635 16.445 6.4 13.355 3.2 31.786 5.187 49.334 5.187 17.548 0 35.979-1.986 49.333-5.187 7.175-1.765 12.693-3.862 16.445-6.4 1.324-.883 2.539-1.876 3.532-3.09 1.656-1.986 2.538-4.524 2.538-7.173V23.068c0-2.428-.772-4.745-2.207-6.62-.993-1.325-2.429-2.65-3.973-3.642-3.864-2.538-9.381-4.635-16.445-6.4C108.979 3.094 90.548 1.218 73 1.218S37.02 3.205 23.666 6.405c-7.174 1.766-12.692 3.863-16.444 6.4-1.546.994-2.98 2.318-3.974 3.642-1.324 1.876-2.097 4.304-2.097 6.621zm5.85-10.814c3.863-2.538 9.38-4.635 16.555-6.4C36.91 2.653 55.452.666 73 .666c17.548 0 36.089 1.986 49.443 5.407 7.175 1.655 12.693 3.863 16.556 6.4a16.574 16.574 0 014.083 3.753c1.545 2.096 2.318 4.413 2.318 6.952v35.863c0 2.76-.993 5.408-2.76 7.505a14.606 14.606 0 01-3.641 3.2c-3.863 2.538-9.381 4.635-16.556 6.4-13.354 3.2-31.895 5.187-49.443 5.187s-36.09-1.987-49.444-5.187c-7.174-1.655-12.692-3.862-16.555-6.4a14.604 14.604 0 01-3.642-3.2C1.593 64.34.599 61.69.599 58.932V23.068c0-2.538.773-4.965 2.318-6.952.994-1.434 2.428-2.759 4.084-3.862zm62.8 5.075c0 4.304-3.532 7.945-7.947 7.945a7.913 7.913 0 01-7.947-7.945 7.913 7.913 0 017.947-7.945 7.913 7.913 0 017.946 7.945zm70.192.993a13.027 13.027 0 00-3.091-2.869c-3.531-2.317-8.719-4.304-15.34-5.849-13.244-3.2-31.234-5.076-48.561-5.076-17.328 0-35.317 1.876-48.561 5.076-6.622 1.656-11.92 3.642-15.341 5.849-1.435.883-2.428 1.876-3.09 2.87a7.554 7.554 0 00-1.545 4.634V58.82a7.8 7.8 0 001.876 5.076c.662.883 1.655 1.655 2.759 2.428 3.532 2.317 8.719 4.304 15.34 5.849 13.245 3.2 31.234 5.076 48.562 5.076 17.327 0 35.317-1.876 48.561-5.076 6.621-1.656 11.919-3.642 15.34-5.849 1.215-.773 2.098-1.656 2.76-2.428 1.104-1.324 1.876-3.09 1.876-5.076V22.957a7.79 7.79 0 00-1.545-4.635zm-8.277 15.229c.552 1.434.994 5.959.994 11.366s-.442 9.931-.994 11.366a7.44 7.44 0 01-.221.552l-.094.221a5.235 5.235 0 00-.126.33c-1.987 1.435-5.298 1.987-8.719 1.987-3.311 0-6.732-.552-8.719-1.986a2.518 2.518 0 01-.256-.496 4.99 4.99 0 01-.186-.608c-.441-1.435-.882-5.959-.993-11.366 0-5.407.442-9.932.993-11.366.056-.166.138-.359.221-.552l.002-.004c.082-.192.164-.383.219-.548 1.987-1.434 5.298-1.986 8.719-1.986 3.311 0 6.732.552 8.719 1.986.22.331.331.662.441 1.104zm-10.595 1.655v19.532c0 .773.662 1.324 1.435 1.324.772 0 1.435-.551 1.435-1.324V35.206c0-.772-.663-1.324-1.435-1.324-.773 0-1.435.552-1.435 1.324zm-77.366-2.428V18.654c-2.76-.442-5.629-.442-8.608 0v37.85c2.869.442 5.187.442 8.608 0V38.406c0-1.103 1.104-1.544 1.655-1.544.552 0 1.546.44 1.546 1.544v23.505c2.98.442 5.407.442 8.167 0V42.158c0-3.09-.11-5.296-.331-6.4-.221-1.214-.883-2.207-1.987-3.09s-2.318-1.324-3.863-1.324c-.993 0-3.31.33-5.187 1.434zM32.938 47.787c-.11 4.194-.22 7.394-.662 8.608a7.542 7.542 0 01-.221.551l-.107.252a4.79 4.79 0 00-.114.3c-1.986 1.435-5.297 1.986-8.719 1.986-3.31 0-6.732-.551-8.718-1.986-.221-.33-.332-.662-.442-1.103-.441-1.435-.883-5.849-.993-11.367 0-5.407.441-9.931.993-11.366a7.61 7.61 0 01.22-.551 7.72 7.72 0 00.221-.552c1.987-1.435 5.298-1.986 8.72-1.986 3.31 0 6.732.551 8.718 1.986.22.33.331.662.442 1.103.441 1.214.552 4.304.662 8.608H24.55v-6.953c0-.772-.662-1.324-1.435-1.324-.772 0-1.434.552-1.434 1.325V54.74c0 .772.662 1.324 1.434 1.324.773 0 1.435-.552 1.435-1.325v-6.952h8.388zm47.125 2.76h8.385c-.11 4.138-.222 7.293-.66 8.496a7.622 7.622 0 01-.22.552 7.596 7.596 0 00-.22.552c-1.987 1.434-5.298 1.986-8.72 1.986-3.31 0-6.622-.552-8.719-1.986a2.73 2.73 0 01-.335-.72 6.526 6.526 0 01-.106-.384c-.442-1.435-.883-5.959-.993-11.366 0-5.407.441-9.931.993-11.366.034-.102.078-.215.127-.33l.094-.222c.082-.193.165-.386.22-.552 1.987-1.434 5.298-1.986 8.72-1.986 3.31 0 6.621.552 8.718 1.986.221.331.331.662.442 1.104.441 1.214.552 4.303.662 8.607h-8.388v-6.952c0-.772-.662-1.324-1.435-1.324-.772 0-1.434.552-1.434 1.324v19.532c0 .773.662 1.325 1.434 1.325.773 0 1.435-.552 1.435-1.325v-6.952zm30.352-5.408h-8.388v6.952c0 .772-.662 1.324-1.435 1.324-.772 0-1.435-.552-1.435-1.324V32.557c0-.772.663-1.324 1.435-1.324.773 0 1.435.552 1.435 1.324v6.953h8.388c-.111-4.304-.221-7.394-.662-8.608-.111-.441-.221-.772-.442-1.103-1.987-1.435-5.408-1.987-8.719-1.987-3.421 0-6.732.552-8.719 1.987-.055.165-.138.358-.22.552-.037.085-.074.17-.108.254a4.633 4.633 0 00-.113.297c-.552 1.435-.993 5.96-.993 11.366.11 5.518.551 9.932.993 11.367.068.272.136.503.23.718.059.132.127.259.211.385 1.987 1.435 5.408 1.986 8.719 1.986 3.421 0 6.732-.551 8.719-1.986.055-.165.138-.358.221-.551.083-.194.165-.387.221-.552.437-1.204.549-4.358.662-8.497zM66.267 56.394v-28.14c-3.09-.552-5.849-.552-8.719 0v28.14c3.201.441 5.85.441 8.72 0zm66.994-27.147c.22 0 .441 0 .551.11.221.11.331.221.331.552 0 .22-.11.331-.221.441a.38.38 0 00-.163.055h-.002c-.055.028-.11.056-.165.056.11 0 .33.11.33.22.111.11.111.221.111.331v.331h-.331v-.22c0-.221-.11-.442-.221-.442-.046 0-.091-.019-.145-.04a.714.714 0 00-.296-.07h-.331v.773h-.331v-2.097h.883zm.441.331c-.046 0-.091-.02-.145-.041a.711.711 0 00-.296-.07h-.331v.773h.662a.628.628 0 01.087-.071c.075-.055.133-.098.133-.26 0-.13-.038-.183-.069-.227-.022-.032-.041-.058-.041-.104zm.884 1.986a1.83 1.83 0 01-1.325.552c-.552 0-.993-.22-1.324-.552a1.828 1.828 0 01-.553-1.324c0-.552.222-.993.553-1.324a1.826 1.826 0 011.324-.552c.551 0 .994.22 1.325.552.331.33.551.772.551 1.324s-.11.993-.551 1.324zm-2.429-2.428c-.331.331-.441.663-.441 1.104 0 .441.11.883.441 1.104.331.33.662.44 1.104.44.441 0 .772-.11 1.103-.44.332-.332.442-.663.442-1.104 0-.441-.11-.773-.442-1.104a1.382 1.382 0 00-.677-.396 1.828 1.828 0 00-.426-.045c-.442 0-.773.11-1.104.441z" fill="currentColor"/></svg><svg fill="none" viewBox="0 0 200 82" id="fP-1" xmlns="http://www.w3.org/2000/svg"><path fill-rule="evenodd" clip-rule="evenodd" d="M196.451 56.874h.653c.325 0 .652.054.652.486 0 .486-.381.486-.815.486h-.49v-.971zm-.488 2.646h.488v-1.296h.49l.815 1.296h.488l-.869-1.35c.435-.054.816-.27.816-.81 0-.593-.326-.864-1.087-.864h-1.196v3.024h.055zm-1.142-1.512c0-1.241.924-2.213 2.174-2.213 1.196 0 2.119.972 2.119 2.213 0 1.296-.923 2.214-2.119 2.214-1.25 0-2.174-.918-2.174-2.214zm-.488 0c0 1.512 1.196 2.592 2.608 2.592 1.412 0 2.608-1.134 2.608-2.592 0-1.458-1.196-2.591-2.608-2.591-1.412 0-2.608 1.133-2.608 2.591zm-27.659.864v4.32h-10.923v4.914h7.5c2.553 0 4.619 2.051 4.619 4.589v4.049c0 2.538-2.066 4.59-4.619 4.59h-12.716v-4.32h12.552V72.48h-7.499c-2.554 0-4.618-2.052-4.618-4.59v-4.373c0-2.538 2.064-4.59 4.618-4.59h11.086v-.054zm25.051 22.462h-11.086c-2.554 0-4.619-2.052-4.619-4.59V63.461c0-2.537 2.065-4.589 4.619-4.589h11.086v4.32h-10.923v5.021h10.923v4.32h-10.923v4.482h10.923v4.319zm-74.88 0h-11.086c-2.554 0-4.619-2.052-4.619-4.59V63.461c0-2.537 2.065-4.589 4.619-4.589h11.086v4.32h-10.977v5.021h10.922v4.32h-10.922v4.482h10.922v4.319h.055zm-63.85-22.462h10.488c2.554 0 4.619 2.052 4.619 4.59v17.872H63.32V63.192h-7.988v18.142H50.55V58.872h2.446zm77.217 9.341h8.476v-5.021h-8.476v5.021zm13.204-4.103v3.887c0 2.376-1.793 4.266-4.075 4.536l4.456 8.8h-5.325l-3.913-8.8h-4.401v8.8h-4.728v-22.46h13.422c2.553 0 4.619 2.051 4.619 4.589v.648h-.055zm-64.283-5.238l5.325 18.682 5.651-18.682h5.434l-7.281 22.462h-7.499l-7.01-22.462h5.38zM.449 63.462c0-2.538 2.065-4.59 4.62-4.59h11.845v4.32H5.231V76.96h11.737v4.32h-11.9C2.514 81.28.45 79.228.45 76.69V63.462zm23.8 0c0-2.538 2.066-4.59 4.62-4.59h9.89c2.553 0 4.618 2.052 4.618 4.59v13.282c0 2.538-2.065 4.59-4.618 4.59h-9.89c-2.554 0-4.62-2.052-4.62-4.59V63.462zm4.783-.216h9.564v13.768h-9.564V63.246zM96.576.667l5.76 17.656h18.693L105.922 29.23l5.76 17.656-15.106-10.907L81.47 46.886l5.76-17.656-15.107-10.907h18.693L96.576.667z" fill="currentColor"/></svg><svg fill="none" viewBox="0 0 53 117" id="gulp" xmlns="http://www.w3.org/2000/svg"><path fill-rule="evenodd" clip-rule="evenodd" d="M26.074 91.919c-6.824 0-12.098-1.026-14.634-1.637-1.734-.417-3.126-.85-4.184-1.294l3.382 5.778 1.323 18.055c0 2.024 6.43 3.665 14.361 3.665 7.932 0 14.362-1.641 14.362-3.665L41.73 94.57l3.2-5.599c-1.062.45-2.467.888-4.223 1.311-2.536.611-7.81 1.637-14.634 1.637zm18.967-58.75c-5.009.699-11.657 1.084-18.719 1.084-7.062 0-13.71-.385-18.719-1.085-2.48-.346-4.444-.755-5.834-1.214-.332-.11-.894-.297-1.435-.595l3.104 28.562c.144-.492.304-.983.483-1.473a27.924 27.924 0 011.264-2.942c.478-.958 1-1.863 1.562-2.716a21 21 0 011.798-2.355 14.356 14.356 0 011.957-1.85 9.313 9.313 0 012.026-1.212 5.137 5.137 0 012.026-.436c.77 0 1.516.21 2.237.632.72.42 1.392 1.103 2.02 2.046.143.21.235.424.272.64.039.215.058.418.058.609 0 .451-.108.808-.324 1.068-.216.261-.473.392-.769.392-.271 0-.523-.143-.756-.43-.233-.285-.493-.694-.781-1.226-.272-.481-.57-.83-.896-1.045a1.887 1.887 0 00-1.06-.324c-.594 0-1.227.246-1.9.737-.673.492-1.34 1.142-2 1.949a21.162 21.162 0 00-1.9 2.769 28.905 28.905 0 00-1.608 3.19 22.788 22.788 0 00-1.111 3.22c-.275 1.059-.413 2.01-.413 2.852 0 .28.02.57.057.865.038.296.11.564.216.805.106.241.25.44.432.594.182.156.413.234.692.234.314 0 .67-.106 1.068-.316a8.02 8.02 0 001.238-.827c.428-.342.858-.728 1.29-1.16a20.633 20.633 0 002.197-2.58c.289-.406.504-.76.649-1.061l1.181-3.537c.144-.38.332-.651.566-.812a1.25 1.25 0 01.718-.24c.118 0 .236.02.355.06.119.04.224.103.318.187a.9.9 0 01.222.332c.055.135.082.293.082.473 0 .482-.042.933-.126 1.355-.085.422-.193.833-.325 1.234-.13.4-.277.805-.438 1.211-.16.407-.318.83-.47 1.272-.034.05-.095.208-.184.474a73.268 73.268 0 00-.737 2.347c-.148.497-.3 1.004-.457 1.52-.157.517-.307 1.023-.451 1.52a235.062 235.062 0 00-.674 2.355 17.2 17.2 0 01-.14.482 3.521 3.521 0 01-.534 1.09 2.026 2.026 0 01-.418.437.772.772 0 01-.47.173c-.271 0-.468-.09-.59-.27-.124-.181-.185-.513-.185-.994v-.21c0-.071.004-.147.012-.226.009-.16.072-.462.191-.904.119-.44.26-.94.426-1.496a83.77 83.77 0 01.534-1.731c.19-.597.361-1.131.514-1.603-.45.502-.936 1.001-1.461 1.498-.525.496-1.063.943-1.614 1.339-.55.396-1.105.72-1.664.97-.559.251-1.097.377-1.613.377-.593 0-1.104-.13-1.532-.392-.077-.047-.15-.1-.222-.153l1.727 18.106c.45 1.127 8.912 3.895 20.071 3.895 11.164 0 19.631-2.77 20.073-3.897l2.48-21.526a96.08 96.08 0 00-.596.55 26.036 26.036 0 01-2.014 1.709 9.086 9.086 0 01-1.848 1.105 4.796 4.796 0 01-1.932.392c-.643 0-1.141-.14-1.493-.421-.35-.281-.527-.667-.527-1.16v-.112a.76.76 0 01.013-.128c.034-.3.166-.647.394-1.038.229-.392.504-.798.825-1.219.322-.421.665-.848 1.03-1.28.364-.43.7-.84 1.01-1.226.309-.385.565-.739.768-1.06.204-.322.306-.582.306-.783a.354.354 0 00-.128-.286c-.084-.07-.224-.105-.419-.105a2.39 2.39 0 00-1.048.263 5.21 5.21 0 00-1.068.707 9.668 9.668 0 00-1.029 1.016 15.28 15.28 0 00-.94 1.189 17.487 17.487 0 00-1.417 2.393l-.215.466c-.093.2-.195.427-.305.677a39.6 39.6 0 01-.35.775c-.122.266-.234.517-.336.753l-.273.632c-.08.185-.138.313-.172.383a9.53 9.53 0 00-.21.512c-.097.25-.21.544-.336.88l-.4 1.061a287.29 287.29 0 00-.718 1.926c-.093.25-.153.421-.178.512-.085.26-.184.506-.298.738-.115.23-.246.433-.394.609a1.803 1.803 0 01-.508.42 1.3 1.3 0 01-.642.159c-.305 0-.557-.073-.756-.218-.199-.146-.299-.424-.299-.835 0-.201.026-.407.077-.617a5.5 5.5 0 01.19-.625 18 18 0 01.236-.602c.08-.195.154-.383.222-.564.457-1.003.923-2.009 1.397-3.017s.93-2.006 1.366-2.994c.09-.207.174-.409.263-.614l-.079.079c-.55.532-1.099 1-1.645 1.407a8.721 8.721 0 01-1.626.97c-.538.241-1.061.362-1.57.362-.347 0-.637-.055-.87-.166a1.45 1.45 0 01-.558-.451 1.81 1.81 0 01-.3-.677c-.02-.09-.032-.183-.045-.275-.148.115-.298.228-.45.335-.525.37-1.041.67-1.55.895-.508.226-.965.339-1.371.339-.407 0-.737-.136-.992-.406-.254-.271-.38-.733-.38-1.385 0-.462.067-.998.202-1.61a8.25 8.25 0 01-.825 1.189c-.33.401-.707.767-1.13 1.099a5.67 5.67 0 01-1.424.804 4.667 4.667 0 01-1.715.309c-.28 0-.548-.035-.807-.105a1.692 1.692 0 01-.68-.362 1.813 1.813 0 01-.47-.684c-.118-.286-.177-.645-.177-1.076 0-.01.017-.163.05-.46.034-.295.142-.762.325-1.399a33.88 33.88 0 01.844-2.475c.382-1.013.92-2.242 1.614-3.687.178-.381.383-.654.616-.82a1.28 1.28 0 011.124-.196c.128.036.246.09.356.166.11.075.2.17.267.286a.777.777 0 01.102.398c0 .1-.013.197-.039.286a3.426 3.426 0 01-.272.67c-.14.276-.304.592-.49.948s-.383.74-.59 1.152c-.208.41-.4.837-.579 1.279-.177.441-.33.89-.457 1.346-.127.457-.2.901-.216 1.332 0 .18.042.346.127.497.085.15.225.225.42.225.55 0 1.075-.18 1.575-.541a7 7 0 001.384-1.347c.424-.537.807-1.114 1.15-1.731.343-.617.629-1.18.858-1.693.16-.34.302-.707.425-1.098.123-.392.257-.752.4-1.084.145-.33.31-.607.496-.827a.878.878 0 01.698-.331c.306 0 .547.115.725.346.178.23.266.506.266.827 0 .18-.056.43-.171.745-.115.316-.258.678-.432 1.084s-.362.84-.565 1.301c-.203.462-.392.93-.565 1.407a13.74 13.74 0 00-.432 1.4 5.24 5.24 0 00-.172 1.271c0 .362.186.542.559.542.263 0 .588-.09.978-.27.39-.182.799-.435 1.226-.76.107-.082.215-.167.321-.256.12-.493.26-.948.423-1.362.296-.783.597-1.56.902-2.332.304-.773.584-1.48.838-2.123l3.85-9.705c.152-.392.358-.668.615-.828.26-.16.52-.24.782-.24s.501.084.718.255c.216.17.324.447.324.828 0 .18-.036.371-.108.572-.072.2-.163.416-.273.646-.212.472-.464 1.049-.756 1.731a245.517 245.517 0 00-1.97 4.733c-.351.868-.694 1.713-1.029 2.535a301.672 301.672 0 00-1.696 4.259c-.093.23-.184.5-.273.805-.089.306-.133.58-.133.82 0 .15.025.27.076.361.051.09.148.136.292.136.178 0 .4-.063.667-.189.267-.125.555-.29.864-.496.31-.206.631-.441.965-.707a30.082 30.082 0 002.752-2.476.571.571 0 01.195-.129c.143-.427.273-.846.389-1.255.067-.18.16-.436.28-.767a10 10 0 01.406-.979c.152-.32.324-.6.514-.835s.396-.354.616-.354c.34 0 .585.078.737.233.153.157.229.384.229.686 0 .06-.009.155-.025.285a9.93 9.93 0 01-.146.828c-.03.13-.058.226-.083.286.313-.341.652-.68 1.016-1.016.364-.336.741-.64 1.13-.91a6.53 6.53 0 011.196-.663 3.14 3.14 0 011.219-.255c.28 0 .557.04.832.12.275.08.521.198.737.354.216.156.392.351.527.587.135.235.203.509.203.82 0 .412-.103.85-.311 1.317a9.543 9.543 0 01-.781 1.406c-.314.472-.653.93-1.016 1.377-.365.447-.705.853-1.023 1.219-.318.367-.585.677-.801.933-.215.256-.328.43-.337.52 0 .12.039.218.115.293.076.075.203.113.381.113.144 0 .356-.08.635-.241.28-.16.672-.439 1.175-.835a58.828 58.828 0 001.919-1.595c.531-.458 1.154-1.003 1.855-1.623l3.36-31.118c-.541.299-1.104.486-1.436.596-1.39.459-3.353.868-5.835 1.214zm-18.739-7.384C11.776 25.785 0 27.41 0 29.413s11.776 3.628 26.302 3.628c14.527 0 26.303-1.624 26.303-3.628s-11.776-3.628-26.303-3.628zm10.502 4.688c0 .47-1.399.852-3.126.852-1.726 0-3.125-.382-3.125-.852s1.4-.851 3.125-.851c1.727 0 3.127.38 3.127.851z" fill="#A3A3A3"/><path fill-rule="evenodd" clip-rule="evenodd" d="M31.186 30.097a.141.141 0 00-.024.075c0 .305 1.127.551 2.516.551 1.39 0 2.517-.246 2.517-.55l3.286-13.327 13.07-13.8a.26.26 0 00.013-.012c.276-.313-.285-1.282-1.216-2.112-.932-.83-1.938-1.112-2.25-.796a.174.174 0 00-.007.008L35.145 14.808l-3.96 15.289z" fill="#A3A3A3"/></svg><svg fill="none" viewBox="0 0 184 28" id="logo" xmlns="http://www.w3.org/2000/svg"><path d="M164 22.784V.384h10.4c2.581 0 4.533.661 5.856 1.984 1.024 1.024 1.536 2.314 1.536 3.872 0 2.112-.981 3.722-2.944 4.832 1.387.533 2.432 1.237 3.136 2.112.704.853 1.056 2.005 1.056 3.456 0 2.005-.747 3.53-2.24 4.576-1.493 1.045-3.541 1.568-6.144 1.568H164zm4.8-13.344h4.544c2.368 0 3.552-.81 3.552-2.432 0-.747-.277-1.312-.832-1.696-.555-.406-1.355-.608-2.4-.608H168.8V9.44zm0 9.024h5.856c2.325 0 3.488-.832 3.488-2.496 0-1.621-1.216-2.432-3.648-2.432H168.8v4.928zm-26.238 4.32V.384h16.896v4.384h-12v4.544h10.56v4.384h-10.56V18.4h12.16v4.384h-17.056zm-29.986.16L104.928.384h5.28l4.64 15.168L119.872.32h4.224l5.024 15.232L133.76.384h5.152l-7.648 22.56h-4.288L121.92 8.288l-5.056 14.656h-4.288z" fill="currentColor"/><path d="M84.717 27.904v-3.712h19.328v3.712H84.717z" fill="#C6964D"/><path d="M71.935 22.784V4.928h-6.816V.384h18.56v4.544h-6.816v17.856h-4.928zm-26.216 0V.384h17.056v4.48H50.647v4.768h10.688v4.48H50.647v8.672h-4.928zm-7.796-2.976c-2.261 2.24-5.098 3.36-8.512 3.36-3.413 0-6.25-1.12-8.512-3.36-2.24-2.24-3.36-4.981-3.36-8.224 0-3.221 1.131-5.952 3.392-8.192C23.214 1.131 26.062 0 29.475 0c3.414 0 6.24 1.12 8.48 3.36 2.262 2.24 3.392 4.981 3.392 8.224 0 3.221-1.141 5.963-3.424 8.224zm-13.312-3.232c1.28 1.365 2.902 2.048 4.864 2.048 1.963 0 3.574-.672 4.832-2.016 1.259-1.365 1.888-3.04 1.888-5.024 0-1.963-.64-3.627-1.92-4.992-1.28-1.365-2.901-2.048-4.864-2.048-1.962 0-3.573.683-4.832 2.048-1.258 1.344-1.888 3.008-1.888 4.992 0 1.963.64 3.627 1.92 4.992zM0 22.784V.384h4.928v17.92h11.168v4.48H0z" fill="currentColor"/></svg><svg fill="none" viewBox="0 0 242 50" id="mb" xmlns="http://www.w3.org/2000/svg"><path fill-rule="evenodd" clip-rule="evenodd" d="M36.685 20.145h9.061v-9.658h-9.06v9.658zm0 19.395h9.061v-9.686h-9.06v9.685zm0 9.659h9.061V39.54h-9.06v9.658zm-9.089-38.714h9.086V.8h-9.086v9.685zm0 9.66h9.086v-9.658h-9.086v9.658zm0 9.689h9.086v-9.686h-9.086v9.686zM18.51 10.485h9.086V.8H18.51v9.685zm0 19.349h9.086v-9.686H18.51v9.686zm0 19.365h9.086V39.54H18.51v9.658zM9.422 20.145h9.06v-9.658h-9.06v9.658zm0 9.716v-9.713h9.087v9.713H9.422z" fill="currentColor"/><path fill-rule="evenodd" clip-rule="evenodd" d="M9.422 39.54h9.06v-9.686h-9.06v9.685zM.334 10.485V.8h9.087v9.685H.334zm0 9.66h9.087v-9.658H.334v9.658zm0 19.395h9.087v-9.686H.334v9.685zm0 9.659h9.087V39.54H.334v9.658zm102.273-9.654c-5.73 0-8.931-4.733-8.931-10.979 0-6.246 3.15-10.923 8.931-10.923 5.731 0 8.932 4.677 8.932 10.923-.026 6.246-3.227 10.979-8.932 10.979zm0-17.748c-2.607 0-3.923 2.532-3.923 6.742 0 4.182 1.316 6.686 3.923 6.686 2.608 0 3.924-2.476 3.924-6.686s-1.316-6.742-3.924-6.742zm21.586 17.74c-6.351 0-9.836-3.99-9.836-10.813 0-6.439 3.15-10.814 9.19-10.814 1.059 0 2.195.193 2.788.44V8.527h4.982v29.497c-1.368.825-4.156 1.513-7.124 1.513zm2.194-17.28c-.413-.192-1.42-.385-2.298-.385-3.097 0-4.749 2.78-4.749 6.742 0 4.237 1.703 6.74 4.749 6.74.878 0 1.911-.192 2.298-.44V22.258zm17.71 17.286c-5.446 0-8.286-2.339-8.286-7.814V18.08h4.982v13.785c0 2.257 1.135 3.302 3.33 3.302 1.29 0 2.322-.247 2.891-.495v-16.62h4.981v19.95c-1.78.907-4.827 1.54-7.898 1.54zm12.309-.5V8.473h4.983v30.57h-4.983zm17.482.385c-2.247 0-4.44-.632-5.911-1.458V8.474h2.142v10.235c1.109-.577 2.788-.963 4.44-.963 5.085 0 8.519 3.99 8.519 10.484 0 7.924-4.028 11.198-9.19 11.198zm.49-19.756c-1.497 0-3.15.386-4.207.936v16.096c.773.386 2.245.826 3.795.826 3.846 0 6.943-2.476 6.943-9.163 0-5.42-2.633-8.695-6.531-8.695zm20.211 19.76c-5.163 0-7.771-2.448-7.771-6.245 0-6.109 6.273-6.88 12.21-7.21v-1.843c0-3.55-2.245-4.595-5.162-4.595-1.833 0-4.027.633-5.266 1.32l-.645-1.705c1.419-.743 3.846-1.459 6.092-1.459 4.104 0 7.098 1.761 7.098 6.577v13.757c-1.394.826-4.13 1.403-6.556 1.403zm4.439-11.749c-4.723.303-10.145.523-10.145 5.449 0 2.668 1.834 4.485 5.68 4.485 1.703 0 3.717-.33 4.491-.771v-9.163h-.026zm20.008 11.367V24.714c0-3.11-1.78-5.118-5.342-5.118-1.963 0-3.718.385-4.803.88V39.05h-2.141V19.1c1.78-.88 4.258-1.457 6.944-1.457 4.905 0 7.511 2.586 7.511 6.933V39.05h-2.169zm19.923-.007l-9.913-10.868h-.104v10.868h-2.065V8.473h2.065v19.344h.104l9.422-9.74h2.684l-9.654 9.988 10.171 10.978h-2.71zM87.745 10.9h-5.86L76.54 30.986h-.103L71.094 10.9h-7.176v28.148H68.9V17.31l5.912 21.737h3.304l5.86-21.737v21.737h4.982V10.872H87.77v.028h-.025z" fill="currentColor"/></svg><svg fill="none" viewBox="0 0 121 74" id="next" xmlns="http://www.w3.org/2000/svg"><g clip-path="url(#ja)"><path d="M28.565 19.788h22.633v1.799H30.64v13.539h19.332v1.799H30.64v14.864h20.794v1.8h-22.87V19.787zm24.66 0h2.405l10.657 14.865 10.892-14.865L91.994.906l-24.34 35.309 12.543 17.373h-2.5l-11.41-15.811-11.458 15.811h-2.452l12.637-17.373-11.788-16.427zm27.868 1.799v-1.8h25.792v1.8H95.002v32.001h-2.074V21.587H81.093zM.25 19.787h2.593l35.762 53.514-14.779-19.713L2.42 22.344l-.094 31.244H.25v-33.8zm106.426 31.46a.733.733 0 01-.742-.753c0-.425.318-.753.742-.753a.73.73 0 01.742.753.73.73 0 01-.742.753zm2.039-1.981h1.11c.015.601.454 1.005 1.1 1.005.721 0 1.13-.434 1.13-1.248V43.87h1.13v5.158c0 1.466-.847 2.31-2.25 2.31-1.317 0-2.22-.819-2.22-2.072zm5.949-.066h1.12c.096.692.772 1.132 1.746 1.132.908 0 1.575-.47 1.575-1.117 0-.555-.424-.889-1.388-1.116l-.939-.228c-1.317-.308-1.917-.945-1.917-2.016 0-1.298 1.059-2.162 2.649-2.162 1.478 0 2.558.864 2.624 2.092h-1.1c-.106-.672-.691-1.092-1.539-1.092-.893 0-1.489.43-1.489 1.087 0 .52.384.818 1.332 1.04l.803.197c1.493.35 2.109.955 2.109 2.052 0 1.394-1.08 2.268-2.806 2.268-1.614 0-2.699-.833-2.78-2.137z" fill="#A3A3A3"/></g><defs><clipPath id="ja"><path fill="#fff" transform="translate(.25 .906)" d="M0 0h120v72.422H0z"/></clipPath></defs></svg><svg fill="none" viewBox="0 0 242 50" id="pandora" xmlns="http://www.w3.org/2000/svg"><path d="M10.62 16.31c2.52 0 4.679.121 6.312.873 1.049.487 3.005 1.826 3.812 3.491.424.873.908 1.807.908 3.857 0 2.05-.303 3.816-1.453 5.603-1.653 2.557-4.336 3.37-5.324 3.694-2.823.975-8.168.569-8.41.548l.323 14.494H.334l.141-32.439s8.793-.121 10.145-.121zM9.55 32.164c1.856-.183 2.925-.752 3.61-1.34.848-.73 1.473-1.624 1.977-2.944.444-1.177.484-3.085.343-4.202-.242-1.664-1.17-3.207-1.835-3.796-.968-.852-2.42-1.157-3.913-1.197a20.076 20.076 0 00-3.186.203v13.134s1.835.264 3.005.142zm26.725-15.711h2.985s4.84 12.14 7.16 17.58c2.32 5.44 6.675 14.86 6.675 14.86h-7.14l-1.996-5.096-1.956-4.994-11.698-.02s-1.472 3.41-2.198 5.42-1.553 4.69-1.553 4.69h-4.376s4.417-9.846 6.978-15.449c4.558-10.069 7.12-16.99 7.12-16.99zm4.336 19.407l-4.396-11.328-4.78 11.348s3.247.142 4.82.142a89.337 89.337 0 004.356-.162zm19.925-19.407h2.259S70.64 24.735 75.5 29.607c5.849 5.847 9.58 9.216 9.58 9.216s-.02-5.562-.162-10.576c-.14-5.014-.423-11.794-.423-11.794h3.973s-.303 10.11-.363 15.671c-.06 5.563-.02 16.768-.02 16.768h-1.977s-7.381-7.815-12.222-12.626c-4.84-4.811-10.265-9.805-10.265-9.805s-.08 7.43.06 12.789c.142 5.359.484 9.642.484 9.642h-4.033s.363-5.075.423-9.744-.02-22.695-.02-22.695zm52.029 0c3.449 0 8.37.792 10.105 1.827 1.734 1.035 4.154 2.862 5.243 4.71 1.21 2.09 2.38 4.81 2.38 8.81 0 3.755-.827 6.8-1.976 8.891-2.259 4.08-4.518 5.156-6.091 6.191-2.803 1.827-6.837 1.95-8.914 2.01h-13.231s.081-12.078.041-20.117c-.041-8.039-.202-12.322-.202-12.322h12.645zm-6.373 29.719c.363.06 5.345.304 7.16.203 2.158-.122 5.062-1.4 6.655-3.228 1.069-1.218 3.711-4.161 3.752-11.57.02-4.365-2.017-7.47-3.005-8.81-1.311-1.787-4.558-3.533-7.342-3.695-2.783-.163-7.058.101-7.159.101 0 0-.303 7.958-.323 12.728-.02 4.77.262 14.27.262 14.27zM155.224.8l-1.271 7.937h2.622L155.224.8zm-7.79.713l2.339 7.632 2.622-.284-4.961-7.348zm15.512 0l-2.34 7.632-2.622-.284 4.962-7.348zm-7.727 10.369c.612 0 1.109-.491 1.109-1.096 0-.606-.497-1.097-1.109-1.097-.613 0-1.11.491-1.11 1.097 0 .605.497 1.096 1.11 1.096zm3.494.321c.612 0 1.109-.49 1.109-1.096 0-.605-.497-1.096-1.109-1.096-.613 0-1.109.49-1.109 1.096 0 .605.496 1.096 1.109 1.096zm-7.02 0c.613 0 1.109-.49 1.109-1.096 0-.605-.496-1.096-1.109-1.096-.612 0-1.109.49-1.109 1.096 0 .605.497 1.096 1.109 1.096zm-.627 1.018l.424 1.502s3.892-.466 7.26.082l.565-1.584c-.02 0-4.538-.73-8.249 0zm-13.47 19.149c0-4.385 1.795-9.277 4.921-11.875 3.065-2.558 6.514-4.446 12.645-4.446 6.131 0 10.468 2.09 12.989 4.445 3.407 3.167 4.578 7.065 4.578 11.774 0 4.08-1.171 6.659-2.199 8.79-.665 1.38-4.295 8.14-15.388 8.14-11.072 0-14.662-6.333-15.651-7.998-1.21-2.152-1.895-4.466-1.895-8.83zm6.474 0c0 2.598.403 4.912.988 6.719.585 1.807 3.086 7.694 10.124 7.694 7.039 0 9.035-5.319 9.64-6.598 1.07-2.334 1.514-4.892 1.514-7.775 0-3.633-.284-4.892-1.492-7.714-1.432-3.37-4.358-6.272-9.662-6.272-5.304 0-7.482 2.862-9.459 6.293-1.29 2.212-1.653 5.339-1.653 7.653zm37.289-15.998h13.432c5.749 0 8.613 3.837 8.613 7.694 0 3.41-1.492 5.176-3.63 6.8-1.635 1.238-4.317 1.847-4.559 1.868 0 0 3.308 4.973 5.425 7.896 2.118 2.923 6.272 8.262 6.272 8.262h-7.986s-2.964-4.628-4.981-7.632c-2.018-3.005-5.446-7.877-5.446-7.877h-1.029l.161 15.51h-6.412s.202-8.141.202-14.373c0-6.232-.062-18.148-.062-18.148zm10.327 14.88c3.992-.528 5.424-3.674 5.424-6.09s-.482-4.67-2.722-5.867c-2.239-1.177-6.957-.406-6.957-.406l.019 12.22c.041.061 2.139.407 4.236.143zm33.16-14.88h2.986s4.839 12.16 7.158 17.62c2.321 5.46 6.677 14.9 6.677 14.9h-7.14l-1.996-5.115-1.958-4.994-11.696-.02s-1.473 3.41-2.199 5.42c-.726 2.01-1.553 4.71-1.553 4.71h-4.377s4.418-9.867 6.979-15.49c4.558-10.088 7.119-17.03 7.119-17.03zm4.336 19.447l-4.397-11.368-4.78 11.389s3.247.142 4.821.142c2.177-.02 4.356-.163 4.356-.163z" fill="currentColor"/></svg><svg fill="none" viewBox="0 0 95 91" id="redux" xmlns="http://www.w3.org/2000/svg"><path d="M65.97 63.48c3.48-.36 6.12-3.36 6-6.96-.12-3.6-3.12-6.48-6.72-6.48h-.24c-3.72.12-6.6 3.24-6.48 6.96.12 1.8.84 3.36 1.92 4.44-4.08 8.04-10.32 13.92-19.68 18.84-6.36 3.36-12.96 4.56-19.56 3.72-5.4-.72-9.6-3.12-12.24-7.08-3.84-5.88-4.2-12.24-.96-18.6 2.28-4.56 5.88-7.92 8.16-9.6-.48-1.56-1.2-4.2-1.56-6.12C-2.79 55.2-.99 72.24 4.29 80.28c3.96 6 12 9.72 20.88 9.72 2.4 0 4.8-.24 7.2-.84 15.36-3 27-12.12 33.6-25.68z" fill="#757575"/><path d="M87.09 48.6c-9.12-10.68-22.56-16.56-37.92-16.56h-1.92c-1.08-2.16-3.36-3.6-5.88-3.6h-.24c-3.72.12-6.6 3.24-6.48 6.96.12 3.6 3.12 6.48 6.72 6.48h.24c2.64-.12 4.92-1.8 5.88-4.08h2.16c9.12 0 17.76 2.64 25.56 7.8 6 3.96 10.32 9.12 12.72 15.36 2.04 5.04 1.92 9.96-.24 14.16-3.36 6.36-9 9.84-16.44 9.84-4.8 0-9.36-1.44-11.76-2.52-1.32 1.2-3.72 3.12-5.4 4.32 5.16 2.4 10.44 3.72 15.48 3.72 11.52 0 20.04-6.36 23.28-12.72 3.48-6.96 3.24-18.96-5.76-29.16z" fill="#757575"/><path d="M26.13 65.52c.12 3.6 3.12 6.48 6.72 6.48h.24c3.72-.12 6.6-3.24 6.48-6.96-.12-3.6-3.12-6.48-6.72-6.48h-.24c-.24 0-.6 0-.84.12-4.92-8.16-6.96-17.04-6.24-26.64.48-7.2 2.88-13.44 7.08-18.6 3.48-4.44 10.2-6.6 14.76-6.72 12.72-.24 18.12 15.6 18.48 21.96 1.56.36 4.2 1.2 6 1.8C70.41 11.04 58.41.96 46.89.96c-10.8 0-20.76 7.8-24.72 19.32-5.52 15.36-1.92 30.12 4.8 41.76-.6.84-.96 2.16-.84 3.48z" fill="#757575"/></svg><svg fill="none" viewBox="0 0 101 100" id="sass" xmlns="http://www.w3.org/2000/svg"><g clip-path="url(#ma)"><path d="M100.707 64.076c-.287-2.328-1.467-4.348-3.516-6.01a.704.704 0 00-.084-.086l-.103-.074-.033-.023-1.088-.782-.037-.027-.139-.098a.684.684 0 00-.162-.068c-3.442-2.049-9.139-3.484-17.856-.408-2.08-3.5-2.316-6.305-.923-10.602.248-.748.017-1.242-.725-1.562-1.492-.635-3.535-.31-4.984.072-.676.176-1.082.559-1.211 1.139-.918 4.297-3.586 8.222-6.166 12.012l-.153.222c-1.59-3.371-1.26-5.982-.152-9.254.22-.652.047-1.086-.565-1.41-1.707-.88-4.267-.275-5.287.026-1.293.376-2.68 3.87-4.228 8.054-.39 1.053-.727 1.953-.928 2.373-.478.977-.935 2.09-1.42 3.272-1.094 2.674-2.326 5.683-4.088 7.574-.64-1.416.368-3.649 1.346-5.815 1.158-2.56 2.252-4.98.992-6.525a2.31 2.31 0 00-1.627-.844 2.59 2.59 0 00-1.2.196c.13-1.104.136-1.975-.186-3.028-.461-1.502-1.659-2.343-3.307-2.299-3.754.11-6.93 2.907-8.936 5.235-1.336 1.562-4.297 2.754-6.896 3.799-1.027.435-2.004.826-2.818 1.216-1.3-1.097-2.95-2.205-4.688-3.375C14.656 53.7 9.123 49.982 8.932 44.943c-.274-7.443 8.203-12.722 15.601-16.49 5.608-2.852 10.483-4.742 14.904-5.775 6.211-1.452 11.458-1.159 15.59.867 2.262 1.107 3.32 3.515 2.649 5.992-1.758 6.435-9.041 10.846-15.27 12.83-3.752 1.195-6.945 1.695-9.765 1.531-3.535-.205-6.422-1.978-7.657-2.734a4.146 4.146 0 00-.625-.352l-.056-.013a.627.627 0 00-.623.195c-.254.303-.164.781-.073 1.023 1.202 3.14 3.682 5.121 7.372 5.893 1.207.242 2.436.359 3.668.35 8.634 0 19.652-4.979 23.699-9.078 2.76-2.794 4.77-5.665 5.601-10.616.87-5.185-2.646-8.789-6.228-10.449-8.705-4.018-18.592-2.43-25.354-.39-7.91 2.384-16.094 6.72-22.449 11.9C2.08 36.007-.752 41.932 1.494 47.254c2.307 5.455 7.932 8.867 13.371 12.168 1.758 1.064 3.43 2.078 4.936 3.125-.453.22-.916.445-1.387.67-4.566 2.213-9.746 4.703-12.62 8.818-2.085 2.998-2.476 5.982-1.16 8.871.704 1.537 1.954 2.58 3.69 3.1.903.256 1.839.38 2.778.369 3.38 0 7.101-1.367 9.127-2.631 3.578-2.246 5.896-5.262 6.892-8.963.887-3.293.674-6.564-.615-9.484l4.385-2.211c-2.116 7.031-.494 11.23 1.287 13.547.656.853 1.84 1.367 3.162 1.39 1.322.024 2.539-.474 3.226-1.322 1.301-1.611 2.262-3.496 3.147-5.38-.047 1.23.012 2.476.431 3.532.378.952.999 1.582 1.8 1.825.85.26 1.849.04 2.81-.616 4.33-2.962 7.29-10.074 9.67-15.79.338-.813.662-1.594.976-2.325a29.783 29.783 0 002.442 6.069c.23.418.21.601-.102.945-.47.515-1.127 1.139-1.822 1.799-2.105 1.998-4.727 4.492-5.078 6.685-.137.88.469 1.68 1.408 1.862 2.826.562 6.23-.26 9.11-2.198 2.617-1.758 3.601-4.209 2.93-7.263-.651-2.942.833-6.594 4.411-10.864.586 2.448 1.367 4.426 2.445 6.159l-.029.023c-2.605 2.275-6.175 5.39-5.62 9.17a2.608 2.608 0 001.089 1.8 2.778 2.778 0 002.188.403c3.412-.717 5.98-2.16 7.847-4.408s1.186-4.74.557-6.674c4.883-1.324 9.23-1.291 13.3.098 2.286.78 3.924 2.064 4.87 3.836 1.19 2.228.547 4.285-1.815 5.79-.724.463-1.074.747-1.096 1.104a.517.517 0 00.196.436c.273.224 1.117.615 3.025-.586 1.758-1.104 2.789-2.606 3.053-4.492a7.645 7.645 0 00-.002-1.565zm-78.072 4.895l-.02.25c-.304 2.859-1.758 5.351-4.326 7.421-1.613 1.301-3.365 2.1-4.932 2.252-1.093.106-1.888-.043-2.36-.443-.354-.299-.544-.746-.587-1.367-.32-4.977 7.485-9.922 11.877-11.549.314 1.117.431 2.279.348 3.436zm19.99-14.036c-.723 4.12-2.83 11.895-6.143 14.912-.158.145-.29.196-.351.182-.06-.013-.108-.086-.156-.195-1.106-2.563-.698-6.89.976-10.291 1.287-2.621 3.125-4.358 5.18-4.883.085-.023.173-.036.262-.037a.308.308 0 01.195.053.32.32 0 01.037.26zm16.307 15.016c-.623.65-1.477.563-1.276.324l3.172-3.367c-.256 1.158-1.012 2.117-1.896 3.043zm13.158-2.912c-.302.149-.628.24-.963.271-.09-1.771 1.627-3.765 3.32-5.095.455 1.847-.476 3.8-2.357 4.824z" fill="#A3A3A3"/></g><defs><clipPath id="ma"><path fill="#fff" transform="translate(.75)" d="M0 0h100v100H0z"/></clipPath></defs></svg><svg fill="none" viewBox="0 0 202 50" id="vaillant" xmlns="http://www.w3.org/2000/svg"><path fill-rule="evenodd" clip-rule="evenodd" d="M45.403.876A3.68 3.68 0 0146.116.8c1.494 0 2.871 1.05 3.228 2.59l5.338 22.674a313.2 313.2 0 011.638 7.481c.53-2.417 1.194-5.38 1.686-7.49l5.347-22.656c.366-1.539 1.734-2.59 3.238-2.59.24 0 .472.02.713.077l1.59.363a3.224 3.224 0 012.013 1.424c.337.525.52 1.146.52 1.777l-.086.774-.877 3.717c-7.564 32.143-8.411 35.717-8.421 35.746-.559 2.045-2.64 4.3-4.808 4.3h-1.763c-2.12 0-4.297-2.303-4.827-4.377L41.356 5.224a3.676 3.676 0 01-.086-.784c0-.63.173-1.242.52-1.777a3.249 3.249 0 012.014-1.424l1.6-.363zM190.804.811h-1.609c-1.793 0-3.247 1.49-3.247 3.325v41.518c0 1.805 1.493 3.334 3.276 3.334h3.893c.509 0 .924-.41.924-.927V21.498h6.591c.51 0 .924-.41.924-.927v-3.554c0-1.978-1.666-3.039-3.236-3.039h-4.269V4.136c0-1.834-1.456-3.325-3.247-3.325zm-91.022 0h1.61c1.782 0 3.237 1.49 3.247 3.325V7.52c0 1.834-1.455 3.325-3.247 3.325h-1.61c-1.792 0-3.246-1.49-3.246-3.325V4.136c0-1.834 1.464-3.325 3.246-3.325zm0 13.168h1.609c1.783 0 3.238 1.49 3.247 3.335v28.35c0 1.835-1.454 3.335-3.247 3.335h-1.609c-1.792 0-3.246-1.5-3.246-3.335v-28.35c0-1.844 1.464-3.335 3.246-3.335zm73.708-.221h1.049c5.638 0 8.21 4.749 8.229 9.163v22.732c0 1.835-1.464 3.335-3.247 3.335h-1.609c-1.792 0-3.247-1.5-3.247-3.335V24.144c0-1.49-1.127-2.646-2.563-2.646h-3.844c-1.446 0-2.564 1.165-2.564 2.646v21.49c0 1.835-1.455 3.335-3.246 3.335h-1.609c-1.792 0-3.247-1.5-3.247-3.335v-28.56c0-1.204.81-3.116 2.968-3.116h2.148c.289 0 .559.134.733.364l.915 1.175.448.575.003.004.271.348c.212.287.482.468.733.468.164 0 .442-.038 1.021-.45l.944-.63.645-.42c1.061-.698 2.737-1.634 5.069-1.634zm-33.541 27.71c-1.435 0-2.563-1.165-2.563-2.646v-2.38c0-1.48 1.128-2.637 2.563-2.637h3.845c1.435 0 2.563 1.157 2.563 2.638v2.379c0 1.49-1.128 2.647-2.563 2.647h-3.845zm14.51-18.623c0-5.551-3.517-8.867-9.403-8.867h-10.05c-1.84 0-3.179 1.1-3.179 2.609v3.984c0 .516.414.927.925.927h11.273a2.325 2.325 0 012.351 2.35v4.664c0 .382-.077.573-.096.62-.01.03-.107.068-.203.068-.289 0-.492-.124-.877-.42l-.559-.421-.847-.64c-.887-.707-2.38-1.653-4.876-1.653h-.983c-5.405 0-8.633 4.653-8.633 9.153v4.75c0 4.538 3.228 9.23 8.633 9.23h.983c1.918 0 3.469-.507 4.876-1.577l.847-.611.541-.392c.472-.344.799-.402 1.049-.411.511 0 1.002.602 1.745 1.586l.249.335.387.496c.172.23.442.363.731.363h2.148c2.158 0 2.968-1.91 2.968-3.114V22.845zM123.986.812h-1.609c-1.792 0-3.247 1.49-3.247 3.326v41.517c0 1.834 1.455 3.334 3.247 3.334h3.931c.511 0 .925-.41.925-.926V4.137c0-1.835-1.455-3.326-3.247-3.326zm-11.303.001h-1.609c-1.792 0-3.247 1.49-3.247 3.325v41.517c0 1.835 1.455 3.335 3.247 3.335h3.931a.923.923 0 00.925-.927V4.137c0-1.834-1.455-3.325-3.247-3.325zm-36.42 38.01c0 1.482 1.127 2.648 2.563 2.648h3.844c1.436 0 2.563-1.157 2.563-2.647v-2.38c0-1.48-1.127-2.637-2.563-2.637h-3.844c-1.436 0-2.563 1.157-2.563 2.638v2.379zm7.67-24.843c5.886 0 9.403 3.316 9.403 8.868v23.028c0 1.203-.81 3.115-2.968 3.115H88.22a.915.915 0 01-.732-.363l-.386-.497-.25-.335c-.742-.984-1.234-1.586-1.744-1.586-.25.01-.578.067-1.05.41l-.54.393-.848.611c-1.407 1.07-2.958 1.577-4.875 1.577h-.983c-5.405 0-8.633-4.692-8.633-9.23v-4.75c0-4.5 3.228-9.153 8.633-9.153h.983c2.495 0 3.989.946 4.875 1.653l.848.64.559.42c.385.297.588.42.877.42.096 0 .192-.037.202-.066.02-.048.096-.239.096-.621V23.85a2.324 2.324 0 00-2.35-2.35H71.627a.923.923 0 01-.924-.927v-3.985c0-1.51 1.339-2.609 3.18-2.609h10.048zM4.038.81h30.6c1.976 0 3.585 1.596 3.595 3.545v41.068c0 1.959-1.62 3.555-3.594 3.555H4.04c-1.986 0-3.595-1.596-3.595-3.555V4.354c0-1.95 1.61-3.545 3.594-3.545zm1.235 26.298C4.589 38.68 10.61 45.931 19.34 45.931c8.72 0 14.741-7.252 14.086-18.824-.212-3.66-1.147-7.109-2.592-10.023 1.098-1.51 2.524-3.813 3.536-6.154 1.31-3.038 1.667-6.058.771-6.918-1.147-1.118-2.62.278-3.517 1.147l-.09.088a24.678 24.678 0 00-1.981 2.12c-.723.86-1.657 2.063-2.997 3.926-2.13-1.901-4.605-3.019-7.207-3.019-2.601 0-5.077 1.108-7.207 3.02C10.794 9.43 9.87 8.226 9.147 7.365a24.693 24.693 0 00-1.982-2.12l-.09-.087c-.896-.87-2.37-2.265-3.517-1.147-.896.86-.54 3.88.771 6.918 1.012 2.351 2.438 4.644 3.536 6.154-1.445 2.914-2.38 6.364-2.591 10.023zm26.025-14.409c-.848 1.7-1.956 3.497-2.862 4.72-.259.352-.545.708-.808 1.036-.582.724-1.056 1.314-.897 1.44.298.238 1.493-.975 2.437-1.988.983-1.06 3.093-4.11 4.451-7.253 1.36-3.143 1.427-5.666.925-6.153-.578-.554-1.416.038-2.562 1.146l-.053.051c-1.2 1.172-2.233 2.18-5.7 7.068-1.523 2.148-2.853 4.631-3.152 5.189v.001l-.056.104c-.067.124-.154.22-.366.19-.117-.021-.256-.082-.435-.159-.518-.223-1.366-.588-2.947-.595-1.574.007-2.416.369-2.935.592-.183.079-.326.14-.447.163-.212.038-.308-.067-.366-.192-.014-.023-.046-.084-.096-.175-.364-.675-1.645-3.048-3.112-5.118-3.467-4.888-4.5-5.896-5.7-7.068l-.052-.05C5.429 4.537 4.58 3.945 4.012 4.5c-.51.487-.433 3.01.925 6.153 1.359 3.144 3.478 6.192 4.452 7.253.934 1.013 2.129 2.236 2.428 1.987.159-.125-.316-.715-.898-1.439-.263-.328-.55-.684-.808-1.036-.896-1.223-2.004-3.029-2.852-4.72-.848-1.7-1.532-3.373-1.724-4.1-.174-.63-.232-1.289.154-1.404.491-.153.954.535 1.503 1.825.387.91.666 1.579.89 2.117.473 1.137.704 1.691 1.2 2.69a45.885 45.885 0 002.001 3.614c.183.302.343.566.485.82.318.563.954 1.69.983 1.776.058.153-.058.277-.086.306l-.09.106c-.535.625-1.55 1.81-1.731 3.83-.147 1.617.34 3.002.664 3.928.082.235.154.44.203.612.24.86.192 1.662 0 2.197a7.416 7.416 0 00-.444 2.981l-4.634-.229c-.212-.01-.395.144-.405.344a.382.382 0 00.366.392l7.602.392c.14-.508.377-.834.57-1.1.086-.12.164-.227.22-.334.184-.353.27-.83.193-1.337-.106-.755-.491-1.567-.983-2.188-.52-.66-1.628-2.332-1.792-3.832-.183-1.634.203-3.297 1.262-3.459 1.012-.162 1.976.593 2.94 2.17a11.748 11.748 0 011.695 5.637c.083 1.861-.233 2.27-.472 2.58l-.03.038c-.279.353-.674.907-.596 1.433.074.47.395.699.69.91.125.089.246.175.34.275 1.214 1.3-.578 2.656-1.435 2.647-.964-.02-2.274-.497-2.611-1.902l-6.658.344a.377.377 0 00-.366.392c.01.2.193.363.405.354l4.75-.249c.937 1.387 2.26 1.996 3.042 2.355.198.092.361.167.474.235.058.045.142.135.25.253.51.551 1.579 1.707 3.19 1.715 1.618 0 2.68-1.159 3.189-1.713.11-.119.193-.21.25-.255.114-.069.279-.144.479-.236.784-.36 2.112-.968 3.048-2.354l4.75.248a.378.378 0 00.405-.353.383.383 0 00-.366-.392l-6.658-.344c-.337 1.405-1.648 1.883-2.611 1.902-.858.019-2.65-1.348-1.436-2.647.094-.102.216-.19.344-.283.293-.211.614-.443.687-.902.077-.526-.318-1.08-.597-1.433l-.027-.035c-.239-.31-.558-.724-.474-2.583.096-2.255.79-4.157 1.695-5.638.964-1.576 1.928-2.331 2.94-2.169 1.059.162 1.445 1.825 1.261 3.459-.163 1.5-1.262 3.172-1.792 3.832-.491.62-.867 1.423-.982 2.188-.087.506 0 .984.183 1.337.056.107.134.214.22.333.194.267.43.593.57 1.1l7.602-.391a.377.377 0 00.366-.392.365.365 0 00-.405-.344l-4.644.24a7.253 7.253 0 00-.443-2.982c-.193-.535-.231-1.338 0-2.198.048-.17.119-.374.2-.606.322-.926.806-2.313.667-3.933-.18-1.992-1.177-3.173-1.71-3.804v-.001l-.111-.131c-.029-.029-.144-.153-.087-.306.03-.086.665-1.213.983-1.777.142-.253.302-.517.485-.82a45.308 45.308 0 002-3.614c.498-.998.729-1.552 1.202-2.69.224-.537.503-1.207.89-2.116.549-1.29 1.011-1.978 1.503-1.825.385.115.318.774.154 1.404-.174.727-.858 2.39-1.705 4.09zM19.284 40.57c-.646 0-1.397-.267-1.879-.793a4.368 4.368 0 001.879-1.166 4.26 4.26 0 001.879 1.166c-.492.526-1.234.793-1.88.793zm-2.73-13.086a9.48 9.48 0 00-.46-1.257c-.682-1.517-1.601-1.348-1.925-1.288l-.04.007a1.436 1.436 0 00-.305.12c-.148.07-.268.129-.351.052-.25-.229.289-.764 1.05-.755 1.214.02 1.773 1.138 1.975 1.71.357 1.004.415 1.826.28 1.864-.078.024-.13-.143-.223-.453zm-.46 1.649c.308-.201.308-.67.116-1.319-.087-.315-.135-.478-.193-.564l-.164-.038c-.125.048-.559.182-.732-.143-.164-.316.183-.583.366-.65l.02-.134c-.3-.544-.993-.927-1.485-.592-.443.296-.491 1.567.058 2.331.771 1.09 1.667 1.338 2.014 1.109zm15.445 6.142l-7.101.019c.019.2.029.42.01.669v.057l7.081.02a.401.401 0 00.395-.392.39.39 0 00-.385-.373zm-9.076-6.143c.337.22 1.243-.019 2.033-1.108.549-.755.491-2.026.048-2.332-.501-.334-1.195.039-1.484.593l.02.134c.182.067.53.334.366.65-.174.324-.608.19-.733.143l-.164.038c-.057.086-.106.248-.192.564-.203.65-.203 1.127.106 1.318zm2.272-4.055a1.314 1.314 0 00-.316-.121l-.022-.005c-.298-.065-1.24-.27-1.943 1.285-.238.524-.37.957-.462 1.256-.093.307-.144.474-.222.455-.145-.039-.077-.85.28-1.864.201-.573.76-1.691 1.974-1.71.762-.01 1.301.525 1.05.755-.08.075-.196.018-.339-.051zM14.108 35.97c-.02-.248-.01-.468.01-.668l-7.092-.03a.402.402 0 00-.395.392c0 .21.183.392.395.392l7.082-.019v-.067z" fill="currentColor"/></svg><svg fill="none" viewBox="0 0 121 120" id="webpack" xmlns="http://www.w3.org/2000/svg"><path d="M60.917 12l42.5 24v48l-42.5 24-42.5-24V36l42.5-24z" fill="#D1D1D1"/><path d="M95.141 82.201L61.877 101V86.358l20.726-11.39L95.14 82.2zm2.276-2.059V40.827l-12.173 7.02v25.268l12.173 7.027zm-71.725 2.059L58.957 101V86.358l-20.726-11.39L25.692 82.2zm-2.275-2.059V40.827l12.173 7.02v25.268l-12.173 7.027zm1.424-41.858L58.957 19v14.157l-21.855 12.01-.167.096-12.094-6.98zm71.152 0L61.877 19v14.157l21.855 12.01.168.096 12.093-6.98z" fill="#757575"/><path d="M58.95 83L38.418 71.85V49.754l20.534 11.71V83zm2.933 0l20.534-11.15V49.754l-20.534 11.71V83zM39.807 47.198L60.421 36l20.614 11.198L60.42 58.956 39.807 47.198z" fill="#474747"/></svg><svg fill="none" viewBox="0 0 71 86" id="yii" xmlns="http://www.w3.org/2000/svg"><g clip-path="url(#pa)"><path d="M52.526 54.668c-.58-7.66-3.052-12.626-4.256-15.44-1.203-2.814-3.053-5.448-3.054-5.444-.004.012-1.666 8.964-4.654 15.441-.5 1.082-1.162 2.433-1.83 3.52-2.063 3.641-5.056 7.124-6.84 10.654-1.77 3.499-2.098 6.964-1.934 10.904.166 3.961 1.082 7.846 1.96 11.697 3.315-.714 6.199-1.937 8.694-3.5 6.566-4.115 10.534-10.695 11.661-17.785 0 0 .055-.288.08-.64.508-5.479.34-7.208.173-9.407z" fill="#919191"/><path d="M52.526 54.668c-.58-7.66-3.052-12.626-4.256-15.44-1.203-2.814-3.053-5.448-3.054-5.444v.002-.002l-.442-.657C35.09 19.542 16.52 12.758.83 19.045c-.755 9.523 3.662 25.908 19.777 30.478 6.515 2.004 11.732 1.484 18.125 3.222 0 0 6.498 2.264 10.28 5.659 1.7 1.527 3.403 3.536 3.317 5.925.54-5.687.367-7.427.197-9.661z" fill="#BFBFBF"/><path fill-rule="evenodd" clip-rule="evenodd" d="M45.49 25.811c-2.29-6.695-1.32-11.181 2.869-17.425 1.998-2.979 5.447-6.434 8.47-8.386 12.198 7.64 16.708 21.87 12.223 35.085-3.265 9.616-6.328 13.648-14.073 23.542.903-10.596-2.828-17.942-6.492-26.105-.932-2.076-2.221-4.44-2.998-6.71z" fill="#A8A8A8"/><path d="M52.33 64.33c.085-2.39-1.618-4.4-3.319-5.926-3.78-3.395-10.279-5.659-10.279-5.659.669-1.087 1.331-2.438 1.83-3.52 2.988-6.477 4.65-15.429 4.654-15.44.001-.005 1.85 2.63 3.054 5.443 1.204 2.814 3.676 7.78 4.256 15.44.17 2.234.342 3.974-.196 9.661z" fill="#797979"/></g><defs><clipPath id="pa"><path fill="#fff" transform="translate(.75)" d="M0 0h70v86H0z"/></clipPath></defs></svg><svg fill="none" viewBox="0 0 174 62" id="zolla" xmlns="http://www.w3.org/2000/svg"><path d="M63.673 18.408c-12.014 0-21.77 9.612-21.77 21.424s9.776 21.404 21.77 21.404c12.014 0 21.79-9.612 21.79-21.404-.02-11.812-9.776-21.424-21.79-21.424zm11.046 21.424c0 6.163-4.959 11.158-11.046 11.158-6.108 0-11.067-5.014-11.067-11.158 0-6.164 4.959-11.158 11.067-11.158 6.107-.02 11.046 4.994 11.046 11.158zM104.253.75H92.4v59.455h11.853V.75zm19.127 0h-11.853v59.455h11.853V.75zm47.961 29.96c-3.367-7.69-10.663-12.288-19.533-12.288-12.014 0-21.79 9.612-21.79 21.424 0 11.811 9.776 21.403 21.79 21.403 4.576 0 8.406-1.288 11.711-3.944l.081 2.894h9.877V45.315c0-4.796-.241-10.285-2.136-14.606zm-8.487 9.116c0 6.163-4.958 11.157-11.046 11.157-6.108 0-11.066-5.014-11.066-11.157 0-6.164 4.958-11.158 11.066-11.158 6.088 0 11.046 4.994 11.046 11.158zM40.615 19.932l-.141-.455H2.457v9.175h19.895L.522 59.886l.06.317h38.521v-9.612H19.208l21.407-30.659z" fill="currentColor"/></svg></svg>